<svg width="100" height="100" viewBox="0 0 100 100" fill="none" xmlns="http://www.w3.org/2000/svg">
<path d="M52.6917 66.6445C40.9109 66.6445 31.3266 57.1426 31.3266 45.4632C31.3266 33.7838 40.9109 24.282 52.6917 24.282C64.4724 24.282 74.0567 33.7838 74.0567 45.4632C74.0567 57.1426 64.4724 66.6445 52.6917 66.6445ZM52.6917 25.2998C41.4767 25.2998 32.3533 34.3447 32.3533 45.4632C32.3533 56.5817 41.4767 65.6266 52.6917 65.6266C63.9066 65.6266 73.0301 56.5817 73.0301 45.4632C73.0301 34.3447 63.9066 25.2998 52.6917 25.2998Z" fill="black"/>
<path d="M52.6916 34.5243C49.8895 34.5243 47.124 34.1383 44.4717 33.3779C42.2337 32.7362 40.1388 31.8487 38.2452 30.7434C38.0006 30.6015 37.9191 30.2881 38.0639 30.0473C38.2086 29.8048 38.5231 29.7239 38.766 29.8674C40.5847 30.9298 42.5998 31.781 44.7563 32.4013C47.3154 33.1354 49.986 33.5082 52.6899 33.5082C55.3939 33.5082 58.0645 33.1354 60.6236 32.4013C62.7851 31.781 64.7968 30.9282 66.6039 29.8691C66.8485 29.7256 67.1629 29.8064 67.3077 30.0473C67.4525 30.2881 67.3709 30.6015 67.128 30.745C65.2477 31.8487 63.1545 32.7345 60.9098 33.3795C58.2575 34.14 55.492 34.526 52.6899 34.526L52.6916 34.5243Z" fill="black"/>
<path d="M52.6915 66.6445C49.7696 66.6445 47.0541 64.3927 45.044 60.3033C43.0905 56.331 42.0156 51.0604 42.0156 45.4632C42.0156 39.866 43.0905 34.5955 45.044 30.6232C47.0541 26.5337 49.7696 24.282 52.6915 24.282C55.6134 24.282 58.3289 26.5337 60.339 30.6232C62.2925 34.5955 63.3674 39.866 63.3674 45.4632C63.3674 51.0604 62.2925 56.331 60.339 60.3033C58.3289 64.3927 55.6134 66.6445 52.6915 66.6445ZM52.6915 25.2998C50.1839 25.2998 47.7962 27.3486 45.9675 31.0686C44.0822 34.9056 43.0439 40.0178 43.0439 45.4632C43.0439 50.9086 44.0822 56.0208 45.9675 59.8579C47.7962 63.5778 50.1839 65.6266 52.6915 65.6266C55.1991 65.6266 57.5868 63.5778 59.4155 59.8579C61.3008 56.0208 62.3407 50.9086 62.3407 45.4632C62.3407 40.0178 61.3024 34.9056 59.4155 31.0686C57.5868 27.3486 55.1991 25.2998 52.6915 25.2998Z" fill="black"/>
<path d="M66.5806 61.3856C66.4941 61.3856 66.4076 61.3641 66.326 61.3179C64.5323 60.3034 62.5622 59.4901 60.4706 58.9012C57.9664 58.1968 55.349 57.8389 52.6917 57.8389C50.0343 57.8389 47.422 58.1968 44.9127 58.9012C42.8145 59.4901 40.841 60.3034 39.049 61.3179C38.8027 61.4582 38.4899 61.3724 38.3485 61.1282C38.2087 60.8841 38.2935 60.574 38.5398 60.4337C40.4051 59.378 42.4551 58.5334 44.6332 57.9213C47.2339 57.1906 49.9445 56.821 52.6917 56.821C55.4388 56.821 58.1561 57.1906 60.7518 57.9213C62.9216 58.5317 64.9699 59.378 66.8352 60.4337C67.0815 60.5723 67.1663 60.8841 67.0266 61.1282C66.9317 61.2932 66.7587 61.3856 66.5806 61.3856Z" fill="black"/>
<path d="M73.5442 45.9727H31.839C31.5562 45.9727 31.3265 45.7451 31.3265 45.4646C31.3265 45.1842 31.5562 44.9565 31.839 44.9565H73.5442C73.827 44.9565 74.0566 45.1842 74.0566 45.4646C74.0566 45.7451 73.827 45.9727 73.5442 45.9727Z" fill="black"/>
<path d="M52.6917 66.6443C52.4088 66.6443 52.1792 66.4166 52.1792 66.1362V24.7915C52.1792 24.5111 52.4088 24.2834 52.6917 24.2834C52.9746 24.2834 53.2042 24.5111 53.2042 24.7915V66.1362C53.2042 66.4166 52.9746 66.6443 52.6917 66.6443Z" fill="black"/>
<path d="M52.64 90C52.5518 90 52.4653 89.9786 52.3871 89.934L35.4381 80.3876C25.8105 74.924 19.8303 64.6996 19.8303 53.7032V14.8858C19.8303 14.6482 19.9967 14.442 20.2297 14.3892C29.3897 12.3338 39.7477 11.278 51.016 11.25H54.6933C65.7918 11.3044 76.0051 12.3602 85.052 14.3892C85.2866 14.442 85.4513 14.6482 85.4513 14.8858V53.7016C85.4513 54.6798 85.4031 55.6696 85.3099 56.6428C85.2833 56.9233 85.032 57.1278 84.7491 57.1014C84.4663 57.0751 84.2599 56.826 84.2866 56.5455C84.3781 55.6052 84.423 54.6484 84.423 53.7016V15.2932C75.5492 13.3384 65.5472 12.3206 54.69 12.2678H51.0176C39.9907 12.2959 29.8439 13.3137 20.857 15.2932V53.7016C20.857 64.3334 26.6392 74.2196 35.9473 79.5018L52.6417 88.9046L65.9981 81.3823C66.2444 81.2438 66.5589 81.3295 66.6987 81.5737C66.8384 81.8178 66.7519 82.128 66.5056 82.2682L52.8962 89.934C52.818 89.9786 52.7298 90 52.6433 90H52.64Z" fill="black"/>
<path d="M52.8081 83.2084C52.7199 83.2084 52.6333 83.1869 52.5551 83.1424L38.4266 75.1846C30.3747 70.6151 25.3729 62.0634 25.3729 52.8668V19.8461C25.3729 19.6086 25.5393 19.4024 25.7723 19.3496C33.4148 17.6356 42.0556 16.7547 51.4553 16.73H54.5203C63.7784 16.7745 72.2995 17.6554 79.8455 19.3496C80.0801 19.4024 80.2448 19.6086 80.2448 19.8461V56.2287C80.2448 56.5091 80.0152 56.7368 79.7323 56.7368C79.4495 56.7368 79.2199 56.5091 79.2199 56.2287V20.2552C71.8452 18.637 63.5372 17.794 54.5186 17.7495H51.4569C42.2986 17.7725 33.869 18.6155 26.3996 20.2552V52.8668C26.3996 61.6989 31.2034 69.9124 38.9357 74.3004L52.8097 82.1147L63.6703 75.9979C63.9165 75.8593 64.231 75.9451 64.3708 76.1892C64.5106 76.4334 64.4241 76.7435 64.1778 76.8837L53.0643 83.1441C52.9861 83.1886 52.8979 83.21 52.8114 83.21L52.8081 83.2084Z" fill="black"/>
<path d="M19.7304 37.436H18.96C18.6771 37.436 18.4475 37.2084 18.4475 36.9279C18.4475 36.6475 18.6771 36.4199 18.96 36.4199H19.7304C20.0133 36.4199 20.2429 36.6475 20.2429 36.9279C20.2429 37.2084 20.0133 37.436 19.7304 37.436ZM16.9067 37.436H16.1363C15.8534 37.436 15.6238 37.2084 15.6238 36.9279C15.6238 36.6475 15.8534 36.4199 16.1363 36.4199H16.9067C17.1895 36.4199 17.4192 36.6475 17.4192 36.9279C17.4192 37.2084 17.1895 37.436 16.9067 37.436ZM14.083 37.436H13.3126C13.0297 37.436 12.8001 37.2084 12.8001 36.9279C12.8001 36.6475 13.0297 36.4199 13.3126 36.4199H14.083C14.3658 36.4199 14.5955 36.6475 14.5955 36.9279C14.5955 37.2084 14.3658 37.436 14.083 37.436ZM11.2592 37.436H11.013C10.7301 37.436 10.5005 37.2084 10.5005 36.9279V36.4083C10.5005 36.1279 10.7301 35.9002 11.013 35.9002C11.2959 35.9002 11.5255 36.1279 11.5255 36.4083V36.4941C11.6736 36.5832 11.7717 36.7448 11.7717 36.9279C11.7717 37.2084 11.5421 37.436 11.2592 37.436ZM11.0146 34.8807C10.7318 34.8807 10.5022 34.6531 10.5022 34.3727V33.6089C10.5022 33.3284 10.7318 33.1008 11.0146 33.1008C11.2975 33.1008 11.5271 33.3284 11.5271 33.6089V34.3727C11.5271 34.6531 11.2975 34.8807 11.0146 34.8807ZM11.0146 32.0813C10.7318 32.0813 10.5022 31.8537 10.5022 31.5732V30.8095C10.5022 30.529 10.7318 30.3014 11.0146 30.3014C11.2975 30.3014 11.5271 30.529 11.5271 30.8095V31.5732C11.5271 31.8537 11.2975 32.0813 11.0146 32.0813ZM11.0146 29.2836C10.7318 29.2836 10.5022 29.0559 10.5022 28.7755V28.1255C10.5022 27.8451 10.7318 27.6174 11.0146 27.6174C11.2975 27.6174 11.5271 27.8451 11.5271 28.1255V28.7755C11.5271 29.0559 11.2975 29.2836 11.0146 29.2836Z" fill="black"/>
<path d="M11.0147 28.2956C9.13614 28.2956 7.60864 26.7812 7.60864 24.9188C7.60864 23.0564 9.13614 21.542 11.0147 21.542C12.8933 21.542 14.4208 23.0564 14.4208 24.9188C14.4208 26.7812 12.8933 28.2956 11.0147 28.2956ZM11.0147 22.5598C9.70355 22.5598 8.6353 23.6172 8.6353 24.9188C8.6353 26.2203 9.70189 27.2778 11.0147 27.2778C12.3276 27.2778 13.3942 26.2203 13.3942 24.9188C13.3942 23.6172 12.3276 22.5598 11.0147 22.5598Z" fill="black"/>
<path d="M11.0148 61.3923C10.7319 61.3923 10.5023 61.1646 10.5023 60.8842V60.2342C10.5023 59.9538 10.7319 59.7261 11.0148 59.7261C11.2977 59.7261 11.5273 59.9538 11.5273 60.2342V60.8842C11.5273 61.1646 11.2977 61.3923 11.0148 61.3923ZM11.0148 58.7067C10.7319 58.7067 10.5023 58.479 10.5023 58.1986V57.4348C10.5023 57.1544 10.7319 56.9267 11.0148 56.9267C11.2977 56.9267 11.5273 57.1544 11.5273 57.4348V58.1986C11.5273 58.479 11.2977 58.7067 11.0148 58.7067ZM11.0148 55.9072C10.7319 55.9072 10.5023 55.6796 10.5023 55.3992V54.6354C10.5023 54.3549 10.7319 54.1273 11.0148 54.1273C11.2977 54.1273 11.5273 54.3549 11.5273 54.6354V55.3992C11.5273 55.6796 11.2977 55.9072 11.0148 55.9072ZM11.0148 53.1078C10.7319 53.1078 10.5023 52.8802 10.5023 52.5997V52.0801C10.5023 51.7997 10.7319 51.572 11.0148 51.572H11.2611C11.5439 51.572 11.7736 51.7997 11.7736 52.0801C11.7736 52.2649 11.6754 52.4249 11.5273 52.514V52.5997C11.5273 52.8802 11.2977 53.1078 11.0148 53.1078ZM19.7306 52.5882H18.9602C18.6773 52.5882 18.4477 52.3605 18.4477 52.0801C18.4477 51.7997 18.6773 51.572 18.9602 51.572H19.7306C20.0134 51.572 20.2431 51.7997 20.2431 52.0801C20.2431 52.3605 20.0134 52.5882 19.7306 52.5882ZM16.9068 52.5882H16.1364C15.8536 52.5882 15.6239 52.3605 15.6239 52.0801C15.6239 51.7997 15.8536 51.572 16.1364 51.572H16.9068C17.1897 51.572 17.4193 51.7997 17.4193 52.0801C17.4193 52.3605 17.1897 52.5882 16.9068 52.5882ZM14.0831 52.5882H13.3127C13.0299 52.5882 12.8002 52.3605 12.8002 52.0801C12.8002 51.7997 13.0299 51.572 13.3127 51.572H14.0831C14.366 51.572 14.5956 51.7997 14.5956 52.0801C14.5956 52.3605 14.366 52.5882 14.0831 52.5882Z" fill="black"/>
<path d="M11.0147 67.4645C9.13614 67.4645 7.60864 65.9502 7.60864 64.0877C7.60864 62.2253 9.13614 60.7109 11.0147 60.7109C12.8933 60.7109 14.4208 62.2253 14.4208 64.0877C14.4208 65.9502 12.8933 67.4645 11.0147 67.4645ZM11.0147 61.7288C9.70355 61.7288 8.6353 62.7862 8.6353 64.0877C8.6353 65.3893 9.70189 66.4467 11.0147 66.4467C12.3276 66.4467 13.3942 65.3893 13.3942 64.0877C13.3942 62.7862 12.3276 61.7288 11.0147 61.7288Z" fill="black"/>
<path d="M19.7305 45.15H18.9601C18.6773 45.15 18.4476 44.9223 18.4476 44.6419C18.4476 44.3614 18.6773 44.1338 18.9601 44.1338H19.7305C20.0134 44.1338 20.243 44.3614 20.243 44.6419C20.243 44.9223 20.0134 45.15 19.7305 45.15ZM16.9068 45.15H16.1364C15.8536 45.15 15.6239 44.9223 15.6239 44.6419C15.6239 44.3614 15.8536 44.1338 16.1364 44.1338H16.9068C17.1897 44.1338 17.4193 44.3614 17.4193 44.6419C17.4193 44.9223 17.1897 45.15 16.9068 45.15ZM14.0831 45.15H13.3127C13.0298 45.15 12.8002 44.9223 12.8002 44.6419C12.8002 44.3614 13.0298 44.1338 13.3127 44.1338H14.0831C14.366 44.1338 14.5956 44.3614 14.5956 44.6419C14.5956 44.9223 14.366 45.15 14.0831 45.15ZM11.2594 45.15H10.489C10.2061 45.15 9.9765 44.9223 9.9765 44.6419C9.9765 44.3614 10.2061 44.1338 10.489 44.1338H11.2594C11.5423 44.1338 11.7719 44.3614 11.7719 44.6419C11.7719 44.9223 11.5423 45.15 11.2594 45.15Z" fill="black"/>
<path d="M7.1561 48.017C5.2775 48.017 3.75 46.5027 3.75 44.6402C3.75 42.7778 5.2775 41.2634 7.1561 41.2634C9.03469 41.2634 10.5622 42.7778 10.5622 44.6402C10.5622 46.5027 9.03469 48.017 7.1561 48.017ZM7.1561 42.2829C5.84491 42.2829 4.77665 43.3403 4.77665 44.6419C4.77665 45.9434 5.84324 47.0008 7.1561 47.0008C8.46895 47.0008 9.53554 45.9434 9.53554 44.6419C9.53554 43.3403 8.46895 42.2829 7.1561 42.2829Z" fill="black"/>
<path d="M80.2531 89.9095C70.7436 89.9095 63.0063 82.2387 63.0063 72.8111C63.0063 63.3834 70.7436 55.7126 80.2531 55.7126C89.7625 55.7126 97.4999 63.3834 97.4999 72.8111C97.4999 82.2387 89.7625 89.9095 80.2531 89.9095ZM80.2531 56.7305C71.3094 56.7305 64.0329 63.9443 64.0329 72.8111C64.0329 81.6778 71.3094 88.8916 80.2531 88.8916C89.1968 88.8916 96.4732 81.6778 96.4732 72.8111C96.4732 63.9443 89.1968 56.7305 80.2531 56.7305Z" fill="black"/>
<path d="M77.4344 77.4532C77.298 77.4532 77.1682 77.4004 77.0717 77.3047L73.3278 73.593C73.1281 73.3934 73.1281 73.0718 73.3278 72.8738C73.5291 72.6759 73.8536 72.6759 74.0533 72.8738L77.4344 76.2259L85.408 68.3208C85.6094 68.1229 85.9338 68.1229 86.1335 68.3208C86.3332 68.5204 86.3332 68.8421 86.1335 69.0401L77.7972 77.3047C77.7006 77.4004 77.5709 77.4532 77.4344 77.4532Z" fill="black"/>
</svg>
