<svg width="100" height="100" viewBox="0 0 100 100" fill="none" xmlns="http://www.w3.org/2000/svg">
<path d="M84.9391 87H14.3446C14.0764 87 13.8586 86.7822 13.8586 86.514V81.0829C13.8586 80.8147 14.0764 80.5969 14.3446 80.5969H84.9391C85.2074 80.5969 85.4251 80.8147 85.4251 81.0829V86.514C85.4251 86.7822 85.2074 87 84.9391 87ZM14.8322 86.0264H84.4531V81.5689H14.8322V86.0264Z" fill="black"/>
<path d="M22.4894 72.0653C22.2211 72.0653 22.0034 71.8476 22.0034 71.5793V38.9976C22.0034 38.7294 22.2211 38.5116 22.4894 38.5116C22.7576 38.5116 22.9753 38.7294 22.9753 38.9976V71.5793C22.9753 71.8476 22.7576 72.0653 22.4894 72.0653Z" fill="black"/>
<path d="M27.9206 72.0653C27.6524 72.0653 27.4347 71.8476 27.4347 71.5793V38.9976C27.4347 38.7294 27.6524 38.5116 27.9206 38.5116C28.1889 38.5116 28.4066 38.7294 28.4066 38.9976V71.5793C28.4066 71.8476 28.1889 72.0653 27.9206 72.0653Z" fill="black"/>
<path d="M38.7809 72.0653C38.5127 72.0653 38.2949 71.8476 38.2949 71.5793V38.9976C38.2949 38.7294 38.5127 38.5116 38.7809 38.5116C39.0491 38.5116 39.2669 38.7294 39.2669 38.9976V71.5793C39.2669 71.8476 39.0491 72.0653 38.7809 72.0653Z" fill="black"/>
<path d="M44.2122 72.0653C43.9439 72.0653 43.7262 71.8476 43.7262 71.5793V38.9976C43.7262 38.7294 43.9439 38.5116 44.2122 38.5116C44.4804 38.5116 44.6982 38.7294 44.6982 38.9976V71.5793C44.6982 71.8476 44.4804 72.0653 44.2122 72.0653Z" fill="black"/>
<path d="M55.0727 72.0653C54.8045 72.0653 54.5867 71.8476 54.5867 71.5793V38.9976C54.5867 38.7294 54.8045 38.5116 55.0727 38.5116C55.3409 38.5116 55.5587 38.7294 55.5587 38.9976V71.5793C55.5587 71.8476 55.3409 72.0653 55.0727 72.0653Z" fill="black"/>
<path d="M60.5024 72.0653C60.2342 72.0653 60.0164 71.8476 60.0164 71.5793V38.9976C60.0164 38.7294 60.2342 38.5116 60.5024 38.5116C60.7707 38.5116 60.9884 38.7294 60.9884 38.9976V71.5793C60.9884 71.8476 60.7707 72.0653 60.5024 72.0653Z" fill="black"/>
<path d="M71.3629 72.0653C71.0947 72.0653 70.877 71.8476 70.877 71.5793V38.9976C70.877 38.7294 71.0947 38.5116 71.3629 38.5116C71.6312 38.5116 71.8489 38.7294 71.8489 38.9976V71.5793C71.8489 71.8476 71.6312 72.0653 71.3629 72.0653Z" fill="black"/>
<path d="M76.794 72.0653C76.5257 72.0653 76.308 71.8476 76.308 71.5793V38.9976C76.308 38.7294 76.5257 38.5116 76.794 38.5116C77.0622 38.5116 77.28 38.7294 77.28 38.9976V71.5793C77.28 71.8476 77.0622 72.0653 76.794 72.0653Z" fill="black"/>
<path d="M29.2774 76.1377H21.1324C20.8641 76.1377 20.6464 75.9199 20.6464 75.6517V71.5792C20.6464 71.3109 20.8641 71.0932 21.1324 71.0932H29.2774C29.5456 71.0932 29.7634 71.3109 29.7634 71.5792V75.6517C29.7634 75.9199 29.5456 76.1377 29.2774 76.1377ZM21.6184 75.1641H28.7898V72.0651H21.6184V75.1641Z" fill="black"/>
<path d="M45.5692 76.1377H37.4242C37.1559 76.1377 36.9382 75.9199 36.9382 75.6517V71.5792C36.9382 71.3109 37.1559 71.0932 37.4242 71.0932H45.5692C45.8374 71.0932 46.0552 71.3109 46.0552 71.5792V75.6517C46.0552 75.9199 45.8374 76.1377 45.5692 76.1377ZM37.9102 75.1641H45.0816V72.0651H37.9102V75.1641Z" fill="black"/>
<path d="M61.861 76.1377H53.716C53.4477 76.1377 53.23 75.9199 53.23 75.6517V71.5792C53.23 71.3109 53.4477 71.0932 53.716 71.0932H61.861C62.1292 71.0932 62.347 71.3109 62.347 71.5792V75.6517C62.347 75.9199 62.1292 76.1377 61.861 76.1377ZM54.202 75.1641H61.3734V72.0651H54.202V75.1641Z" fill="black"/>
<path d="M78.1507 76.1377H70.0057C69.7375 76.1377 69.5197 75.9199 69.5197 75.6517V71.5792C69.5197 71.3109 69.7375 71.0932 70.0057 71.0932H78.1507C78.419 71.0932 78.6367 71.3109 78.6367 71.5792V75.6517C78.6367 75.9199 78.419 76.1377 78.1507 76.1377ZM70.4917 75.1641H77.6632V72.0651H70.4917V75.1641Z" fill="black"/>
<path d="M82.2233 81.5687H17.0599C16.7916 81.5687 16.5739 81.351 16.5739 81.0827V75.6516C16.5739 75.3834 16.7916 75.1657 17.0599 75.1657H82.2233C82.4915 75.1657 82.7093 75.3834 82.7093 75.6516V81.0827C82.7093 81.351 82.4915 81.5687 82.2233 81.5687ZM17.5459 80.5952H81.7357V76.1376H17.5459V80.5952Z" fill="black"/>
<path d="M90.9096 56.4871H90.179C89.9108 56.4871 89.693 56.2693 89.693 56.0011C89.693 55.7329 89.9108 55.5151 90.179 55.5151H90.9096C91.1778 55.5151 91.3955 55.7329 91.3955 56.0011C91.3955 56.2693 91.1778 56.4871 90.9096 56.4871ZM88.2335 56.4871H87.5029C87.2347 56.4871 87.0169 56.2693 87.0169 56.0011C87.0169 55.7329 87.2347 55.5151 87.5029 55.5151H88.2335C88.5017 55.5151 88.7194 55.7329 88.7194 56.0011C88.7194 56.2693 88.5017 56.4871 88.2335 56.4871ZM85.5558 56.4871H84.8252C84.557 56.4871 84.3392 56.2693 84.3392 56.0011C84.3392 55.7329 84.557 55.5151 84.8252 55.5151H85.5558C85.824 55.5151 86.0418 55.7329 86.0418 56.0011C86.0418 56.2693 85.824 56.4871 85.5558 56.4871ZM82.8781 56.4871H82.1476C81.8793 56.4871 81.6616 56.2693 81.6616 56.0011C81.6616 55.7329 81.8793 55.5151 82.1476 55.5151H82.8781C83.1464 55.5151 83.3641 55.7329 83.3641 56.0011C83.3641 56.2693 83.1464 56.4871 82.8781 56.4871ZM80.2005 56.4871H79.4699C79.2017 56.4871 78.9839 56.2693 78.9839 56.0011C78.9839 55.7329 79.2017 55.5151 79.4699 55.5151H80.2005C80.4687 55.5151 80.6864 55.7329 80.6864 56.0011C80.6864 56.2693 80.4687 56.4871 80.2005 56.4871ZM77.5228 56.4871H76.7922C76.524 56.4871 76.3062 56.2693 76.3062 56.0011C76.3062 55.7329 76.524 55.5151 76.7922 55.5151H77.5228C77.791 55.5151 78.0088 55.7329 78.0088 56.0011C78.0088 56.2693 77.791 56.4871 77.5228 56.4871Z" fill="black"/>
<path d="M90.8119 72.6399H90.0813C89.8131 72.6399 89.5953 72.4221 89.5953 72.1539C89.5953 71.8857 89.8131 71.6679 90.0813 71.6679H90.8119C91.0801 71.6679 91.2979 71.8857 91.2979 72.1539C91.2979 72.4221 91.0801 72.6399 90.8119 72.6399ZM88.9736 71.8005C88.7054 71.8005 88.4877 71.5827 88.4877 71.3145V70.5839C88.4877 70.3157 88.7054 70.0979 88.9736 70.0979C89.2419 70.0979 89.4596 70.3157 89.4596 70.5839V71.3145C89.4596 71.5827 89.2419 71.8005 88.9736 71.8005ZM88.9736 69.1228C88.7054 69.1228 88.4877 68.905 88.4877 68.6368V67.9062C88.4877 67.638 88.7054 67.4203 88.9736 67.4203C89.2419 67.4203 89.4596 67.638 89.4596 67.9062V68.6368C89.4596 68.905 89.2419 69.1228 88.9736 69.1228ZM88.9736 66.4467C88.7054 66.4467 88.4877 66.229 88.4877 65.9607V65.2301C88.4877 64.9619 88.7054 64.7442 88.9736 64.7442C89.2419 64.7442 89.4596 64.9619 89.4596 65.2301V65.9607C89.4596 66.229 89.2419 66.4467 88.9736 66.4467ZM88.9736 63.769C88.7054 63.769 88.4877 63.5513 88.4877 63.283V62.5525C88.4877 62.2842 88.7054 62.0665 88.9736 62.0665C89.2419 62.0665 89.4596 62.2842 89.4596 62.5525V63.283C89.4596 63.5513 89.2419 63.769 88.9736 63.769ZM88.9736 61.0914C88.7054 61.0914 88.4877 60.8736 88.4877 60.6054V59.8748C88.4877 59.6066 88.7054 59.3888 88.9736 59.3888C89.2419 59.3888 89.4596 59.6066 89.4596 59.8748V60.6054C89.4596 60.8736 89.2419 61.0914 88.9736 61.0914ZM88.9736 58.4137C88.7054 58.4137 88.4877 58.1959 88.4877 57.9277V57.1971C88.4877 56.9289 88.7054 56.7112 88.9736 56.7112C89.2419 56.7112 89.4596 56.9289 89.4596 57.1971V57.9277C89.4596 58.1959 89.2419 58.4137 88.9736 58.4137ZM88.9736 55.736C88.7054 55.736 88.4877 55.5183 88.4877 55.25V54.5195C88.4877 54.2512 88.7054 54.0335 88.9736 54.0335C89.2419 54.0335 89.4596 54.2512 89.4596 54.5195V55.25C89.4596 55.5183 89.2419 55.736 88.9736 55.736ZM88.9736 53.0599C88.7054 53.0599 88.4877 52.8422 88.4877 52.5739V51.8434C88.4877 51.5751 88.7054 51.3574 88.9736 51.3574C89.2419 51.3574 89.4596 51.5751 89.4596 51.8434V52.5739C89.4596 52.8422 89.2419 53.0599 88.9736 53.0599ZM88.9736 50.3823C88.7054 50.3823 88.4877 50.1645 88.4877 49.8963V49.1657C88.4877 48.8975 88.7054 48.6797 88.9736 48.6797C89.2419 48.6797 89.4596 48.8975 89.4596 49.1657V49.8963C89.4596 50.1645 89.2419 50.3823 88.9736 50.3823ZM88.9736 47.7046C88.7054 47.7046 88.4877 47.4869 88.4877 47.2186V46.4881C88.4877 46.2198 88.7054 46.0021 88.9736 46.0021C89.2419 46.0021 89.4596 46.2198 89.4596 46.4881V47.2186C89.4596 47.4869 89.2419 47.7046 88.9736 47.7046ZM88.9736 45.0269C88.7054 45.0269 88.4877 44.8092 88.4877 44.5409V43.8104C88.4877 43.5421 88.7054 43.3244 88.9736 43.3244C89.2419 43.3244 89.4596 43.5421 89.4596 43.8104V44.5409C89.4596 44.8092 89.2419 45.0269 88.9736 45.0269ZM88.9736 42.3508C88.7054 42.3508 88.4877 42.1331 88.4877 41.8649V41.1343C88.4877 40.8661 88.7054 40.6483 88.9736 40.6483C89.2419 40.6483 89.4596 40.8661 89.4596 41.1343V41.8649C89.4596 42.1331 89.2419 42.3508 88.9736 42.3508ZM92.7921 40.085H92.0616C91.7933 40.085 91.5756 39.8673 91.5756 39.599C91.5756 39.3308 91.7933 39.113 92.0616 39.113H92.7921C93.0604 39.113 93.2781 39.3308 93.2781 39.599C93.2781 39.8673 93.0604 40.085 92.7921 40.085ZM90.116 40.085H89.3855C89.1172 40.085 88.8995 39.8673 88.8995 39.599C88.8995 39.3308 89.1172 39.113 89.3855 39.113H90.116C90.3843 39.113 90.602 39.3308 90.602 39.599C90.602 39.8673 90.3843 40.085 90.116 40.085Z" fill="black"/>
<path d="M97.6709 42.4042H92.8552C92.587 42.4042 92.3692 42.1865 92.3692 41.9182V37.1025C92.3692 36.8343 92.587 36.6165 92.8552 36.6165H97.6709C97.9391 36.6165 98.1569 36.8343 98.1569 37.1025V41.9182C98.1569 42.1865 97.9391 42.4042 97.6709 42.4042ZM93.3428 41.4307H97.1849V37.5885H93.3428V41.4307Z" fill="black"/>
<path d="M97.6709 58.895H92.8552C92.587 58.895 92.3692 58.6772 92.3692 58.409V53.5933C92.3692 53.325 92.587 53.1073 92.8552 53.1073H97.6709C97.9391 53.1073 98.1569 53.325 98.1569 53.5933V58.409C98.1569 58.6772 97.9391 58.895 97.6709 58.895ZM93.3428 57.9214H97.1849V54.0793H93.3428V57.9214Z" fill="black"/>
<path d="M97.6709 75.3852H92.8552C92.587 75.3852 92.3692 75.1674 92.3692 74.8992V70.0835C92.3692 69.8152 92.587 69.5975 92.8552 69.5975H97.6709C97.9391 69.5975 98.1569 69.8152 98.1569 70.0835V74.8992C98.1569 75.1674 97.9391 75.3852 97.6709 75.3852ZM93.3428 74.4116H97.1849V70.5695H93.3428V74.4116Z" fill="black"/>
<path d="M22.3647 56.487H21.6342C21.3659 56.487 21.1482 56.2692 21.1482 56.001C21.1482 55.7327 21.3659 55.515 21.6342 55.515H22.3647C22.633 55.515 22.8507 55.7327 22.8507 56.001C22.8507 56.2692 22.633 56.487 22.3647 56.487ZM19.6871 56.487H18.9565C18.6883 56.487 18.4705 56.2692 18.4705 56.001C18.4705 55.7327 18.6883 55.515 18.9565 55.515H19.6871C19.9553 55.515 20.1731 55.7327 20.1731 56.001C20.1731 56.2692 19.9553 56.487 19.6871 56.487ZM17.0094 56.487H16.2788C16.0106 56.487 15.7928 56.2692 15.7928 56.001C15.7928 55.7327 16.0106 55.515 16.2788 55.515H17.0094C17.2776 55.515 17.4954 55.7327 17.4954 56.001C17.4954 56.2692 17.2776 56.487 17.0094 56.487ZM14.3333 56.487H13.6027C13.3345 56.487 13.1168 56.2692 13.1168 56.001C13.1168 55.7327 13.3345 55.515 13.6027 55.515H14.3333C14.6015 55.515 14.8193 55.7327 14.8193 56.001C14.8193 56.2692 14.6015 56.487 14.3333 56.487ZM11.6556 56.487H10.9251C10.6568 56.487 10.4391 56.2692 10.4391 56.001C10.4391 55.7327 10.6568 55.515 10.9251 55.515H11.6556C11.9239 55.515 12.1416 55.7327 12.1416 56.001C12.1416 56.2692 11.9239 56.487 11.6556 56.487ZM8.97797 56.487H8.24741C7.97917 56.487 7.76142 56.2692 7.76142 56.001C7.76142 55.7327 7.97917 55.515 8.24741 55.515H8.97797C9.24621 55.515 9.46396 55.7327 9.46396 56.001C9.46396 56.2692 9.24621 56.487 8.97797 56.487Z" fill="black"/>
<path d="M9.0758 72.6398H8.34524C8.077 72.6398 7.85925 72.422 7.85925 72.1538C7.85925 71.8856 8.077 71.6678 8.34524 71.6678H9.0758C9.34404 71.6678 9.56179 71.8856 9.56179 72.1538C9.56179 72.422 9.34404 72.6398 9.0758 72.6398ZM10.1851 71.8003C9.91681 71.8003 9.69907 71.5826 9.69907 71.3144V70.5838C9.69907 70.3156 9.91681 70.0978 10.1851 70.0978C10.4533 70.0978 10.671 70.3156 10.671 70.5838V71.3144C10.671 71.5826 10.4533 71.8003 10.1851 71.8003ZM10.1851 69.1227C9.91681 69.1227 9.69907 68.9049 9.69907 68.6367V67.9061C9.69907 67.6379 9.91681 67.4201 10.1851 67.4201C10.4533 67.4201 10.671 67.6379 10.671 67.9061V68.6367C10.671 68.9049 10.4533 69.1227 10.1851 69.1227ZM10.1851 66.4466C9.91681 66.4466 9.69907 66.2288 9.69907 65.9606V65.23C9.69907 64.9618 9.91681 64.7441 10.1851 64.7441C10.4533 64.7441 10.671 64.9618 10.671 65.23V65.9606C10.671 66.2288 10.4533 66.4466 10.1851 66.4466ZM10.1851 63.7689C9.91681 63.7689 9.69907 63.5512 9.69907 63.2829V62.5524C9.69907 62.2841 9.91681 62.0664 10.1851 62.0664C10.4533 62.0664 10.671 62.2841 10.671 62.5524V63.2829C10.671 63.5512 10.4533 63.7689 10.1851 63.7689ZM10.1851 61.0913C9.91681 61.0913 9.69907 60.8735 9.69907 60.6053V59.8747C9.69907 59.6065 9.91681 59.3887 10.1851 59.3887C10.4533 59.3887 10.671 59.6065 10.671 59.8747V60.6053C10.671 60.8735 10.4533 61.0913 10.1851 61.0913ZM10.1851 58.4136C9.91681 58.4136 9.69907 58.1958 9.69907 57.9276V57.197C9.69907 56.9288 9.91681 56.711 10.1851 56.711C10.4533 56.711 10.671 56.9288 10.671 57.197V57.9276C10.671 58.1958 10.4533 58.4136 10.1851 58.4136ZM10.1851 55.7359C9.91681 55.7359 9.69907 55.5182 9.69907 55.2499V54.5194C9.69907 54.2511 9.91681 54.0334 10.1851 54.0334C10.4533 54.0334 10.671 54.2511 10.671 54.5194V55.2499C10.671 55.5182 10.4533 55.7359 10.1851 55.7359ZM10.1851 53.0598C9.91681 53.0598 9.69907 52.8421 9.69907 52.5738V51.8433C9.69907 51.575 9.91681 51.3573 10.1851 51.3573C10.4533 51.3573 10.671 51.575 10.671 51.8433V52.5738C10.671 52.8421 10.4533 53.0598 10.1851 53.0598ZM10.1851 50.3822C9.91681 50.3822 9.69907 50.1644 9.69907 49.8962V49.1656C9.69907 48.8974 9.91681 48.6796 10.1851 48.6796C10.4533 48.6796 10.671 48.8974 10.671 49.1656V49.8962C10.671 50.1644 10.4533 50.3822 10.1851 50.3822ZM10.1851 47.7045C9.91681 47.7045 9.69907 47.4867 9.69907 47.2185V46.4879C9.69907 46.2197 9.91681 46.002 10.1851 46.002C10.4533 46.002 10.671 46.2197 10.671 46.4879V47.2185C10.671 47.4867 10.4533 47.7045 10.1851 47.7045ZM10.1851 45.0268C9.91681 45.0268 9.69907 44.8091 9.69907 44.5408V43.8103C9.69907 43.542 9.91681 43.3243 10.1851 43.3243C10.4533 43.3243 10.671 43.542 10.671 43.8103V44.5408C10.671 44.8091 10.4533 45.0268 10.1851 45.0268ZM10.1851 42.3507C9.91681 42.3507 9.69907 42.133 9.69907 41.8647V41.1342C9.69907 40.8659 9.91681 40.6482 10.1851 40.6482C10.4533 40.6482 10.671 40.8659 10.671 41.1342V41.8647C10.671 42.133 10.4533 42.3507 10.1851 42.3507ZM9.77323 40.0849H9.04267C8.77443 40.0849 8.55668 39.8671 8.55668 39.5989C8.55668 39.3307 8.77443 39.1129 9.04267 39.1129H9.77323C10.0415 39.1129 10.2592 39.3307 10.2592 39.5989C10.2592 39.8671 10.0415 40.0849 9.77323 40.0849ZM7.09556 40.0849H6.365C6.09676 40.0849 5.87901 39.8671 5.87901 39.5989C5.87901 39.3307 6.09676 39.1129 6.365 39.1129H7.09556C7.3638 39.1129 7.58155 39.3307 7.58155 39.5989C7.58155 39.8671 7.3638 40.0849 7.09556 40.0849Z" fill="black"/>
<path d="M6.30339 42.404H1.48611C1.21787 42.404 1.00012 42.1863 1.00012 41.918V37.1023C1.00012 36.8341 1.21787 36.6163 1.48611 36.6163H6.30181C6.57005 36.6163 6.7878 36.8341 6.7878 37.1023V41.918C6.7878 42.1863 6.57005 42.404 6.30181 42.404H6.30339ZM1.97368 41.4304H5.81582V37.5883H1.97368V41.4304Z" fill="black"/>
<path d="M6.30347 58.8948H1.48619C1.21795 58.8948 1.00021 58.6771 1.00021 58.4089V53.5932C1.00021 53.3249 1.21795 53.1072 1.48619 53.1072H6.30189C6.57014 53.1072 6.78788 53.3249 6.78788 53.5932V58.4089C6.78788 58.6771 6.57014 58.8948 6.30189 58.8948H6.30347ZM1.97376 57.9213H5.81591V54.0791H1.97376V57.9213Z" fill="black"/>
<path d="M6.30347 75.3851H1.48619C1.21795 75.3851 1.00021 75.1673 1.00021 74.8991V70.0834C1.00021 69.8151 1.21795 69.5974 1.48619 69.5974H6.30189C6.57014 69.5974 6.78788 69.8151 6.78788 70.0834V74.8991C6.78788 75.1673 6.57014 75.3851 6.30189 75.3851H6.30347ZM1.97376 74.4115H5.81591V70.5694H1.97376V74.4115Z" fill="black"/>
<path d="M29.2773 39.4834H21.1322C20.864 39.4834 20.6462 39.2656 20.6462 38.9974V34.9248C20.6462 34.6566 20.864 34.4389 21.1322 34.4389H29.2773C29.5455 34.4389 29.7633 34.6566 29.7633 34.9248V38.9974C29.7633 39.2656 29.5455 39.4834 29.2773 39.4834ZM21.6182 38.5098H28.7897V35.4108H21.6182V38.5098Z" fill="black"/>
<path d="M45.5691 39.4834H37.424C37.1558 39.4834 36.938 39.2656 36.938 38.9974V34.9248C36.938 34.6566 37.1558 34.4389 37.424 34.4389H45.5691C45.8373 34.4389 46.0551 34.6566 46.0551 34.9248V38.9974C46.0551 39.2656 45.8373 39.4834 45.5691 39.4834ZM37.91 38.5098H45.0815V35.4108H37.91V38.5098Z" fill="black"/>
<path d="M61.8609 39.4834H53.7158C53.4476 39.4834 53.2298 39.2656 53.2298 38.9974V34.9248C53.2298 34.6566 53.4476 34.4389 53.7158 34.4389H61.8609C62.1291 34.4389 62.3469 34.6566 62.3469 34.9248V38.9974C62.3469 39.2656 62.1291 39.4834 61.8609 39.4834ZM54.2018 38.5098H61.3733V35.4108H54.2018V38.5098Z" fill="black"/>
<path d="M78.1506 39.4834H70.0056C69.7373 39.4834 69.5196 39.2656 69.5196 38.9974V34.9248C69.5196 34.6566 69.7373 34.4389 70.0056 34.4389H78.1506C78.4189 34.4389 78.6366 34.6566 78.6366 34.9248V38.9974C78.6366 39.2656 78.4189 39.4834 78.1506 39.4834ZM70.4916 38.5098H77.663V35.4108H70.4916V38.5098Z" fill="black"/>
<path d="M83.582 35.411H15.7015C15.4901 35.411 15.3023 35.2753 15.2376 35.0734C15.1729 34.873 15.2455 34.6521 15.4159 34.529L49.3577 10.0923C49.5282 9.96923 49.757 9.96923 49.9274 10.0923L83.8676 34.529C84.0396 34.6521 84.1106 34.873 84.0459 35.0734C83.9812 35.2738 83.7935 35.411 83.582 35.411ZM17.2115 34.4375H82.072L49.6418 11.088L17.2115 34.4375Z" fill="black"/>
</svg>
