<svg width="100" height="100" viewBox="0 0 100 100" fill="none" xmlns="http://www.w3.org/2000/svg">
<path d="M19.1265 23.1027C18.9954 23.1027 18.8644 23.0531 18.7648 22.9538C18.5657 22.7537 18.5657 22.4311 18.7648 22.2326C26.1291 14.886 35.9121 10.5602 46.309 10.0507C56.6328 9.54612 66.7195 12.8232 74.7141 19.283C74.9331 19.4601 74.968 19.781 74.7888 20.001C74.6113 20.2194 74.2878 20.2541 74.0688 20.0754C66.2716 13.7727 56.4305 10.5751 46.3587 11.0697C36.2174 11.5676 26.6732 15.7876 19.4881 22.9522C19.3886 23.0514 19.2575 23.1011 19.1265 23.1011V23.1027Z" fill="black"/>
<path d="M70.3759 24.8926C70.1851 24.8926 70.0093 24.7867 69.9214 24.6147C69.8268 24.4311 69.8533 24.2077 69.9877 24.0506L77.9973 14.6677C78.1317 14.5105 78.3474 14.4493 78.5448 14.5122C78.7422 14.575 78.8815 14.7504 78.8981 14.9555L79.6115 23.6304C79.6231 23.7661 79.58 23.8984 79.4921 24.0026C79.4041 24.1052 79.278 24.1697 79.1437 24.1813L70.4224 24.8893C70.4091 24.8893 70.3942 24.8893 70.3809 24.8893L70.3759 24.8926ZM77.9757 16.2657L71.5671 23.7727L78.5448 23.2069L77.9741 16.2657H77.9757Z" fill="black"/>
<path d="M49.8358 90.9984C40.2452 90.9984 30.9665 87.7411 23.511 81.7163C23.292 81.5393 23.2572 81.2184 23.4364 80.9984C23.6139 80.78 23.9374 80.7453 24.1564 80.9239C31.9536 87.225 41.7964 90.4243 51.8664 89.9297C62.0095 89.4318 71.552 85.2118 78.737 78.0472C78.9378 77.847 79.2613 77.847 79.4604 78.0472C79.6594 78.2474 79.6594 78.5699 79.4604 78.7685C72.0945 86.1133 62.3131 90.4392 51.9162 90.9487C51.2211 90.9835 50.5276 91 49.8358 91V90.9984Z" fill="black"/>
<path d="M19.8381 86.5102C19.785 86.5102 19.7336 86.5019 19.6805 86.4854C19.483 86.4225 19.3437 86.2471 19.3271 86.042L18.6137 77.3671C18.6021 77.2315 18.6453 77.0991 18.7332 76.9949C18.8211 76.8924 18.9472 76.8278 19.0816 76.8163L27.8029 76.1082C28.0086 76.0917 28.206 76.2009 28.3006 76.3845C28.3951 76.5681 28.3686 76.7914 28.2342 76.9486L20.2246 86.3315C20.1251 86.4473 19.9824 86.5102 19.8348 86.5102H19.8381ZM19.6771 77.7906L20.2478 84.7319L26.6565 77.2249L19.6788 77.7906H19.6771Z" fill="black"/>
<path d="M87.7488 74.2094C87.6178 74.2094 87.4867 74.1598 87.3872 74.0605L79.5169 66.2127C78.8185 66.1647 75.683 66.173 71.3083 66.2359C71.0263 66.2425 70.794 66.0142 70.789 65.733C70.7857 65.4518 71.0113 65.2202 71.2934 65.2152C72.3568 65.2003 74.4122 65.1739 76.2471 65.1656C79.8952 65.1474 79.93 65.1821 80.1225 65.374L88.1105 73.3392C88.3096 73.5394 88.3096 73.862 88.1105 74.0605C88.0109 74.1598 87.8799 74.2094 87.7488 74.2094Z" fill="black"/>
<path d="M79.7624 39.0682H71.2419C70.9599 39.0682 70.7309 38.8399 70.7309 38.5587C70.7309 38.2774 70.9599 38.0492 71.2419 38.0492H79.5501L87.3888 30.2295C87.5895 30.0293 87.913 30.0293 88.1121 30.2295C88.3129 30.428 88.3129 30.7522 88.1121 30.9508L80.1241 38.9209C80.0279 39.0169 79.8985 39.0698 79.7624 39.0698V39.0682Z" fill="black"/>
<path d="M90.3268 52.6546H89.5587C89.2766 52.6546 89.0477 52.4263 89.0477 52.1451C89.0477 51.8638 89.2766 51.6355 89.5587 51.6355H90.3268C90.6088 51.6355 90.8377 51.8638 90.8377 52.1451C90.8377 52.4263 90.6088 52.6546 90.3268 52.6546ZM87.5115 52.6546H86.7434C86.4613 52.6546 86.2324 52.4263 86.2324 52.1451C86.2324 51.8638 86.4613 51.6355 86.7434 51.6355H87.5115C87.7935 51.6355 88.0224 51.8638 88.0224 52.1451C88.0224 52.4263 87.7935 52.6546 87.5115 52.6546ZM84.6962 52.6546H83.9281C83.646 52.6546 83.4171 52.4263 83.4171 52.1451C83.4171 51.8638 83.646 51.6355 83.9281 51.6355H84.6962C84.9782 51.6355 85.2071 51.8638 85.2071 52.1451C85.2071 52.4263 84.9782 52.6546 84.6962 52.6546ZM81.8809 52.6546H81.1128C80.8307 52.6546 80.6018 52.4263 80.6018 52.1451C80.6018 51.8638 80.8307 51.6355 81.1128 51.6355H81.8809C82.1629 51.6355 82.3919 51.8638 82.3919 52.1451C82.3919 52.4263 82.1629 52.6546 81.8809 52.6546ZM79.0656 52.6546H78.2975C78.0154 52.6546 77.7865 52.4263 77.7865 52.1451C77.7865 51.8638 78.0154 51.6355 78.2975 51.6355H79.0656C79.3476 51.6355 79.5766 51.8638 79.5766 52.1451C79.5766 52.4263 79.3476 52.6546 79.0656 52.6546ZM76.2519 52.6546H75.4838C75.2018 52.6546 74.9729 52.4263 74.9729 52.1451C74.9729 51.8638 75.2018 51.6355 75.4838 51.6355H76.2519C76.534 51.6355 76.7629 51.8638 76.7629 52.1451C76.7629 52.4263 76.534 52.6546 76.2519 52.6546Z" fill="black"/>
<path d="M94.8575 56.2739C92.5731 56.2739 90.715 54.4211 90.715 52.1432C90.715 49.8653 92.5731 48.0125 94.8575 48.0125C97.1419 48.0125 99 49.8653 99 52.1432C99 54.4211 97.1419 56.2739 94.8575 56.2739ZM94.8575 49.0349C93.1371 49.0349 91.7386 50.4294 91.7386 52.1449C91.7386 53.8603 93.1371 55.2549 94.8575 55.2549C96.5779 55.2549 97.9764 53.8603 97.9764 52.1449C97.9764 50.4294 96.5779 49.0349 94.8575 49.0349Z" fill="black"/>
<path d="M90.3169 80.3896C88.0325 80.3896 86.1745 78.5368 86.1745 76.2589C86.1745 73.981 88.0325 72.1283 90.3169 72.1283C92.6014 72.1283 94.4594 73.981 94.4594 76.2589C94.4594 78.5368 92.6014 80.3896 90.3169 80.3896ZM90.3169 73.1489C88.5966 73.1489 87.1981 74.5435 87.1981 76.2589C87.1981 77.9744 88.5966 79.3689 90.3169 79.3689C92.0373 79.3689 93.4358 77.9744 93.4358 76.2589C93.4358 74.5435 92.0373 73.1489 90.3169 73.1489Z" fill="black"/>
<path d="M90.3169 32.16C88.0325 32.16 86.1745 30.3072 86.1745 28.0293C86.1745 25.7514 88.0325 23.8986 90.3169 23.8986C92.6014 23.8986 94.4594 25.7514 94.4594 28.0293C94.4594 30.3072 92.6014 32.16 90.3169 32.16ZM90.3169 24.9193C88.5966 24.9193 87.1981 26.3138 87.1981 28.0293C87.1981 29.7447 88.5966 31.1393 90.3169 31.1393C92.0373 31.1393 93.4358 29.7447 93.4358 28.0293C93.4358 26.3138 92.0373 24.9193 90.3169 24.9193Z" fill="black"/>
<path d="M11.2496 74.2094C11.1186 74.2094 10.9875 74.1597 10.888 74.0605C10.6889 73.8603 10.6889 73.5377 10.888 73.3392L18.876 65.374C19.0684 65.1821 19.1033 65.1474 22.7514 65.1656C24.5846 65.1738 26.6417 65.2003 27.7051 65.2152C27.9871 65.2185 28.2128 65.4501 28.2095 65.733C28.2061 66.0142 27.9706 66.2441 27.6902 66.2359C23.3154 66.173 20.1816 66.1664 19.4815 66.2127L11.6113 74.0605C11.5118 74.1597 11.3807 74.2094 11.2496 74.2094Z" fill="black"/>
<path d="M27.7583 39.0681H19.2377C19.1017 39.0681 18.9723 39.0135 18.876 38.9192L10.888 30.949C10.689 30.7489 10.689 30.4263 10.888 30.2278C11.0888 30.0276 11.4123 30.0293 11.6113 30.2278L19.4501 38.0474H27.7583C28.0403 38.0474 28.2692 38.2757 28.2692 38.5569C28.2692 38.8382 28.0403 39.0665 27.7583 39.0665V39.0681Z" fill="black"/>
<path d="M23.5161 52.6545H22.748C22.4659 52.6545 22.237 52.4262 22.237 52.145C22.237 51.8638 22.4659 51.6355 22.748 51.6355H23.5161C23.7981 51.6355 24.027 51.8638 24.027 52.145C24.027 52.4262 23.7981 52.6545 23.5161 52.6545ZM20.7008 52.6545H19.9327C19.6506 52.6545 19.4217 52.4262 19.4217 52.145C19.4217 51.8638 19.6506 51.6355 19.9327 51.6355H20.7008C20.9828 51.6355 21.2117 51.8638 21.2117 52.145C21.2117 52.4262 20.9828 52.6545 20.7008 52.6545ZM17.8855 52.6545H17.1174C16.8353 52.6545 16.6064 52.4262 16.6064 52.145C16.6064 51.8638 16.8353 51.6355 17.1174 51.6355H17.8855C18.1675 51.6355 18.3964 51.8638 18.3964 52.145C18.3964 52.4262 18.1675 52.6545 17.8855 52.6545ZM15.0702 52.6545H14.3021C14.02 52.6545 13.7911 52.4262 13.7911 52.145C13.7911 51.8638 14.02 51.6355 14.3021 51.6355H15.0702C15.3522 51.6355 15.5811 51.8638 15.5811 52.145C15.5811 52.4262 15.3522 52.6545 15.0702 52.6545ZM12.2565 52.6545H11.4884C11.2064 52.6545 10.9775 52.4262 10.9775 52.145C10.9775 51.8638 11.2064 51.6355 11.4884 51.6355H12.2565C12.5386 51.6355 12.7675 51.8638 12.7675 52.145C12.7675 52.4262 12.5386 52.6545 12.2565 52.6545ZM9.44123 52.6545H8.67312C8.3911 52.6545 8.16216 52.4262 8.16216 52.145C8.16216 51.8638 8.3911 51.6355 8.67312 51.6355H9.44123C9.72326 51.6355 9.9522 51.8638 9.9522 52.145C9.9522 52.4262 9.72326 52.6545 9.44123 52.6545Z" fill="black"/>
<path d="M4.14249 56.2738C1.85806 56.2738 0 54.4211 0 52.1431C0 49.8652 1.85806 48.0125 4.14249 48.0125C6.42691 48.0125 8.28498 49.8652 8.28498 52.1431C8.28498 54.4211 6.42691 56.2738 4.14249 56.2738ZM4.14249 49.0348C2.42212 49.0348 1.02359 50.4293 1.02359 52.1448C1.02359 53.8603 2.42212 55.2548 4.14249 55.2548C5.86286 55.2548 7.26138 53.8603 7.26138 52.1448C7.26138 50.4293 5.86286 49.0348 4.14249 49.0348Z" fill="black"/>
<path d="M8.68305 80.3895C6.39863 80.3895 4.54057 78.5368 4.54057 76.2589C4.54057 73.981 6.39863 72.1282 8.68305 72.1282C10.9675 72.1282 12.8255 73.981 12.8255 76.2589C12.8255 78.5368 10.9675 80.3895 8.68305 80.3895ZM8.68305 73.1489C6.96269 73.1489 5.56416 74.5434 5.56416 76.2589C5.56416 77.9743 6.96269 79.3689 8.68305 79.3689C10.4034 79.3689 11.8019 77.9743 11.8019 76.2589C11.8019 74.5434 10.4034 73.1489 8.68305 73.1489Z" fill="black"/>
<path d="M8.68305 32.1599C6.39863 32.1599 4.54057 30.3071 4.54057 28.0292C4.54057 25.7513 6.39863 23.8986 8.68305 23.8986C10.9675 23.8986 12.8255 25.7513 12.8255 28.0292C12.8255 30.3071 10.9675 32.1599 8.68305 32.1599ZM8.68305 24.9192C6.96269 24.9192 5.56416 26.3138 5.56416 28.0292C5.56416 29.7447 6.96269 31.1392 8.68305 31.1392C10.4034 31.1392 11.8019 29.7447 11.8019 28.0292C11.8019 26.3138 10.4034 24.9192 8.68305 24.9192Z" fill="black"/>
<path d="M54.1343 77.3176H45.1211C43.8884 77.3176 42.8864 76.3184 42.8864 75.0893V73.0943C42.8864 72.598 42.5778 72.1481 42.1199 71.9744C41.6903 71.8123 41.2606 71.6336 40.8442 71.445C40.3963 71.2415 39.8571 71.3408 39.5037 71.6931L38.0869 73.1059C37.216 73.9744 35.7975 73.9744 34.9266 73.1059L28.5528 66.7502C27.6818 65.8818 27.6818 64.4674 28.5528 63.5989L29.9695 62.1862C30.3229 61.8338 30.4224 61.2962 30.2184 60.8495C30.0276 60.431 29.8484 60.0026 29.6875 59.5774C29.5133 59.1192 29.0621 58.8131 28.5644 58.8131H26.5636C25.331 58.8131 24.329 57.814 24.329 56.5849V47.5973C24.329 46.3682 25.331 45.369 26.5636 45.369H28.5644C29.0621 45.369 29.5133 45.0613 29.6875 44.6048C29.8484 44.1796 30.0276 43.7512 30.2184 43.3326C30.4224 42.8843 30.3229 42.3484 29.9695 41.996L28.5528 40.5833C27.6818 39.7148 27.6818 38.3004 28.5528 37.4319L34.9266 31.0763C35.7975 30.2078 37.216 30.2078 38.0869 31.0763L39.5037 32.489C39.8571 32.8414 40.3963 32.9406 40.8442 32.7372C41.2639 32.5469 41.6936 32.3683 42.1199 32.2078C42.5795 32.0341 42.8864 31.5842 42.8864 31.0879V29.0928C42.8864 27.8637 43.8884 26.8646 45.1211 26.8646H54.1343C55.3669 26.8646 56.369 27.8637 56.369 29.0928V31.0879C56.369 31.5842 56.6775 32.0341 57.1354 32.2078C57.5618 32.3683 57.9915 32.5469 58.4112 32.7372C58.8608 32.9406 59.3983 32.8414 59.7516 32.489L61.1684 31.0763C61.5898 30.6561 62.1522 30.4229 62.7494 30.4229C63.3467 30.4229 63.9074 30.6545 64.3304 31.0763L70.7043 37.4319C71.5752 38.3004 71.5752 39.7148 70.7043 40.5833L69.2875 41.996C68.9341 42.3484 68.8346 42.886 69.0387 43.3326C69.2294 43.7528 69.4086 44.1813 69.5695 44.6064C69.7437 45.063 70.195 45.3707 70.6927 45.3707H72.6934C73.926 45.3707 74.9281 46.3699 74.9281 47.599V56.5865C74.9281 57.8156 73.926 58.8148 72.6934 58.8148H70.6927C70.195 58.8148 69.7437 59.1225 69.5695 59.5791C69.4086 60.0059 69.2294 60.4343 69.0387 60.8512C68.8346 61.2978 68.9341 61.8355 69.2875 62.1878L70.7043 63.6005C71.1257 64.0207 71.3596 64.5815 71.3596 65.1771C71.3596 65.7726 71.1273 66.3317 70.7043 66.7535L64.3304 73.1092C63.4595 73.9777 62.041 73.9777 61.1701 73.1092L59.7533 71.6965C59.3999 71.3441 58.8608 71.2449 58.4128 71.4483C57.9915 71.6402 57.5618 71.8172 57.1371 71.9777C56.6775 72.1514 56.3706 72.6013 56.3706 73.0976V75.0926C56.3706 76.3217 55.3686 77.3209 54.136 77.3209L54.1343 77.3176ZM40.3598 70.3201C40.6683 70.3201 40.9769 70.3846 41.2672 70.5153C41.6654 70.6956 42.0735 70.866 42.4816 71.0199C43.336 71.3424 43.91 72.1762 43.91 73.0943V75.0893C43.91 75.756 44.4541 76.2969 45.1211 76.2969H54.1343C54.8029 76.2969 55.3454 75.7543 55.3454 75.0893V73.0943C55.3454 72.1762 55.9194 71.3424 56.7738 71.0199C57.1786 70.8677 57.5883 70.6973 57.9881 70.5153C58.8226 70.1365 59.823 70.3201 60.4766 70.9719L61.8934 72.3846C62.3662 72.8561 63.1343 72.8561 63.6071 72.3846L69.9809 66.029C70.2099 65.8007 70.336 65.498 70.336 65.1754C70.336 64.8528 70.2099 64.5501 69.9809 64.3218L68.5642 62.9091C67.9105 62.2573 67.7264 61.2598 68.1063 60.4277C68.2888 60.029 68.458 59.6221 68.6123 59.2168C68.9358 58.3648 69.7719 57.7925 70.6927 57.7925H72.6934C73.362 57.7925 73.9045 57.2499 73.9045 56.5849V47.5973C73.9045 46.9306 73.3603 46.3897 72.6934 46.3897H70.6927C69.7719 46.3897 68.9358 45.8173 68.6123 44.9654C68.4597 44.5618 68.2888 44.1532 68.1063 43.7545C67.7264 42.9224 67.9105 41.9249 68.5642 41.2731L69.9809 39.8604C70.4538 39.3889 70.4538 38.623 69.9809 38.1515L63.6071 31.7959C63.1343 31.3244 62.3662 31.3244 61.8934 31.7959L60.4766 33.2086C59.823 33.8604 58.8226 34.0424 57.9881 33.6652C57.5883 33.4832 57.1802 33.3145 56.7738 33.1607C55.9194 32.8381 55.3454 32.0043 55.3454 31.0862V29.0912C55.3454 28.4245 54.8012 27.8836 54.1343 27.8836H45.1211C44.4525 27.8836 43.91 28.4262 43.91 29.0912V31.0862C43.91 32.0043 43.336 32.8381 42.4816 33.1607C42.0751 33.3145 41.667 33.4832 41.2672 33.6652C40.4328 34.044 39.4324 33.8604 38.7787 33.2086L37.362 31.7959C36.8892 31.3244 36.1211 31.3244 35.6482 31.7959L29.2744 38.1515C28.8016 38.623 28.8016 39.3889 29.2744 39.8604L30.6912 41.2731C31.3448 41.9249 31.529 42.9224 31.1491 43.7545C30.9666 44.1532 30.7974 44.5618 30.6431 44.9654C30.3196 45.8173 29.4834 46.3897 28.5627 46.3897H26.562C25.8934 46.3897 25.3509 46.9323 25.3509 47.5973V56.5849C25.3509 57.2515 25.8951 57.7925 26.562 57.7925H28.5627C29.4834 57.7925 30.3196 58.3648 30.6431 59.2168C30.7974 59.6221 30.9666 60.0307 31.1491 60.4277C31.529 61.2598 31.3448 62.2573 30.6912 62.9091L29.2744 64.3218C28.8016 64.7933 28.8016 65.5592 29.2744 66.0306L35.6482 72.3863C36.1211 72.8577 36.8892 72.8577 37.362 72.3863L38.7787 70.9736C39.2051 70.5484 39.7808 70.3218 40.3598 70.3218V70.3201Z" fill="black"/>
<path d="M49.4443 64.6411C42.5446 64.6411 36.9306 59.0431 36.9306 52.1631C36.9306 45.2831 42.5446 39.6851 49.4443 39.6851C56.3441 39.6851 61.9581 45.2831 61.9581 52.1631C61.9581 59.0431 56.3441 64.6411 49.4443 64.6411ZM49.4443 40.7074C43.1087 40.7074 37.9542 45.8472 37.9542 52.1648C37.9542 58.4823 43.1087 63.6221 49.4443 63.6221C55.78 63.6221 60.9345 58.4823 60.9345 52.1648C60.9345 45.8472 55.78 40.7074 49.4443 40.7074Z" fill="black"/>
</svg>
