<svg width="100" height="100" viewBox="0 0 100 100" fill="none" xmlns="http://www.w3.org/2000/svg">
<path d="M81.9116 34.5772C83.1708 34.0448 83.7687 32.5713 83.2471 31.2861C82.7256 30.0008 81.2821 29.3904 80.0229 29.9228C78.7638 30.4552 78.1659 31.9287 78.6874 33.214C79.209 34.4993 80.6525 35.1096 81.9116 34.5772Z" fill="black"/>
<path d="M93.5225 33.8796L73.8764 13.4491C73.7414 13.308 73.5554 13.229 73.3612 13.229H28.992C28.801 13.229 28.6166 13.3063 28.4816 13.4441L16.1958 25.9632C16.1695 25.9901 16.1497 26.0187 16.1283 26.0489C15.7826 25.859 15.3859 25.7515 14.9661 25.7515C13.603 25.7515 12.4984 26.879 12.4984 28.2704C12.4984 29.6618 13.603 30.7894 14.9661 30.7894C16.3292 30.7894 17.4338 29.6618 17.4338 28.2704C17.4338 27.8369 17.3268 27.4285 17.1375 27.0723C17.1638 27.0521 17.1918 27.0319 17.2165 27.0067L29.2899 14.7027H73.0582L92.2846 34.6963V47.2221L88.997 50.4099C88.9608 50.4452 88.9279 50.4838 88.9016 50.5242C88.5723 50.3595 88.2036 50.2637 87.8134 50.2637C86.4503 50.2637 85.3457 51.3913 85.3457 52.7826C85.3457 54.174 86.4503 55.3016 87.8134 55.3016C89.1765 55.3016 90.2811 54.174 90.2811 52.7826C90.2811 52.3205 90.1576 51.8887 89.9436 51.5156C89.9601 51.5022 89.9765 51.4921 89.9914 51.477L93.5028 48.0708C93.646 47.9313 93.7267 47.738 93.7267 47.5364V34.3922C93.7267 34.1989 93.6526 34.0141 93.5192 33.8763L93.5225 33.8796Z" fill="black"/>
<path d="M69.8235 59.6355L69.0399 60.3984C68.7518 60.6791 68.7403 61.1462 69.0152 61.4403C69.1568 61.5915 69.3478 61.6688 69.5371 61.6688C69.7165 61.6688 69.896 61.6016 70.0359 61.4655L70.8195 60.7026C71.1076 60.422 71.1191 59.9548 70.8442 59.6607C70.5693 59.3667 70.1116 59.3549 69.8235 59.6355Z" fill="black"/>
<path d="M66.9506 62.4334L66.167 63.1963C65.8789 63.4769 65.8674 63.9441 66.1423 64.2382C66.2839 64.3894 66.4748 64.4667 66.6642 64.4667C66.8436 64.4667 67.023 64.3995 67.163 64.2634L67.9466 63.5005C68.2347 63.2198 68.2462 62.7527 67.9713 62.4586C67.6964 62.1645 67.2387 62.1528 66.9506 62.4334Z" fill="black"/>
<path d="M73.5964 57.6557H72.5132C72.1148 57.6557 71.7905 57.985 71.7905 58.3934C71.7905 58.8017 72.1131 59.1311 72.5132 59.1311H73.5964C73.9948 59.1311 74.3191 58.8017 74.3191 58.3934C74.3191 57.985 73.9964 57.6557 73.5964 57.6557Z" fill="black"/>
<path d="M60.4742 64.6948H59.391C59.1473 64.6948 58.9317 64.8191 58.8 65.009C58.6024 63.8193 57.5917 62.9118 56.3702 62.9118C55.0071 62.9118 53.9025 64.0394 53.9025 65.4308C53.9025 66.8222 55.0071 67.9497 56.3702 67.9497C57.5917 67.9497 58.6041 67.0423 58.8 65.8526C58.93 66.0425 59.1457 66.1668 59.391 66.1668H60.4742C60.8726 66.1668 61.1969 65.8374 61.1969 65.4291C61.1969 65.0208 60.8742 64.6914 60.4742 64.6914V64.6948Z" fill="black"/>
<path d="M64.4451 64.695H63.3618C62.9634 64.695 62.6391 65.0243 62.6391 65.4327C62.6391 65.841 62.9618 66.1704 63.3618 66.1704H64.4451C64.8434 66.1704 65.1678 65.841 65.1678 65.4327C65.1678 65.0243 64.8451 64.695 64.4451 64.695Z" fill="black"/>
<path d="M75.7333 41.0317C75.5473 41.0317 75.3695 41.1056 75.2345 41.235L74.9267 41.5358C74.6386 41.8164 74.6287 42.2836 74.9036 42.5776C75.0452 42.7289 75.2362 42.8062 75.4255 42.8062C75.6049 42.8062 75.7844 42.739 75.9243 42.6028L76.0231 42.5071H76.3902C76.7886 42.5071 77.1129 42.1777 77.1129 41.7694C77.1129 41.361 76.7902 41.0317 76.3902 41.0317H75.7333Z" fill="black"/>
<path d="M69.9681 46.3735L69.1845 47.1364C68.8964 47.417 68.8865 47.8842 69.1614 48.1782C69.303 48.3295 69.494 48.4068 69.6833 48.4068C69.8627 48.4068 70.0421 48.3396 70.1821 48.2035L70.9657 47.4405C71.2538 47.1599 71.2637 46.6928 70.9887 46.3987C70.7138 46.1046 70.2562 46.0945 69.9681 46.3752V46.3735Z" fill="black"/>
<path d="M72.839 43.5721L72.0554 44.335C71.7673 44.6157 71.7574 45.0828 72.0323 45.3769C72.1739 45.5281 72.3649 45.6054 72.5542 45.6054C72.7336 45.6054 72.9131 45.5382 73.053 45.4021L73.8366 44.6392C74.1247 44.3586 74.1346 43.8914 73.8596 43.5973C73.5847 43.3033 73.1271 43.2932 72.839 43.5738V43.5721Z" fill="black"/>
<path d="M80.3608 42.5052C80.7592 42.5052 81.0835 42.1758 81.0835 41.7675C81.0835 41.3591 80.7609 41.0298 80.3608 41.0298H79.2776C78.8792 41.0298 78.5549 41.3591 78.5549 41.7675C78.5549 42.1758 78.8776 42.5052 79.2776 42.5052H80.3608Z" fill="black"/>
<path d="M64.2261 51.9724L63.4425 52.7354C63.1544 53.016 63.1445 53.4831 63.4195 53.7772C63.561 53.9285 63.752 54.0058 63.9413 54.0058C64.1208 54.0058 64.3002 53.9385 64.4401 53.8024L65.2237 53.0395C65.5118 52.7589 65.5217 52.2917 65.2468 51.9977C64.9719 51.7036 64.5142 51.6935 64.2261 51.9741V51.9724Z" fill="black"/>
<path d="M68.118 49.1968C67.843 48.9028 67.3854 48.8927 67.0973 49.1733L66.3137 49.9362C66.0256 50.2168 66.0157 50.684 66.2906 50.9781C66.4322 51.1293 66.6232 51.2066 66.8125 51.2066C66.9919 51.2066 67.1714 51.1394 67.3113 51.0033L68.0949 50.2404C68.383 49.9597 68.3929 49.4926 68.118 49.1985V49.1968Z" fill="black"/>
<path d="M57.9786 50.1124C58.1186 50.2485 58.298 50.3157 58.4774 50.3157C58.6684 50.3157 58.8577 50.2401 58.9993 50.0872L59.7467 49.2873C60.0216 48.9932 60.0117 48.526 59.7236 48.2454C59.4355 47.9648 58.9779 47.9749 58.703 48.2689L57.9556 49.0688C57.6807 49.3629 57.6905 49.8301 57.9786 50.1107V50.1124Z" fill="black"/>
<path d="M55.733 53.2486C55.924 53.2486 56.1133 53.173 56.2549 53.0201L57.0023 52.2202C57.2772 51.9262 57.2673 51.459 56.9792 51.1784C56.6911 50.8977 56.2335 50.9078 55.9586 51.2019L55.2112 52.0018C54.9363 52.2958 54.9461 52.763 55.2342 53.0436C55.3742 53.1797 55.5536 53.247 55.733 53.247V53.2486Z" fill="black"/>
<path d="M61.4458 45.3417L60.6984 46.1416C60.4235 46.4356 60.4333 46.9028 60.7214 47.1834C60.8614 47.3195 61.0408 47.3868 61.2202 47.3868C61.4112 47.3868 61.6005 47.3111 61.7421 47.1582L62.4895 46.3583C62.7644 46.0643 62.7545 45.5971 62.4664 45.3165C62.1783 45.0358 61.7207 45.0459 61.4458 45.34V45.3417Z" fill="black"/>
<path d="M63.464 44.251C63.6039 44.3871 63.7833 44.4543 63.9628 44.4543C64.1537 44.4543 64.343 44.3787 64.4846 44.2258L65.232 43.4259C65.5069 43.1318 65.497 42.6647 65.209 42.3841C64.9209 42.1034 64.4632 42.1135 64.1883 42.4076L63.4409 43.2075C63.166 43.5015 63.1759 43.9687 63.464 44.2493V44.251Z" fill="black"/>
<path d="M67.3458 33.6796C67.7442 33.6796 68.0685 33.3503 68.0685 32.9419V31.8362C68.0685 31.4296 67.7459 31.0985 67.3458 31.0985C66.9458 31.0985 66.6231 31.4279 66.6231 31.8362V32.9419C66.6231 33.3486 66.9458 33.6796 67.3458 33.6796Z" fill="black"/>
<path d="M66.2064 41.321C66.3463 41.4571 66.5257 41.5243 66.7052 41.5243C66.8962 41.5243 67.0855 41.4487 67.227 41.2958L67.8674 40.6119C67.9958 40.4741 68.0666 40.2926 68.0666 40.1027V39.9431C68.0666 39.5364 67.744 39.2054 67.3439 39.2054C66.9966 39.2054 66.7052 39.4557 66.6377 39.7901L66.1817 40.2758C65.9068 40.5699 65.9166 41.037 66.2047 41.3176L66.2064 41.321Z" fill="black"/>
<path d="M66.6246 36.9966C66.6246 37.4032 66.9473 37.7343 67.3473 37.7343C67.7473 37.7343 68.07 37.4049 68.07 36.9966V35.8908C68.07 35.4842 67.7473 35.1531 67.3473 35.1531C66.9473 35.1531 66.6246 35.4825 66.6246 35.8908V36.9966Z" fill="black"/>
<path d="M33.0514 52.9356C32.6531 52.9356 32.3288 53.2649 32.3288 53.6733C32.3288 54.0816 32.6514 54.411 33.0514 54.411H34.1347C34.5331 54.411 34.8574 54.0816 34.8574 53.6733C34.8574 53.2649 34.5347 52.9356 34.1347 52.9356H33.0514Z" fill="black"/>
<path d="M29.0807 52.9356C28.6823 52.9356 28.358 53.2649 28.358 53.6733C28.358 54.0816 28.6807 54.411 29.0807 54.411H30.1639C30.5623 54.411 30.8866 54.0816 30.8866 53.6733C30.8866 53.2649 30.564 52.9356 30.1639 52.9356H29.0807Z" fill="black"/>
<path d="M23.4211 51.398C23.6087 51.398 23.7964 51.324 23.938 51.1745C24.2162 50.8821 24.2096 50.4166 23.9248 50.1326L23.1494 49.3613C22.863 49.0773 22.407 49.084 22.1288 49.3747C21.8506 49.6671 21.8571 50.1326 22.1419 50.4166L22.9173 51.1879C23.0572 51.3274 23.24 51.3963 23.4211 51.3963V51.398Z" fill="black"/>
<path d="M44.8648 49.1379C44.5767 48.8573 44.1191 48.8691 43.8442 49.1631L43.0968 49.963C42.8218 50.2571 42.8334 50.7242 43.1215 51.0049C43.2614 51.141 43.4408 51.2082 43.6186 51.2082C43.8096 51.2082 43.9989 51.1309 44.1421 50.9797L44.8895 50.1798C45.1644 49.8857 45.1529 49.4186 44.8648 49.1379Z" fill="black"/>
<path d="M36.301 53.6733C36.301 54.0799 36.6236 54.411 37.0237 54.411H38.1069C38.5053 54.411 38.8296 54.0816 38.8296 53.6733C38.8296 53.2649 38.5069 52.9356 38.1069 52.9356H37.0237C36.6253 52.9356 36.301 53.2649 36.301 53.6733Z" fill="black"/>
<path d="M24.9869 53.2448L25.7622 54.0161C25.9022 54.1556 26.0849 54.2245 26.266 54.2245C26.4471 54.2245 26.6413 54.1506 26.7829 54.001C27.0611 53.7086 27.0545 53.2431 26.7697 52.9592L25.9944 52.1878C25.7079 51.9039 25.2519 51.9106 24.9737 52.2013C24.6955 52.4937 24.7021 52.9592 24.9869 53.2431V53.2448Z" fill="black"/>
<path d="M45.8361 47.0287C45.5612 47.3228 45.5727 47.7899 45.8608 48.0706C46.0007 48.2067 46.1801 48.2739 46.3579 48.2739C46.5489 48.2739 46.7382 48.1966 46.8814 48.0454L47.6288 47.2455C47.6552 47.2169 47.6766 47.1867 47.6963 47.1564C48.0256 47.3211 48.3943 47.4169 48.7845 47.4169C50.1476 47.4169 51.2522 46.2893 51.2522 44.8979C51.2522 43.5066 50.1476 42.379 48.7845 42.379C47.4214 42.379 46.3168 43.5066 46.3168 44.8979C46.3168 45.3601 46.4419 45.7936 46.6543 46.1667C46.6296 46.1868 46.6049 46.2053 46.5818 46.2305L45.8344 47.0304L45.8361 47.0287Z" fill="black"/>
<path d="M41.1065 52.0985L40.3591 52.8984C40.0841 53.1925 40.0957 53.6596 40.3838 53.9402C40.5237 54.0764 40.7031 54.1436 40.8809 54.1436C41.0719 54.1436 41.2612 54.0663 41.4044 53.915L42.1518 53.1152C42.4267 52.8211 42.4152 52.3539 42.1271 52.0733C41.839 51.7927 41.3814 51.8044 41.1065 52.0985Z" fill="black"/>
<path d="M31.453 34.8588L32.2235 35.6352C32.3634 35.7763 32.5478 35.8469 32.7305 35.8469C32.9132 35.8469 33.1025 35.773 33.2441 35.6285C33.524 35.3394 33.5207 34.8723 33.2375 34.5866L32.4671 33.8103C32.1839 33.5246 31.7263 33.5279 31.4464 33.817C31.1666 34.106 31.1699 34.5732 31.453 34.8588Z" fill="black"/>
<path d="M34.1016 39.3175C34.4999 39.3175 34.8243 38.9881 34.8243 38.5798V37.474C34.8243 37.0674 34.5016 36.7363 34.1016 36.7363C33.7015 36.7363 33.3789 37.0657 33.3789 37.474V38.5798C33.3789 38.9864 33.7015 39.3175 34.1016 39.3175Z" fill="black"/>
<path d="M41.5034 28.615C41.2252 28.3226 40.7676 28.3159 40.4828 28.5999C40.1963 28.8839 40.1897 29.351 40.4679 29.6418L41.2236 30.4349C41.3651 30.5828 41.5528 30.6584 41.7405 30.6584C41.9281 30.6584 42.1043 30.5895 42.2442 30.45C42.5307 30.166 42.5356 29.6989 42.259 29.4082L41.5034 28.615Z" fill="black"/>
<path d="M46.9209 33.2376C46.5225 33.2376 46.1982 33.567 46.1982 33.9753C46.1982 34.3836 46.5208 34.713 46.9209 34.713H48.0041C48.4025 34.713 48.7268 34.3836 48.7268 33.9753C48.7268 33.567 48.4041 33.2376 48.0041 33.2376H46.9209Z" fill="black"/>
<path d="M50.8931 33.2378C50.4947 33.2378 50.1704 33.5672 50.1704 33.9755C50.1704 34.3839 50.4931 34.7132 50.8931 34.7132H51.9763C52.029 34.7132 52.08 34.7065 52.1311 34.6948C52.434 35.7349 53.3773 36.4945 54.495 36.4945C55.8581 36.4945 56.9627 35.3669 56.9627 33.9755C56.9627 32.5842 55.8581 31.4566 54.495 31.4566C53.3773 31.4566 52.434 32.2161 52.1311 33.2563C52.0817 33.2446 52.0306 33.2378 51.9763 33.2378H50.8931Z" fill="black"/>
<path d="M38.9715 27.7531C39.1526 27.7531 39.3354 27.6842 39.4753 27.5447C39.7617 27.2607 39.7667 26.7935 39.4901 26.5028L38.7345 25.7097C38.4563 25.4173 37.9986 25.4106 37.7138 25.6945C37.4274 25.9785 37.4208 26.4457 37.699 26.7364L38.4546 27.5296C38.5962 27.6774 38.7839 27.7531 38.9715 27.7531Z" fill="black"/>
<path d="M43.2499 31.5071C42.9635 31.7911 42.9569 32.2583 43.2351 32.549L43.9907 33.3421C44.1323 33.49 44.32 33.5656 44.5077 33.5656C44.6953 33.5656 44.8715 33.4967 45.0114 33.3573C45.2978 33.0733 45.3028 32.6061 45.0262 32.3154L44.2706 31.5222C43.9924 31.2299 43.5347 31.2231 43.2499 31.5071Z" fill="black"/>
<path d="M69.7229 20.3251H68.6397C68.2413 20.3251 67.917 20.6545 67.917 21.0628C67.917 21.4712 68.2397 21.8005 68.6397 21.8005H69.7229C70.1213 21.8005 70.4456 21.4712 70.4456 21.0628C70.4456 20.6545 70.123 20.3251 69.7229 20.3251Z" fill="black"/>
<path d="M65.7507 20.3251H64.6675C64.2691 20.3251 63.9448 20.6545 63.9448 21.0628C63.9448 21.4712 64.2675 21.8005 64.6675 21.8005H65.7507C66.1491 21.8005 66.4734 21.4712 66.4734 21.0628C66.4734 20.6545 66.1508 20.3251 65.7507 20.3251Z" fill="black"/>
<path d="M53.8384 21.8005C54.2368 21.8005 54.5611 21.4712 54.5611 21.0628C54.5611 20.6545 54.2384 20.3251 53.8384 20.3251H52.7552C52.3568 20.3251 52.0325 20.6545 52.0325 21.0628C52.0325 21.4712 52.3551 21.8005 52.7552 21.8005H53.8384Z" fill="black"/>
<path d="M72.4212 22.2478C72.1463 21.952 71.6902 21.9403 71.4005 22.2209C71.1108 22.5015 71.0993 22.967 71.3742 23.2628L72.1199 24.0643C72.2615 24.2172 72.4524 24.2945 72.6434 24.2945C72.8212 24.2945 73.0006 24.2273 73.1406 24.0929C73.4303 23.8123 73.4418 23.3468 73.1669 23.051L72.4212 22.2495V22.2478Z" fill="black"/>
<path d="M75.1553 25.1888C74.8803 24.893 74.4243 24.8813 74.1346 25.1619C73.8449 25.4425 73.8333 25.908 74.1083 26.2038L74.854 27.0053C74.9956 27.1582 75.1865 27.2355 75.3775 27.2355C75.5553 27.2355 75.7347 27.1683 75.8747 27.0339C76.1644 26.7533 76.1759 26.2878 75.901 25.992L75.1553 25.1905V25.1888Z" fill="black"/>
<path d="M57.8091 20.3251H56.7259C56.3275 20.3251 56.0032 20.6545 56.0032 21.0628C56.0032 21.4712 56.3259 21.8005 56.7259 21.8005H57.8091C58.2075 21.8005 58.5318 21.4712 58.5318 21.0628C58.5318 20.6545 58.2092 20.3251 57.8091 20.3251Z" fill="black"/>
<path d="M49.8678 20.3251H48.7846C48.3862 20.3251 48.0619 20.6545 48.0619 21.0628C48.0619 21.4712 48.3845 21.8005 48.7846 21.8005H49.8678C50.2662 21.8005 50.5905 21.4712 50.5905 21.0628C50.5905 20.6545 50.2678 20.3251 49.8678 20.3251Z" fill="black"/>
<path d="M77.8881 28.1295C77.6132 27.8338 77.1572 27.822 76.8675 28.1026C76.5777 28.3833 76.5662 28.8487 76.8411 29.1445L77.5869 29.946C77.7285 30.099 77.9194 30.1763 78.1104 30.1763C78.2882 30.1763 78.4676 30.109 78.6075 29.9746C78.8973 29.694 78.9088 29.2285 78.6339 28.9328L77.8881 28.1312V28.1295Z" fill="black"/>
<path d="M61.7799 20.3251H60.6966C60.2982 20.3251 59.9739 20.6545 59.9739 21.0628C59.9739 21.4712 60.2966 21.8005 60.6966 21.8005H61.7799C62.1782 21.8005 62.5025 21.4712 62.5025 21.0628C62.5025 20.6545 62.1799 20.3251 61.7799 20.3251Z" fill="black"/>
<path d="M17.7926 42.3775C16.4296 42.3775 15.3249 43.5051 15.3249 44.8965C15.3249 46.2879 16.4296 47.4154 17.7926 47.4154C18.2651 47.4154 18.7047 47.2776 19.0784 47.0424C19.0734 47.2407 19.1442 47.4406 19.294 47.5902L20.0694 48.3615C20.2093 48.501 20.392 48.5699 20.5731 48.5699C20.7542 48.5699 20.9485 48.4959 21.09 48.3464C21.3683 48.054 21.3617 47.5885 21.0769 47.3045L20.3015 46.5332C20.1665 46.4005 19.9953 46.3332 19.8208 46.3265C20.0974 45.9199 20.2603 45.4258 20.2603 44.8931C20.2603 43.5017 19.1557 42.3742 17.7926 42.3742V42.3775Z" fill="black"/>
<path d="M57.9093 83.0723C57.9143 83.0371 57.9192 83.0018 57.9192 82.9648V77.2631C57.9192 77.085 57.8566 76.9136 57.7414 76.7792L49.795 67.468C49.7341 67.3974 49.6634 67.342 49.586 67.3016C49.8609 66.895 50.0222 66.4043 50.0222 65.8733C50.0222 64.4819 48.9176 63.3543 47.5545 63.3543C46.1915 63.3543 45.0868 64.4819 45.0868 65.8733C45.0868 67.2647 46.1915 68.3922 47.5545 68.3922C47.9134 68.3922 48.2542 68.3116 48.562 68.1704C48.5917 68.2662 48.6378 68.3569 48.7069 68.4359L56.4754 77.5387V82.9648C56.4754 83.0018 56.4804 83.0371 56.4853 83.0723C55.4696 83.3849 54.7288 84.3461 54.7288 85.4837C54.7288 86.8751 55.8334 88.0027 57.1965 88.0027C58.5596 88.0027 59.6642 86.8751 59.6642 85.4837C59.6642 84.3444 58.9234 83.3832 57.9077 83.0723H57.9093Z" fill="black"/>
<path d="M36.5692 45.1539C36.5692 44.0145 35.8284 43.0533 34.8127 42.7425C34.8177 42.7072 34.8226 42.6719 34.8226 42.6349V41.5292C34.8226 41.1226 34.4999 40.7915 34.0999 40.7915C33.6999 40.7915 33.3772 41.1209 33.3772 41.5292V42.6349C33.3772 42.6719 33.3821 42.7072 33.3871 42.7425C32.3714 43.055 31.6306 44.0162 31.6306 45.1539C31.6306 46.5452 32.7352 47.6728 34.0983 47.6728C35.4613 47.6728 36.566 46.5452 36.566 45.1539H36.5692Z" fill="black"/>
<path d="M67.3456 30.3222C68.7085 30.3222 69.8133 29.1945 69.8133 27.8033C69.8133 26.4121 68.7085 25.2843 67.3456 25.2843C65.9828 25.2843 64.8779 26.4121 64.8779 27.8033C64.8779 29.1945 65.9828 30.3222 67.3456 30.3222Z" fill="black"/>
<path d="M33.7395 18.8636C32.3764 18.8636 31.2718 19.9912 31.2718 21.3826C31.2718 22.7739 32.3764 23.9015 33.7395 23.9015C34.1231 23.9015 34.4853 23.8091 34.8079 23.6511C34.8392 23.715 34.8787 23.7772 34.9297 23.8309L35.6854 24.6241C35.8269 24.772 36.0146 24.8476 36.2023 24.8476C36.3899 24.8476 36.5661 24.7787 36.706 24.6392C36.9925 24.3552 36.9974 23.8881 36.7208 23.5973L35.9652 22.8042C35.9273 22.7639 35.8845 22.7303 35.8401 22.7C36.0706 22.3169 36.2072 21.8665 36.2072 21.3826C36.2072 19.9912 35.1026 18.8636 33.7395 18.8636Z" fill="black"/>
<path d="M27.3323 27.2098C25.9692 27.2098 24.8646 28.3374 24.8646 29.7287C24.8646 31.1201 25.9692 32.2477 27.3323 32.2477C27.7768 32.2477 28.1917 32.1267 28.5505 31.9166C28.5736 31.9486 28.5983 31.9805 28.6263 32.0107L29.3967 32.7871C29.5366 32.9283 29.721 32.9988 29.9037 32.9988C30.0865 32.9988 30.2758 32.9249 30.4174 32.7804C30.6972 32.4913 30.6939 32.0242 30.4108 31.7385L29.6403 30.9622C29.6058 30.9269 29.5679 30.8966 29.5284 30.8714C29.6996 30.5286 29.7984 30.1404 29.7984 29.7287C29.7984 28.3374 28.6938 27.2098 27.3307 27.2098H27.3323Z" fill="black"/>
<path d="M44.8171 23.582C46.18 23.582 47.2848 22.4543 47.2848 21.0631C47.2848 19.6719 46.18 18.5441 44.8171 18.5441C43.4542 18.5441 42.3494 19.6719 42.3494 21.0631C42.3494 22.4543 43.4542 23.582 44.8171 23.582Z" fill="black"/>
<path d="M87.4378 60.3935C86.0747 60.3935 84.9701 61.5211 84.9701 62.9125C84.9701 64.0518 85.7109 65.013 86.7267 65.3239C86.7217 65.3591 86.7168 65.3944 86.7168 65.4314V68.0848L81.2842 73.6167H73.3593C73.1486 73.6167 72.9494 73.7108 72.8127 73.8721L67.3851 80.2947C67.2715 80.4291 67.2106 80.5988 67.2106 80.7753V89.9621C67.2106 89.9991 67.2155 90.0344 67.2205 90.0697C66.2048 90.3822 65.464 91.3434 65.464 92.4811C65.464 93.8724 66.5686 95 67.9317 95C69.2947 95 70.3993 93.8724 70.3993 92.4811C70.3993 91.3417 69.6585 90.3805 68.6428 90.0697C68.6478 90.0344 68.6527 89.9991 68.6527 89.9621V81.0492L73.6885 75.0904H81.5805C81.7715 75.0904 81.9559 75.0131 82.0909 74.8753L87.9465 68.9115C88.0815 68.7737 88.1589 68.5855 88.1589 68.3906V65.4314C88.1589 65.3944 88.1539 65.3591 88.149 65.3239C89.1647 65.0113 89.9055 64.0501 89.9055 62.9125C89.9055 61.5211 88.8009 60.3935 87.4378 60.3935Z" fill="black"/>
<path d="M39.6825 59.1416C38.5664 59.1416 37.6247 59.8978 37.3202 60.9346C37.2856 60.9296 37.2511 60.9245 37.2148 60.9245H20.2932L10.1887 50.6421V39.2824C10.1887 39.2455 10.1837 39.2102 10.1788 39.1749C11.1945 38.8623 11.9353 37.9011 11.9353 36.7635C11.9353 35.3721 10.8307 34.2446 9.46764 34.2446C8.10456 34.2446 6.99994 35.3721 6.99994 36.7635C6.99994 37.9028 7.74074 38.864 8.75647 39.1749C8.75153 39.2102 8.74659 39.2455 8.74659 39.2824V50.9479C8.74659 51.1445 8.82232 51.331 8.95895 51.4705L19.4866 62.1848C19.6216 62.3226 19.806 62.3999 19.9969 62.3999H37.2165C37.2527 62.3999 37.2873 62.3949 37.3218 62.3898C37.628 63.4267 38.5697 64.1828 39.6842 64.1828C41.0473 64.1828 42.1519 63.0553 42.1519 61.6639C42.1519 60.2725 41.0473 59.145 39.6842 59.145L39.6825 59.1416Z" fill="black"/>
<path d="M77.6726 57.6657C77.638 57.6606 77.6035 57.6556 77.5672 57.6556H76.484C76.0856 57.6556 75.7613 57.9849 75.7613 58.3933C75.7613 58.8016 76.084 59.131 76.484 59.131H77.5672C77.6035 59.131 77.638 59.1259 77.6726 59.1209C77.9788 60.1577 78.9204 60.9139 80.0349 60.9139C81.398 60.9139 82.5026 59.7863 82.5026 58.395C82.5026 57.0036 81.398 55.876 80.0349 55.876C78.9188 55.876 77.9771 56.6322 77.6726 57.669V57.6657Z" fill="black"/>
<path d="M60.8909 58.7113C62.2537 58.7113 63.3586 57.5835 63.3586 56.1924C63.3586 54.8012 62.2537 53.6734 60.8909 53.6734C59.528 53.6734 58.4232 54.8012 58.4232 56.1924C58.4232 57.5835 59.528 58.7113 60.8909 58.7113Z" fill="black"/>
<path d="M84.5653 44.288C85.9282 44.288 87.033 43.1602 87.033 41.7691C87.033 40.3779 85.9282 39.2501 84.5653 39.2501C83.2025 39.2501 82.0976 40.3779 82.0976 41.7691C82.0976 43.1602 83.2025 44.288 84.5653 44.288Z" fill="black"/>
<path d="M52.7319 57.8239C54.095 57.8239 55.1996 56.6963 55.1996 55.3049C55.1996 53.9136 54.095 52.786 52.7319 52.786C51.3688 52.786 50.2642 53.9136 50.2642 55.3049C50.2642 56.6963 51.3688 57.8239 52.7319 57.8239Z" fill="black"/>
<path d="M81.9116 34.5772C83.1708 34.0448 83.7687 32.5713 83.2471 31.2861C82.7256 30.0008 81.2821 29.3904 80.0229 29.9228C78.7638 30.4552 78.1659 31.9287 78.6874 33.214C79.209 34.4993 80.6525 35.1096 81.9116 34.5772Z" stroke="white" stroke-width="0.4"/>
<path d="M93.5225 33.8796L73.8764 13.4491C73.7414 13.308 73.5554 13.229 73.3612 13.229H28.992C28.801 13.229 28.6166 13.3063 28.4816 13.4441L16.1958 25.9632C16.1695 25.9901 16.1497 26.0187 16.1283 26.0489C15.7826 25.859 15.3859 25.7515 14.9661 25.7515C13.603 25.7515 12.4984 26.879 12.4984 28.2704C12.4984 29.6618 13.603 30.7894 14.9661 30.7894C16.3292 30.7894 17.4338 29.6618 17.4338 28.2704C17.4338 27.8369 17.3268 27.4285 17.1375 27.0723C17.1638 27.0521 17.1918 27.0319 17.2165 27.0067L29.2899 14.7027H73.0582L92.2846 34.6963V47.2221L88.997 50.4099C88.9608 50.4452 88.9279 50.4838 88.9016 50.5242C88.5723 50.3595 88.2036 50.2637 87.8134 50.2637C86.4503 50.2637 85.3457 51.3913 85.3457 52.7826C85.3457 54.174 86.4503 55.3016 87.8134 55.3016C89.1765 55.3016 90.2811 54.174 90.2811 52.7826C90.2811 52.3205 90.1576 51.8887 89.9436 51.5156C89.9601 51.5022 89.9765 51.4921 89.9914 51.477L93.5028 48.0708C93.646 47.9313 93.7267 47.738 93.7267 47.5364V34.3922C93.7267 34.1989 93.6526 34.0141 93.5192 33.8763L93.5225 33.8796Z" stroke="white" stroke-width="0.4"/>
<path d="M69.8235 59.6355L69.0399 60.3984C68.7518 60.6791 68.7403 61.1462 69.0152 61.4403C69.1568 61.5915 69.3478 61.6688 69.5371 61.6688C69.7165 61.6688 69.896 61.6016 70.0359 61.4655L70.8195 60.7026C71.1076 60.422 71.1191 59.9548 70.8442 59.6607C70.5693 59.3667 70.1116 59.3549 69.8235 59.6355Z" stroke="white" stroke-width="0.4"/>
<path d="M66.9506 62.4334L66.167 63.1963C65.8789 63.4769 65.8674 63.9441 66.1423 64.2382C66.2839 64.3894 66.4748 64.4667 66.6642 64.4667C66.8436 64.4667 67.023 64.3995 67.163 64.2634L67.9466 63.5005C68.2347 63.2198 68.2462 62.7527 67.9713 62.4586C67.6964 62.1645 67.2387 62.1528 66.9506 62.4334Z" stroke="white" stroke-width="0.4"/>
<path d="M73.5964 57.6557H72.5132C72.1148 57.6557 71.7905 57.985 71.7905 58.3934C71.7905 58.8017 72.1131 59.1311 72.5132 59.1311H73.5964C73.9948 59.1311 74.3191 58.8017 74.3191 58.3934C74.3191 57.985 73.9964 57.6557 73.5964 57.6557Z" stroke="white" stroke-width="0.4"/>
<path d="M60.4742 64.6948H59.391C59.1473 64.6948 58.9317 64.8191 58.8 65.009C58.6024 63.8193 57.5917 62.9118 56.3702 62.9118C55.0071 62.9118 53.9025 64.0394 53.9025 65.4308C53.9025 66.8222 55.0071 67.9497 56.3702 67.9497C57.5917 67.9497 58.6041 67.0423 58.8 65.8526C58.93 66.0425 59.1457 66.1668 59.391 66.1668H60.4742C60.8726 66.1668 61.1969 65.8374 61.1969 65.4291C61.1969 65.0208 60.8742 64.6914 60.4742 64.6914V64.6948Z" stroke="white" stroke-width="0.4"/>
<path d="M64.4451 64.695H63.3618C62.9634 64.695 62.6391 65.0243 62.6391 65.4327C62.6391 65.841 62.9618 66.1704 63.3618 66.1704H64.4451C64.8434 66.1704 65.1678 65.841 65.1678 65.4327C65.1678 65.0243 64.8451 64.695 64.4451 64.695Z" stroke="white" stroke-width="0.4"/>
<path d="M75.7333 41.0317C75.5473 41.0317 75.3695 41.1056 75.2345 41.235L74.9267 41.5358C74.6386 41.8164 74.6287 42.2836 74.9036 42.5776C75.0452 42.7289 75.2362 42.8062 75.4255 42.8062C75.6049 42.8062 75.7844 42.739 75.9243 42.6028L76.0231 42.5071H76.3902C76.7886 42.5071 77.1129 42.1777 77.1129 41.7694C77.1129 41.361 76.7902 41.0317 76.3902 41.0317H75.7333Z" stroke="white" stroke-width="0.4"/>
<path d="M69.9681 46.3735L69.1845 47.1364C68.8964 47.417 68.8865 47.8842 69.1614 48.1782C69.303 48.3295 69.494 48.4068 69.6833 48.4068C69.8627 48.4068 70.0421 48.3396 70.1821 48.2035L70.9657 47.4405C71.2538 47.1599 71.2637 46.6928 70.9887 46.3987C70.7138 46.1046 70.2562 46.0945 69.9681 46.3752V46.3735Z" stroke="white" stroke-width="0.4"/>
<path d="M72.839 43.5721L72.0554 44.335C71.7673 44.6157 71.7574 45.0828 72.0323 45.3769C72.1739 45.5281 72.3649 45.6054 72.5542 45.6054C72.7336 45.6054 72.9131 45.5382 73.053 45.4021L73.8366 44.6392C74.1247 44.3586 74.1346 43.8914 73.8596 43.5973C73.5847 43.3033 73.1271 43.2932 72.839 43.5738V43.5721Z" stroke="white" stroke-width="0.4"/>
<path d="M80.3608 42.5052C80.7592 42.5052 81.0835 42.1758 81.0835 41.7675C81.0835 41.3591 80.7609 41.0298 80.3608 41.0298H79.2776C78.8792 41.0298 78.5549 41.3591 78.5549 41.7675C78.5549 42.1758 78.8776 42.5052 79.2776 42.5052H80.3608Z" stroke="white" stroke-width="0.4"/>
<path d="M64.2261 51.9724L63.4425 52.7354C63.1544 53.016 63.1445 53.4831 63.4195 53.7772C63.561 53.9285 63.752 54.0058 63.9413 54.0058C64.1208 54.0058 64.3002 53.9385 64.4401 53.8024L65.2237 53.0395C65.5118 52.7589 65.5217 52.2917 65.2468 51.9977C64.9719 51.7036 64.5142 51.6935 64.2261 51.9741V51.9724Z" stroke="white" stroke-width="0.4"/>
<path d="M68.118 49.1968C67.843 48.9028 67.3854 48.8927 67.0973 49.1733L66.3137 49.9362C66.0256 50.2168 66.0157 50.684 66.2906 50.9781C66.4322 51.1293 66.6232 51.2066 66.8125 51.2066C66.9919 51.2066 67.1714 51.1394 67.3113 51.0033L68.0949 50.2404C68.383 49.9597 68.3929 49.4926 68.118 49.1985V49.1968Z" stroke="white" stroke-width="0.4"/>
<path d="M57.9786 50.1124C58.1186 50.2485 58.298 50.3157 58.4774 50.3157C58.6684 50.3157 58.8577 50.2401 58.9993 50.0872L59.7467 49.2873C60.0216 48.9932 60.0117 48.526 59.7236 48.2454C59.4355 47.9648 58.9779 47.9749 58.703 48.2689L57.9556 49.0688C57.6807 49.3629 57.6905 49.8301 57.9786 50.1107V50.1124Z" stroke="white" stroke-width="0.4"/>
<path d="M55.733 53.2486C55.924 53.2486 56.1133 53.173 56.2549 53.0201L57.0023 52.2202C57.2772 51.9262 57.2673 51.459 56.9792 51.1784C56.6911 50.8977 56.2335 50.9078 55.9586 51.2019L55.2112 52.0018C54.9363 52.2958 54.9461 52.763 55.2342 53.0436C55.3742 53.1797 55.5536 53.247 55.733 53.247V53.2486Z" stroke="white" stroke-width="0.4"/>
<path d="M61.4458 45.3417L60.6984 46.1416C60.4235 46.4356 60.4333 46.9028 60.7214 47.1834C60.8614 47.3195 61.0408 47.3868 61.2202 47.3868C61.4112 47.3868 61.6005 47.3111 61.7421 47.1582L62.4895 46.3583C62.7644 46.0643 62.7545 45.5971 62.4664 45.3165C62.1783 45.0358 61.7207 45.0459 61.4458 45.34V45.3417Z" stroke="white" stroke-width="0.4"/>
<path d="M63.464 44.251C63.6039 44.3871 63.7833 44.4543 63.9628 44.4543C64.1537 44.4543 64.343 44.3787 64.4846 44.2258L65.232 43.4259C65.5069 43.1318 65.497 42.6647 65.209 42.3841C64.9209 42.1034 64.4632 42.1135 64.1883 42.4076L63.4409 43.2075C63.166 43.5015 63.1759 43.9687 63.464 44.2493V44.251Z" stroke="white" stroke-width="0.4"/>
<path d="M67.3458 33.6796C67.7442 33.6796 68.0685 33.3503 68.0685 32.9419V31.8362C68.0685 31.4296 67.7459 31.0985 67.3458 31.0985C66.9458 31.0985 66.6231 31.4279 66.6231 31.8362V32.9419C66.6231 33.3486 66.9458 33.6796 67.3458 33.6796Z" stroke="white" stroke-width="0.4"/>
<path d="M66.2064 41.321C66.3463 41.4571 66.5257 41.5243 66.7052 41.5243C66.8962 41.5243 67.0855 41.4487 67.227 41.2958L67.8674 40.6119C67.9958 40.4741 68.0666 40.2926 68.0666 40.1027V39.9431C68.0666 39.5364 67.744 39.2054 67.3439 39.2054C66.9966 39.2054 66.7052 39.4557 66.6377 39.7901L66.1817 40.2758C65.9068 40.5699 65.9166 41.037 66.2047 41.3176L66.2064 41.321Z" stroke="white" stroke-width="0.4"/>
<path d="M66.6246 36.9966C66.6246 37.4032 66.9473 37.7343 67.3473 37.7343C67.7473 37.7343 68.07 37.4049 68.07 36.9966V35.8908C68.07 35.4842 67.7473 35.1531 67.3473 35.1531C66.9473 35.1531 66.6246 35.4825 66.6246 35.8908V36.9966Z" stroke="white" stroke-width="0.4"/>
<path d="M33.0514 52.9356C32.6531 52.9356 32.3288 53.2649 32.3288 53.6733C32.3288 54.0816 32.6514 54.411 33.0514 54.411H34.1347C34.5331 54.411 34.8574 54.0816 34.8574 53.6733C34.8574 53.2649 34.5347 52.9356 34.1347 52.9356H33.0514Z" stroke="white" stroke-width="0.4"/>
<path d="M29.0807 52.9356C28.6823 52.9356 28.358 53.2649 28.358 53.6733C28.358 54.0816 28.6807 54.411 29.0807 54.411H30.1639C30.5623 54.411 30.8866 54.0816 30.8866 53.6733C30.8866 53.2649 30.564 52.9356 30.1639 52.9356H29.0807Z" stroke="white" stroke-width="0.4"/>
<path d="M23.4211 51.398C23.6087 51.398 23.7964 51.324 23.938 51.1745C24.2162 50.8821 24.2096 50.4166 23.9248 50.1326L23.1494 49.3613C22.863 49.0773 22.407 49.084 22.1288 49.3747C21.8506 49.6671 21.8571 50.1326 22.1419 50.4166L22.9173 51.1879C23.0572 51.3274 23.24 51.3963 23.4211 51.3963V51.398Z" stroke="white" stroke-width="0.4"/>
<path d="M44.8648 49.1379C44.5767 48.8573 44.1191 48.8691 43.8442 49.1631L43.0968 49.963C42.8218 50.2571 42.8334 50.7242 43.1215 51.0049C43.2614 51.141 43.4408 51.2082 43.6186 51.2082C43.8096 51.2082 43.9989 51.1309 44.1421 50.9797L44.8895 50.1798C45.1644 49.8857 45.1529 49.4186 44.8648 49.1379Z" stroke="white" stroke-width="0.4"/>
<path d="M36.301 53.6733C36.301 54.0799 36.6236 54.411 37.0237 54.411H38.1069C38.5053 54.411 38.8296 54.0816 38.8296 53.6733C38.8296 53.2649 38.5069 52.9356 38.1069 52.9356H37.0237C36.6253 52.9356 36.301 53.2649 36.301 53.6733Z" stroke="white" stroke-width="0.4"/>
<path d="M24.9869 53.2448L25.7622 54.0161C25.9022 54.1556 26.0849 54.2245 26.266 54.2245C26.4471 54.2245 26.6413 54.1506 26.7829 54.001C27.0611 53.7086 27.0545 53.2431 26.7697 52.9592L25.9944 52.1878C25.7079 51.9039 25.2519 51.9106 24.9737 52.2013C24.6955 52.4937 24.7021 52.9592 24.9869 53.2431V53.2448Z" stroke="white" stroke-width="0.4"/>
<path d="M45.8361 47.0287C45.5612 47.3228 45.5727 47.7899 45.8608 48.0706C46.0007 48.2067 46.1801 48.2739 46.3579 48.2739C46.5489 48.2739 46.7382 48.1966 46.8814 48.0454L47.6288 47.2455C47.6552 47.2169 47.6766 47.1867 47.6963 47.1564C48.0256 47.3211 48.3943 47.4169 48.7845 47.4169C50.1476 47.4169 51.2522 46.2893 51.2522 44.8979C51.2522 43.5066 50.1476 42.379 48.7845 42.379C47.4214 42.379 46.3168 43.5066 46.3168 44.8979C46.3168 45.3601 46.4419 45.7936 46.6543 46.1667C46.6296 46.1868 46.6049 46.2053 46.5818 46.2305L45.8344 47.0304L45.8361 47.0287Z" stroke="white" stroke-width="0.4"/>
<path d="M41.1065 52.0985L40.3591 52.8984C40.0841 53.1925 40.0957 53.6596 40.3838 53.9402C40.5237 54.0764 40.7031 54.1436 40.8809 54.1436C41.0719 54.1436 41.2612 54.0663 41.4044 53.915L42.1518 53.1152C42.4267 52.8211 42.4152 52.3539 42.1271 52.0733C41.839 51.7927 41.3814 51.8044 41.1065 52.0985Z" stroke="white" stroke-width="0.4"/>
<path d="M31.453 34.8588L32.2235 35.6352C32.3634 35.7763 32.5478 35.8469 32.7305 35.8469C32.9132 35.8469 33.1025 35.773 33.2441 35.6285C33.524 35.3394 33.5207 34.8723 33.2375 34.5866L32.4671 33.8103C32.1839 33.5246 31.7263 33.5279 31.4464 33.817C31.1666 34.106 31.1699 34.5732 31.453 34.8588Z" stroke="white" stroke-width="0.4"/>
<path d="M34.1016 39.3175C34.4999 39.3175 34.8243 38.9881 34.8243 38.5798V37.474C34.8243 37.0674 34.5016 36.7363 34.1016 36.7363C33.7015 36.7363 33.3789 37.0657 33.3789 37.474V38.5798C33.3789 38.9864 33.7015 39.3175 34.1016 39.3175Z" stroke="white" stroke-width="0.4"/>
<path d="M41.5034 28.615C41.2252 28.3226 40.7676 28.3159 40.4828 28.5999C40.1963 28.8839 40.1897 29.351 40.4679 29.6418L41.2236 30.4349C41.3651 30.5828 41.5528 30.6584 41.7405 30.6584C41.9281 30.6584 42.1043 30.5895 42.2442 30.45C42.5307 30.166 42.5356 29.6989 42.259 29.4082L41.5034 28.615Z" stroke="white" stroke-width="0.4"/>
<path d="M46.9209 33.2376C46.5225 33.2376 46.1982 33.567 46.1982 33.9753C46.1982 34.3836 46.5208 34.713 46.9209 34.713H48.0041C48.4025 34.713 48.7268 34.3836 48.7268 33.9753C48.7268 33.567 48.4041 33.2376 48.0041 33.2376H46.9209Z" stroke="white" stroke-width="0.4"/>
<path d="M50.8931 33.2378C50.4947 33.2378 50.1704 33.5672 50.1704 33.9755C50.1704 34.3839 50.4931 34.7132 50.8931 34.7132H51.9763C52.029 34.7132 52.08 34.7065 52.1311 34.6948C52.434 35.7349 53.3773 36.4945 54.495 36.4945C55.8581 36.4945 56.9627 35.3669 56.9627 33.9755C56.9627 32.5842 55.8581 31.4566 54.495 31.4566C53.3773 31.4566 52.434 32.2161 52.1311 33.2563C52.0817 33.2446 52.0306 33.2378 51.9763 33.2378H50.8931Z" stroke="white" stroke-width="0.4"/>
<path d="M38.9715 27.7531C39.1526 27.7531 39.3354 27.6842 39.4753 27.5447C39.7617 27.2607 39.7667 26.7935 39.4901 26.5028L38.7345 25.7097C38.4563 25.4173 37.9986 25.4106 37.7138 25.6945C37.4274 25.9785 37.4208 26.4457 37.699 26.7364L38.4546 27.5296C38.5962 27.6774 38.7839 27.7531 38.9715 27.7531Z" stroke="white" stroke-width="0.4"/>
<path d="M43.2499 31.5071C42.9635 31.7911 42.9569 32.2583 43.2351 32.549L43.9907 33.3421C44.1323 33.49 44.32 33.5656 44.5077 33.5656C44.6953 33.5656 44.8715 33.4967 45.0114 33.3573C45.2978 33.0733 45.3028 32.6061 45.0262 32.3154L44.2706 31.5222C43.9924 31.2299 43.5347 31.2231 43.2499 31.5071Z" stroke="white" stroke-width="0.4"/>
<path d="M69.7229 20.3251H68.6397C68.2413 20.3251 67.917 20.6545 67.917 21.0628C67.917 21.4712 68.2397 21.8005 68.6397 21.8005H69.7229C70.1213 21.8005 70.4456 21.4712 70.4456 21.0628C70.4456 20.6545 70.123 20.3251 69.7229 20.3251Z" stroke="white" stroke-width="0.4"/>
<path d="M65.7507 20.3251H64.6675C64.2691 20.3251 63.9448 20.6545 63.9448 21.0628C63.9448 21.4712 64.2675 21.8005 64.6675 21.8005H65.7507C66.1491 21.8005 66.4734 21.4712 66.4734 21.0628C66.4734 20.6545 66.1508 20.3251 65.7507 20.3251Z" stroke="white" stroke-width="0.4"/>
<path d="M53.8384 21.8005C54.2368 21.8005 54.5611 21.4712 54.5611 21.0628C54.5611 20.6545 54.2384 20.3251 53.8384 20.3251H52.7552C52.3568 20.3251 52.0325 20.6545 52.0325 21.0628C52.0325 21.4712 52.3551 21.8005 52.7552 21.8005H53.8384Z" stroke="white" stroke-width="0.4"/>
<path d="M72.4212 22.2478C72.1463 21.952 71.6902 21.9403 71.4005 22.2209C71.1108 22.5015 71.0993 22.967 71.3742 23.2628L72.1199 24.0643C72.2615 24.2172 72.4524 24.2945 72.6434 24.2945C72.8212 24.2945 73.0006 24.2273 73.1406 24.0929C73.4303 23.8123 73.4418 23.3468 73.1669 23.051L72.4212 22.2495V22.2478Z" stroke="white" stroke-width="0.4"/>
<path d="M75.1553 25.1888C74.8803 24.893 74.4243 24.8813 74.1346 25.1619C73.8449 25.4425 73.8333 25.908 74.1083 26.2038L74.854 27.0053C74.9956 27.1582 75.1865 27.2355 75.3775 27.2355C75.5553 27.2355 75.7347 27.1683 75.8747 27.0339C76.1644 26.7533 76.1759 26.2878 75.901 25.992L75.1553 25.1905V25.1888Z" stroke="white" stroke-width="0.4"/>
<path d="M57.8091 20.3251H56.7259C56.3275 20.3251 56.0032 20.6545 56.0032 21.0628C56.0032 21.4712 56.3259 21.8005 56.7259 21.8005H57.8091C58.2075 21.8005 58.5318 21.4712 58.5318 21.0628C58.5318 20.6545 58.2092 20.3251 57.8091 20.3251Z" stroke="white" stroke-width="0.4"/>
<path d="M49.8678 20.3251H48.7846C48.3862 20.3251 48.0619 20.6545 48.0619 21.0628C48.0619 21.4712 48.3845 21.8005 48.7846 21.8005H49.8678C50.2662 21.8005 50.5905 21.4712 50.5905 21.0628C50.5905 20.6545 50.2678 20.3251 49.8678 20.3251Z" stroke="white" stroke-width="0.4"/>
<path d="M77.8881 28.1295C77.6132 27.8338 77.1572 27.822 76.8675 28.1026C76.5777 28.3833 76.5662 28.8487 76.8411 29.1445L77.5869 29.946C77.7285 30.099 77.9194 30.1763 78.1104 30.1763C78.2882 30.1763 78.4676 30.109 78.6075 29.9746C78.8973 29.694 78.9088 29.2285 78.6339 28.9328L77.8881 28.1312V28.1295Z" stroke="white" stroke-width="0.4"/>
<path d="M61.7799 20.3251H60.6966C60.2982 20.3251 59.9739 20.6545 59.9739 21.0628C59.9739 21.4712 60.2966 21.8005 60.6966 21.8005H61.7799C62.1782 21.8005 62.5025 21.4712 62.5025 21.0628C62.5025 20.6545 62.1799 20.3251 61.7799 20.3251Z" stroke="white" stroke-width="0.4"/>
<path d="M17.7926 42.3775C16.4296 42.3775 15.3249 43.5051 15.3249 44.8965C15.3249 46.2879 16.4296 47.4154 17.7926 47.4154C18.2651 47.4154 18.7047 47.2776 19.0784 47.0424C19.0734 47.2407 19.1442 47.4406 19.294 47.5902L20.0694 48.3615C20.2093 48.501 20.392 48.5699 20.5731 48.5699C20.7542 48.5699 20.9485 48.4959 21.09 48.3464C21.3683 48.054 21.3617 47.5885 21.0769 47.3045L20.3015 46.5332C20.1665 46.4005 19.9953 46.3332 19.8208 46.3265C20.0974 45.9199 20.2603 45.4258 20.2603 44.8931C20.2603 43.5017 19.1557 42.3742 17.7926 42.3742V42.3775Z" stroke="white" stroke-width="0.4"/>
<path d="M57.9093 83.0723C57.9143 83.0371 57.9192 83.0018 57.9192 82.9648V77.2631C57.9192 77.085 57.8566 76.9136 57.7414 76.7792L49.795 67.468C49.7341 67.3974 49.6634 67.342 49.586 67.3016C49.8609 66.895 50.0222 66.4043 50.0222 65.8733C50.0222 64.4819 48.9176 63.3543 47.5545 63.3543C46.1915 63.3543 45.0868 64.4819 45.0868 65.8733C45.0868 67.2647 46.1915 68.3922 47.5545 68.3922C47.9134 68.3922 48.2542 68.3116 48.562 68.1704C48.5917 68.2662 48.6378 68.3569 48.7069 68.4359L56.4754 77.5387V82.9648C56.4754 83.0018 56.4804 83.0371 56.4853 83.0723C55.4696 83.3849 54.7288 84.3461 54.7288 85.4837C54.7288 86.8751 55.8334 88.0027 57.1965 88.0027C58.5596 88.0027 59.6642 86.8751 59.6642 85.4837C59.6642 84.3444 58.9234 83.3832 57.9077 83.0723H57.9093Z" stroke="white" stroke-width="0.4"/>
<path d="M36.5692 45.1539C36.5692 44.0145 35.8284 43.0533 34.8127 42.7425C34.8177 42.7072 34.8226 42.6719 34.8226 42.6349V41.5292C34.8226 41.1226 34.4999 40.7915 34.0999 40.7915C33.6999 40.7915 33.3772 41.1209 33.3772 41.5292V42.6349C33.3772 42.6719 33.3821 42.7072 33.3871 42.7425C32.3714 43.055 31.6306 44.0162 31.6306 45.1539C31.6306 46.5452 32.7352 47.6728 34.0983 47.6728C35.4613 47.6728 36.566 46.5452 36.566 45.1539H36.5692Z" stroke="white" stroke-width="0.4"/>
<path d="M67.3456 30.3222C68.7085 30.3222 69.8133 29.1945 69.8133 27.8033C69.8133 26.4121 68.7085 25.2843 67.3456 25.2843C65.9828 25.2843 64.8779 26.4121 64.8779 27.8033C64.8779 29.1945 65.9828 30.3222 67.3456 30.3222Z" stroke="white" stroke-width="0.4"/>
<path d="M33.7395 18.8636C32.3764 18.8636 31.2718 19.9912 31.2718 21.3826C31.2718 22.7739 32.3764 23.9015 33.7395 23.9015C34.1231 23.9015 34.4853 23.8091 34.8079 23.6511C34.8392 23.715 34.8787 23.7772 34.9297 23.8309L35.6854 24.6241C35.8269 24.772 36.0146 24.8476 36.2023 24.8476C36.3899 24.8476 36.5661 24.7787 36.706 24.6392C36.9925 24.3552 36.9974 23.8881 36.7208 23.5973L35.9652 22.8042C35.9273 22.7639 35.8845 22.7303 35.8401 22.7C36.0706 22.3169 36.2072 21.8665 36.2072 21.3826C36.2072 19.9912 35.1026 18.8636 33.7395 18.8636Z" stroke="white" stroke-width="0.4"/>
<path d="M27.3323 27.2098C25.9692 27.2098 24.8646 28.3374 24.8646 29.7287C24.8646 31.1201 25.9692 32.2477 27.3323 32.2477C27.7768 32.2477 28.1917 32.1267 28.5505 31.9166C28.5736 31.9486 28.5983 31.9805 28.6263 32.0107L29.3967 32.7871C29.5366 32.9283 29.721 32.9988 29.9037 32.9988C30.0865 32.9988 30.2758 32.9249 30.4174 32.7804C30.6972 32.4913 30.6939 32.0242 30.4108 31.7385L29.6403 30.9622C29.6058 30.9269 29.5679 30.8966 29.5284 30.8714C29.6996 30.5286 29.7984 30.1404 29.7984 29.7287C29.7984 28.3374 28.6938 27.2098 27.3307 27.2098H27.3323Z" stroke="white" stroke-width="0.4"/>
<path d="M44.8171 23.582C46.18 23.582 47.2848 22.4543 47.2848 21.0631C47.2848 19.6719 46.18 18.5441 44.8171 18.5441C43.4542 18.5441 42.3494 19.6719 42.3494 21.0631C42.3494 22.4543 43.4542 23.582 44.8171 23.582Z" stroke="white" stroke-width="0.4"/>
<path d="M87.4378 60.3935C86.0747 60.3935 84.9701 61.5211 84.9701 62.9125C84.9701 64.0518 85.7109 65.013 86.7267 65.3239C86.7217 65.3591 86.7168 65.3944 86.7168 65.4314V68.0848L81.2842 73.6167H73.3593C73.1486 73.6167 72.9494 73.7108 72.8127 73.8721L67.3851 80.2947C67.2715 80.4291 67.2106 80.5988 67.2106 80.7753V89.9621C67.2106 89.9991 67.2155 90.0344 67.2205 90.0697C66.2048 90.3822 65.464 91.3434 65.464 92.4811C65.464 93.8724 66.5686 95 67.9317 95C69.2947 95 70.3993 93.8724 70.3993 92.4811C70.3993 91.3417 69.6585 90.3805 68.6428 90.0697C68.6478 90.0344 68.6527 89.9991 68.6527 89.9621V81.0492L73.6885 75.0904H81.5805C81.7715 75.0904 81.9559 75.0131 82.0909 74.8753L87.9465 68.9115C88.0815 68.7737 88.1589 68.5855 88.1589 68.3906V65.4314C88.1589 65.3944 88.1539 65.3591 88.149 65.3239C89.1647 65.0113 89.9055 64.0501 89.9055 62.9125C89.9055 61.5211 88.8009 60.3935 87.4378 60.3935Z" stroke="white" stroke-width="0.4"/>
<path d="M39.6825 59.1416C38.5664 59.1416 37.6247 59.8978 37.3202 60.9346C37.2856 60.9296 37.2511 60.9245 37.2148 60.9245H20.2932L10.1887 50.6421V39.2824C10.1887 39.2455 10.1837 39.2102 10.1788 39.1749C11.1945 38.8623 11.9353 37.9011 11.9353 36.7635C11.9353 35.3721 10.8307 34.2446 9.46764 34.2446C8.10456 34.2446 6.99994 35.3721 6.99994 36.7635C6.99994 37.9028 7.74074 38.864 8.75647 39.1749C8.75153 39.2102 8.74659 39.2455 8.74659 39.2824V50.9479C8.74659 51.1445 8.82232 51.331 8.95895 51.4705L19.4866 62.1848C19.6216 62.3226 19.806 62.3999 19.9969 62.3999H37.2165C37.2527 62.3999 37.2873 62.3949 37.3218 62.3898C37.628 63.4267 38.5697 64.1828 39.6842 64.1828C41.0473 64.1828 42.1519 63.0553 42.1519 61.6639C42.1519 60.2725 41.0473 59.145 39.6842 59.145L39.6825 59.1416Z" stroke="white" stroke-width="0.4"/>
<path d="M77.6726 57.6657C77.638 57.6606 77.6035 57.6556 77.5672 57.6556H76.484C76.0856 57.6556 75.7613 57.9849 75.7613 58.3933C75.7613 58.8016 76.084 59.131 76.484 59.131H77.5672C77.6035 59.131 77.638 59.1259 77.6726 59.1209C77.9788 60.1577 78.9204 60.9139 80.0349 60.9139C81.398 60.9139 82.5026 59.7863 82.5026 58.395C82.5026 57.0036 81.398 55.876 80.0349 55.876C78.9188 55.876 77.9771 56.6322 77.6726 57.669V57.6657Z" stroke="white" stroke-width="0.4"/>
<path d="M60.8909 58.7113C62.2537 58.7113 63.3586 57.5835 63.3586 56.1924C63.3586 54.8012 62.2537 53.6734 60.8909 53.6734C59.528 53.6734 58.4232 54.8012 58.4232 56.1924C58.4232 57.5835 59.528 58.7113 60.8909 58.7113Z" stroke="white" stroke-width="0.4"/>
<path d="M84.5653 44.288C85.9282 44.288 87.033 43.1602 87.033 41.7691C87.033 40.3779 85.9282 39.2501 84.5653 39.2501C83.2025 39.2501 82.0976 40.3779 82.0976 41.7691C82.0976 43.1602 83.2025 44.288 84.5653 44.288Z" stroke="white" stroke-width="0.4"/>
<path d="M52.7319 57.8239C54.095 57.8239 55.1996 56.6963 55.1996 55.3049C55.1996 53.9136 54.095 52.786 52.7319 52.786C51.3688 52.786 50.2642 53.9136 50.2642 55.3049C50.2642 56.6963 51.3688 57.8239 52.7319 57.8239Z" stroke="white" stroke-width="0.4"/>
</svg>
