<svg width="190" height="24" viewBox="0 0 190 24" fill="none" xmlns="http://www.w3.org/2000/svg">
<path d="M183.559 24C182.888 24 182.178 23.9439 181.428 23.8318C180.677 23.7197 179.943 23.5676 179.225 23.3754L178.315 23.1111L178.961 20.2042L179.847 20.3243C180.374 20.4044 180.909 20.4765 181.451 20.5405C182.01 20.6046 182.529 20.6366 183.008 20.6366C183.902 20.6366 184.612 20.5005 185.139 20.2282C185.666 19.972 185.929 19.4915 185.929 18.7868V17.4655L185.355 17.7297C184.908 17.954 184.437 18.1221 183.942 18.2342C183.447 18.3463 182.968 18.4024 182.505 18.4024C181.579 18.4024 180.773 18.2342 180.087 17.8979C179.416 17.5616 178.857 17.1051 178.41 16.5285C177.963 15.952 177.628 15.3033 177.405 14.5826C177.181 13.8619 177.069 13.1331 177.069 12.3964C177.069 11.2913 177.277 10.2823 177.692 9.36937C178.123 8.45646 178.738 7.72773 179.536 7.18318C180.35 6.63864 181.34 6.36637 182.505 6.36637C183.032 6.36637 183.583 6.45445 184.157 6.63063C184.732 6.79079 185.267 7.00701 185.762 7.27928L186.743 7.78379L187.007 6.58258H190V18.4024C190 19.6997 189.721 20.7568 189.162 21.5736C188.619 22.4064 187.861 23.015 186.887 23.3994C185.913 23.7998 184.804 24 183.559 24ZM181.188 12.3724C181.188 12.997 181.292 13.5095 181.499 13.9099C181.707 14.2943 182.002 14.5746 182.385 14.7508C182.768 14.9269 183.223 15.015 183.75 15.015C183.99 15.015 184.245 14.991 184.516 14.9429C184.788 14.8789 185.051 14.7988 185.307 14.7027L185.929 14.4865V10.3544L185.331 10.0901C185.059 9.96196 184.788 9.86587 184.516 9.8018C184.245 9.73774 183.982 9.70571 183.726 9.70571C183.168 9.70571 182.697 9.80981 182.314 10.018C181.93 10.2262 181.643 10.5305 181.451 10.9309C181.276 11.3153 181.188 11.7958 181.188 12.3724Z" fill="#82B4BB"/>
<path d="M162.865 18.979V6.58258H165.882L166.193 7.87988L167.007 7.42342C167.582 7.1031 168.165 6.84685 168.755 6.65466C169.346 6.46246 169.937 6.36637 170.527 6.36637C171.549 6.36637 172.379 6.55856 173.018 6.94294C173.672 7.31131 174.159 7.82382 174.478 8.48048C174.814 9.12112 174.981 9.84985 174.981 10.6667V18.979H170.887V11.7237C170.887 11.1792 170.751 10.7628 170.479 10.4745C170.208 10.1862 169.721 10.042 169.019 10.042C168.763 10.042 168.516 10.0741 168.276 10.1381C168.053 10.1862 167.821 10.2663 167.582 10.3784L166.935 10.6186V18.979H162.865Z" fill="#82B4BB"/>
<path d="M156.013 18.979V6.58258H160.084V18.979H156.013ZM158.049 4.85285C157.602 4.85285 157.179 4.74074 156.779 4.51652C156.396 4.29229 156.093 3.996 155.87 3.62763C155.646 3.25926 155.534 2.85886 155.534 2.42643C155.534 1.97798 155.646 1.57758 155.87 1.22523C156.093 0.856858 156.396 0.560561 156.779 0.336337C157.179 0.112113 157.602 0 158.049 0C158.512 0 158.935 0.112113 159.318 0.336337C159.701 0.560561 160.004 0.856858 160.228 1.22523C160.451 1.57758 160.563 1.97798 160.563 2.42643C160.563 2.85886 160.451 3.25926 160.228 3.62763C160.004 3.996 159.701 4.29229 159.318 4.51652C158.935 4.74074 158.512 4.85285 158.049 4.85285Z" fill="#82B4BB"/>
<path d="M150.414 19.1712C149.121 19.1712 148.116 18.8829 147.397 18.3063C146.679 17.7297 146.32 16.7928 146.32 15.4955V9.8979H143.757V7.25525L146.32 6.58258V3.79579L150.414 2.81081V6.58258H154.03V9.8979H150.414V14.1982C150.414 14.7267 150.502 15.1271 150.678 15.3994C150.869 15.6557 151.316 15.7838 152.019 15.7838C152.21 15.7838 152.402 15.7758 152.593 15.7598C152.785 15.7437 152.992 15.7197 153.216 15.6877L153.886 15.5916L154.269 18.4985L153.719 18.6426C153.16 18.8028 152.593 18.9309 152.019 19.027C151.46 19.1231 150.925 19.1712 150.414 19.1712Z" fill="#82B4BB"/>
<path d="M130.104 18.979V6.58258H133.121L133.432 7.87988L134.246 7.42342C134.821 7.1031 135.403 6.84685 135.994 6.65466C136.585 6.46246 137.175 6.36637 137.766 6.36637C138.788 6.36637 139.618 6.55856 140.256 6.94294C140.911 7.31131 141.398 7.82382 141.717 8.48048C142.052 9.12112 142.22 9.84985 142.22 10.6667V18.979H138.125V11.7237C138.125 11.1792 137.99 10.7628 137.718 10.4745C137.447 10.1862 136.96 10.042 136.257 10.042C136.002 10.042 135.755 10.0741 135.515 10.1381C135.292 10.1862 135.06 10.2663 134.821 10.3784L134.174 10.6186V18.979H130.104Z" fill="#82B4BB"/>
<path d="M119.677 19.1712C118.224 19.1712 117.154 18.7788 116.468 17.994C115.781 17.2092 115.438 16.1762 115.438 14.8949V6.58258H119.509V13.8138C119.509 14.4224 119.653 14.8549 119.94 15.1111C120.227 15.3674 120.666 15.4955 121.257 15.4955C121.496 15.4955 121.72 15.4715 121.927 15.4234C122.135 15.3594 122.343 15.2873 122.55 15.2072L123.221 14.8949V6.58258H127.315V18.979H124.274L123.771 16.7928L124.561 17.3694L123.077 18.1862C122.486 18.4905 121.904 18.7307 121.329 18.9069C120.77 19.0831 120.219 19.1712 119.677 19.1712Z" fill="#82B4BB"/>
<path d="M106.72 19.1952C105.348 19.1952 104.174 18.9309 103.2 18.4024C102.227 17.8579 101.468 17.1051 100.926 16.1441C100.399 15.1832 100.135 14.0621 100.135 12.7808C100.135 11.4835 100.415 10.3544 100.974 9.39339C101.532 8.43243 102.306 7.68769 103.296 7.15916C104.286 6.63063 105.451 6.36637 106.792 6.36637C108.149 6.36637 109.315 6.63864 110.288 7.18318C111.278 7.71171 112.036 8.45646 112.563 9.41742C113.09 10.3784 113.353 11.4995 113.353 12.7808C113.353 14.0621 113.074 15.1832 112.515 16.1441C111.956 17.1051 111.182 17.8579 110.193 18.4024C109.203 18.9309 108.045 19.1952 106.72 19.1952ZM106.744 15.8078C107.255 15.8078 107.694 15.7037 108.061 15.4955C108.429 15.2713 108.708 14.9349 108.899 14.4865C109.091 14.038 109.187 13.4695 109.187 12.7808C109.187 12.0761 109.091 11.5075 108.899 11.0751C108.724 10.6266 108.452 10.2983 108.085 10.0901C107.718 9.86587 107.271 9.75376 106.744 9.75376C106.25 9.75376 105.811 9.86587 105.427 10.0901C105.06 10.2983 104.773 10.6266 104.565 11.0751C104.358 11.5075 104.254 12.0761 104.254 12.7808C104.254 13.4695 104.358 14.038 104.565 14.4865C104.773 14.9349 105.06 15.2713 105.427 15.4955C105.795 15.7037 106.234 15.8078 106.744 15.8078Z" fill="#82B4BB"/>
<path d="M95.3563 19.1712C94.1271 19.1712 93.0096 18.9229 92.0039 18.4264C91.0142 17.9299 90.224 17.2092 89.6333 16.2643C89.0427 15.3033 88.7473 14.1421 88.7473 12.7808C88.7473 11.3874 89.0427 10.2182 89.6333 9.27327C90.2399 8.31231 91.0381 7.59159 92.0279 7.11111C93.0336 6.61461 94.159 6.36637 95.4042 6.36637C95.9629 6.36637 96.5136 6.42242 97.0564 6.53454C97.5992 6.63063 98.126 6.76677 98.6368 6.94294L99.2594 7.18318L98.541 10.1622L97.7748 10.018C97.4395 9.93794 97.1123 9.88188 96.793 9.84985C96.4737 9.81782 96.1465 9.8018 95.8112 9.8018C95.2206 9.8018 94.7018 9.91391 94.2548 10.1381C93.8238 10.3463 93.4806 10.6667 93.2251 11.0991C92.9857 11.5155 92.866 12.0601 92.866 12.7327C92.866 13.3894 92.9937 13.9339 93.2491 14.3664C93.5045 14.7988 93.8557 15.1191 94.3027 15.3273C94.7497 15.5355 95.2605 15.6396 95.8352 15.6396C96.1225 15.6396 96.4338 15.6236 96.7691 15.5916C97.1203 15.5596 97.5194 15.5115 97.9663 15.4474L98.7805 15.3033L99.427 18.2583L98.7565 18.5225C98.1818 18.7467 97.5992 18.9069 97.0085 19.003C96.4338 19.1151 95.8831 19.1712 95.3563 19.1712Z" fill="#82B4BB"/>
<path d="M83.9682 19.1712C82.739 19.1712 81.6215 18.9229 80.6158 18.4264C79.6261 17.9299 78.8359 17.2092 78.2452 16.2643C77.6546 15.3033 77.3592 14.1421 77.3592 12.7808C77.3592 11.3874 77.6546 10.2182 78.2452 9.27327C78.8518 8.31231 79.65 7.59159 80.6398 7.11111C81.6455 6.61461 82.7709 6.36637 84.0161 6.36637C84.5748 6.36637 85.1255 6.42242 85.6683 6.53454C86.2111 6.63063 86.7379 6.76677 87.2487 6.94294L87.8713 7.18318L87.1529 10.1622L86.3867 10.018C86.0514 9.93794 85.7242 9.88188 85.4049 9.84985C85.0856 9.81782 84.7584 9.8018 84.4231 9.8018C83.8325 9.8018 83.3137 9.91391 82.8667 10.1381C82.4357 10.3463 82.0924 10.6667 81.837 11.0991C81.5976 11.5155 81.4778 12.0601 81.4778 12.7327C81.4778 13.3894 81.6056 13.9339 81.861 14.3664C82.1164 14.7988 82.4676 15.1191 82.9146 15.3273C83.3615 15.5355 83.8724 15.6396 84.4471 15.6396C84.7344 15.6396 85.0457 15.6236 85.3809 15.5916C85.7321 15.5596 86.1312 15.5115 86.5782 15.4474L87.3924 15.3033L88.0389 18.2583L87.3684 18.5225C86.7937 18.7467 86.2111 18.9069 85.6204 19.003C85.0457 19.1151 84.495 19.1712 83.9682 19.1712Z" fill="#82B4BB"/>
<path d="M59.9017 18.979L66.1754 2.16216H70.9645L77.31 18.979H72.7843L68.5939 6.55856H68.5221L64.2598 18.979H59.9017ZM64.6429 16.1201V12.8048H72.4731V16.1201H64.6429Z" fill="#82B4BB"/>
<path d="M42.7951 19.2192C41.0072 19.2192 39.4588 18.8589 38.1497 18.1381C36.8567 17.4014 35.859 16.3844 35.1566 15.0871C34.4542 13.7898 34.103 12.2763 34.103 10.5465C34.103 8.81682 34.4621 7.31131 35.1805 6.03003C35.9148 4.73273 36.9365 3.72372 38.2455 3.003C39.5545 2.28228 41.0711 1.92192 42.7951 1.92192C44.5831 1.92192 46.1236 2.29029 47.4166 3.02703C48.7256 3.74775 49.7313 4.75676 50.4337 6.05405C51.1361 7.33534 51.4873 8.84084 51.4873 10.5706C51.4873 12.3003 51.1202 13.8138 50.3858 15.1111C49.6675 16.4084 48.6538 17.4174 47.3448 18.1381C46.0358 18.8589 44.5192 19.2192 42.7951 19.2192ZM42.7951 15.3033C43.6891 15.3033 44.4554 15.1431 45.0939 14.8228C45.7484 14.4865 46.2592 13.966 46.6264 13.2613C46.9936 12.5566 47.1772 11.6517 47.1772 10.5465C47.1772 9.44144 47.0016 8.54454 46.6504 7.85585C46.2992 7.16717 45.7963 6.66266 45.1418 6.34234C44.4873 6.00601 43.7051 5.83784 42.7951 5.83784C41.9012 5.83784 41.1269 6.00601 40.4724 6.34234C39.8179 6.66266 39.3071 7.16717 38.9399 7.85585C38.5887 8.54454 38.4131 9.44945 38.4131 10.5706C38.4131 11.6757 38.5887 12.5806 38.9399 13.2853C39.2911 13.974 39.794 14.4865 40.4485 14.8228C41.103 15.1431 41.8852 15.3033 42.7951 15.3033Z" fill="#82B4BB"/>
<path d="M19.0114 18.979V2.16216H32.1334V5.81381H23.2257V8.74474H31.1756V12.0841H23.2257V15.3033H32.3011V18.979H19.0114Z" fill="#82B4BB"/>
<path d="M0 18.979V2.16216H3.73549L11.4699 11.5556H11.5177V2.16216H15.7082V18.979H12.2122L4.23834 9.22522H4.19045V18.979H0Z" fill="#82B4BB"/>
</svg>
