<svg width="216" height="214" viewBox="0 0 216 214" fill="none" xmlns="http://www.w3.org/2000/svg">
<path d="M108.368 213.449C107.009 213.449 105.651 213.144 104.592 212.529L1.6721 152.938C0.593326 152.314 0 151.473 0 150.563C0 149.663 0.578615 148.827 1.63287 148.207L103.901 88.6012C105.999 87.3865 109.304 87.3865 111.418 88.6012L214.343 148.207C215.412 148.832 216 149.678 216 150.583C216 151.483 215.416 152.319 214.362 152.938L112.109 212.544C111.055 213.149 109.711 213.449 108.363 213.449H108.368ZM107.657 88.3308C106.411 88.3308 105.166 88.6012 104.219 89.1521L1.9516 148.753C1.09839 149.255 0.62765 149.894 0.62765 150.558C0.62765 151.232 1.1082 151.881 1.98102 152.387L104.906 211.974C106.799 213.075 109.888 213.08 111.795 211.988L214.044 152.383C214.897 151.881 215.367 151.242 215.367 150.573C215.367 149.899 214.892 149.25 214.024 148.743L111.099 89.1373C110.148 88.5914 108.897 88.316 107.652 88.316L107.657 88.3308Z" fill="white"/>
<path d="M56.3073 109.291L72.4644 99.8781L55.8513 90.2585L39.6942 99.6716L56.3073 109.291Z" fill="black"/>
<path d="M60.24 114.898L76.3971 105.48C76.4854 105.425 76.5638 105.357 76.6325 105.273C76.9463 104.875 76.9757 104.176 76.7158 103.419L60.5587 112.837C60.8186 113.594 60.7892 114.293 60.4754 114.691C60.4067 114.779 60.3283 114.848 60.24 114.898Z" fill="black"/>
<path d="M60.5587 112.837L76.7109 103.419L71.4298 88.0601L55.2727 97.4731L60.5587 112.837Z" fill="black"/>
<path d="M68.3505 105.047L84.5027 95.629L84.5174 91.7241L68.3603 101.142L68.3505 105.047Z" fill="black"/>
<path d="M84.5172 91.7241L68.3602 101.142L52.5463 91.9798C52.0903 91.7143 51.6588 91.6798 51.3449 91.8618L67.4971 82.4488C67.811 82.2619 68.2474 82.3013 68.7034 82.5668L84.5172 91.7241Z" fill="black"/>
<path d="M52.5464 91.9847C51.9629 91.6453 51.4137 91.6797 51.1047 92.0732C50.7958 92.4765 50.7615 93.1748 51.0214 93.9322L56.3074 109.296L39.6943 99.6764L39.6844 103.581L59.0288 114.784C59.6222 115.129 60.1664 115.089 60.4754 114.696C60.7892 114.298 60.8186 113.599 60.5587 112.842L55.2776 97.478L68.3504 105.047L68.3602 101.142L52.5464 91.9847Z" fill="black"/>
<path d="M163.199 108.445L147.047 99.0273L163.655 89.4077L179.812 98.8257L163.199 108.445Z" fill="black"/>
<path d="M159.266 114.052L143.114 104.639C143.021 104.584 142.943 104.516 142.874 104.432C142.565 104.034 142.531 103.33 142.796 102.578L148.077 87.2141L164.234 96.632L158.948 111.991C158.688 112.748 158.717 113.447 159.031 113.845C159.1 113.934 159.178 114.002 159.266 114.052Z" fill="black"/>
<path d="M151.161 104.196L135.004 94.7779L134.994 90.8779L151.146 100.291L151.161 104.196Z" fill="black"/>
<path d="M168.171 91.0206C167.852 90.8337 167.421 90.8731 166.965 91.1387L151.151 100.296L134.994 90.8829L150.808 81.7256C151.264 81.4601 151.7 81.4256 152.014 81.6027L168.171 91.0206Z" fill="black"/>
<path d="M166.965 91.1338C167.548 90.7945 168.098 90.8289 168.407 91.2224C168.715 91.6256 168.75 92.324 168.49 93.0813L163.204 108.445L179.817 98.8256L179.827 102.73L160.482 113.934C159.889 114.278 159.345 114.239 159.036 113.845C158.722 113.447 158.693 112.748 158.953 111.991L164.234 96.6272L151.161 104.196L151.151 100.291L166.965 91.1338Z" fill="black"/>
<path d="M163.699 138.686L115.694 166.664C112.683 168.42 107.775 168.42 104.744 166.664L47.2162 133.35C45.6912 132.469 44.9312 131.309 44.9361 130.148V114.617C44.9361 115.778 45.6961 116.934 47.2162 117.814L104.744 151.123C107.78 152.884 112.683 152.884 115.694 151.123L172.849 117.809C174.345 116.938 175.095 115.793 175.1 114.652V130.192C175.1 131.333 174.345 132.479 172.849 133.35" fill="black"/>
<path d="M172.815 111.455C175.85 113.211 175.865 116.063 172.849 117.819L115.699 151.128C112.683 152.884 107.78 152.884 104.744 151.128L47.2211 117.819C44.1858 116.063 44.1711 113.211 47.1868 111.455L104.337 78.1454C107.353 76.3897 112.256 76.3897 115.292 78.1454L172.815 111.455Z" fill="black"/>
<path d="M141.148 129.322L114.149 145.055C111.957 146.333 108.387 146.333 106.176 145.055L64.2999 120.804C63.1868 120.16 62.6376 119.319 62.6376 118.473V95.8403C62.6376 96.6862 63.1917 97.5272 64.2999 98.1665L106.176 122.412C108.383 123.691 111.957 123.691 114.149 122.412L155.751 98.1616C156.839 97.5272 157.383 96.6961 157.388 95.8649V118.502C157.388 119.334 156.839 120.165 155.751 120.799L149.003 124.733" fill="black"/>
<path d="M155.726 93.5386C157.933 94.8173 157.947 96.8927 155.751 98.1714L114.149 122.417C111.957 123.696 108.383 123.696 106.176 122.417L64.3 98.1714C62.0934 96.8927 62.0787 94.8173 64.2754 93.5386L105.877 69.293C108.069 68.0143 111.643 68.0143 113.85 69.293L155.726 93.5386Z" fill="black"/>
<path d="M72.8419 34.9952V22.0166C72.8419 22.6805 73.2783 23.3395 74.1462 23.8412L107.005 42.8639C108.736 43.8672 111.54 43.8672 113.262 42.8639L145.909 23.8363C146.762 23.3395 147.194 22.6854 147.194 22.0314V96.0962C147.194 96.7503 146.762 97.3994 145.909 97.9011L113.262 116.929C111.54 117.932 108.741 117.932 107.005 116.929L74.1462 97.9011C73.2734 97.3994 72.8419 96.7355 72.8419 96.0716V50.5114" fill="black"/>
<path d="M129.443 10.6854L145.885 20.2066C147.616 21.2099 147.625 22.8378 145.904 23.841L113.262 42.8687C111.54 43.872 108.741 43.872 107.005 42.8687L74.1462 23.841C72.4153 22.8378 72.4055 21.2099 74.1266 20.2066L106.769 1.17896C108.49 0.175697 111.29 0.175697 113.026 1.17896L120.283 5.37892" fill="black"/>
<path d="M68.625 164.495L52.4679 155.082L47.1182 145.881L63.2753 155.294L68.625 164.495Z" fill="black"/>
<path d="M47.3584 158.043L52.4678 155.082L68.6249 164.495L52.0216 174.11L35.8645 164.697L41.3564 161.515" fill="black"/>
<path d="M52.0314 178.015L35.8743 168.597L35.8645 164.697L52.0216 174.11L52.0314 178.015Z" fill="black"/>
<path d="M64.7854 151.591L48.6284 142.173L64.4422 133.02L80.5944 142.433L64.7854 151.591Z" fill="black"/>
<path d="M63.2751 155.294L47.118 145.876C46.8532 145.423 46.8777 144.691 47.1866 143.933C47.4956 143.181 48.0399 142.517 48.6283 142.173L64.7854 151.591C64.192 151.935 63.6527 152.599 63.3437 153.351C63.0397 154.109 63.0103 154.841 63.2751 155.294Z" fill="black"/>
<path d="M80.5944 142.433C80.4669 143.717 80.4522 145.015 80.6042 146.338L67.5265 153.912L72.8811 163.113C73.141 163.566 73.1165 164.299 72.8125 165.056C72.5085 165.809 71.9593 166.472 71.3757 166.812L52.0314 178.015L52.0215 174.11L68.6249 164.495L63.2751 155.294C63.0103 154.841 63.0348 154.109 63.3438 153.351C63.6527 152.599 64.197 151.935 64.7854 151.591L80.5993 142.433H80.5944Z" fill="black"/>
<path d="M144.639 168.051L160.796 158.638L166.151 149.437L149.994 158.85L144.639 168.051Z" fill="black"/>
<path d="M161.247 177.666L177.4 168.253L160.796 158.638L144.639 168.051L161.247 177.666Z" fill="black"/>
<path d="M161.233 181.571L177.39 172.153L177.4 168.253L161.247 177.666L161.233 181.571Z" fill="black"/>
<path d="M148.484 155.146L164.641 145.729L148.827 136.576L132.67 145.989L148.484 155.146Z" fill="black"/>
<path d="M149.994 158.85L166.151 149.432C166.416 148.979 166.391 148.247 166.082 147.489C165.773 146.737 165.229 146.073 164.641 145.729L148.484 155.146C149.077 155.491 149.616 156.155 149.925 156.907C150.229 157.664 150.259 158.397 149.994 158.85Z" fill="black"/>
<path d="M132.67 145.989C132.832 147.44 132.866 148.778 132.66 149.894L145.738 157.468L140.383 166.669C140.123 167.122 140.148 167.854 140.452 168.612C140.756 169.364 141.305 170.028 141.888 170.367L161.233 181.571L161.243 177.666L144.639 168.051L149.989 158.85C150.254 158.397 150.229 157.664 149.92 156.907C149.611 156.154 149.067 155.491 148.479 155.146L132.665 145.989H132.67Z" fill="black"/>
<path d="M55.0718 98.2066C54.4435 96.4096 55.4596 99.393 55.0718 98.2066V98.2066Z" fill="white"/>
<path d="M180.234 98.8256C180.234 98.6731 180.155 98.5354 180.023 98.4568L169.083 92.0781C169.073 91.4536 168.853 90.8831 168.289 90.6027L152.225 81.234C151.774 80.9733 151.18 81.0176 150.597 81.3569L147.616 83.0831V22.0362C147.616 22.0362 147.616 22.0362 147.616 22.0313C147.616 21.1854 147.076 20.4084 146.1 19.8428L129.659 10.3216C129.458 10.2036 129.198 10.2724 129.085 10.4741C128.968 10.6757 129.036 10.9314 129.237 11.0495L145.679 20.5707C147.125 21.4067 147.145 22.6313 145.698 23.4723C136.808 28.646 113.301 42.3819 112.737 42.6524C111.173 43.4 108.888 43.3754 107.368 42.5737C106.882 42.318 98.1636 37.2574 74.3619 23.4772C72.9252 22.6461 72.8909 21.4166 74.3423 20.5707L106.985 1.54302C108.589 0.6086 111.207 0.6086 112.82 1.54302L120.077 5.74297C120.278 5.861 120.533 5.79215 120.651 5.59052C120.769 5.38888 120.7 5.13314 120.499 5.01511L113.242 0.815155C111.364 -0.271718 108.432 -0.271718 106.563 0.815155L73.9206 19.8428C72.9546 20.4035 72.425 21.1805 72.425 22.0215C72.425 22.0264 72.425 22.0313 72.425 22.0362V34.9951C72.425 35.2263 72.6114 35.4181 72.8468 35.4181C73.0821 35.4181 73.2685 35.2312 73.2685 34.9951V23.7231C73.3469 23.7969 73.6558 24.0379 73.9402 24.2051L106.799 43.2278C108.598 44.2704 111.359 44.3098 113.227 43.3557C113.541 43.1983 146.105 24.2051 146.149 24.1805C146.419 24.0182 146.552 23.9198 146.777 23.728V96.0961C146.777 96.6224 146.395 97.1338 145.703 97.5371L113.056 116.565C111.452 117.499 108.839 117.499 107.22 116.565L74.3619 97.5371C73.6558 97.1289 73.2685 96.6076 73.2685 96.0715V50.5114C73.2685 50.2802 73.0821 50.0884 72.8468 50.0884C72.6114 50.0884 72.425 50.2753 72.425 50.5114V84.229L68.9141 82.1979C68.3306 81.8586 67.7324 81.8192 67.2862 82.0848C49.7365 92.3486 51.0555 91.4585 50.7711 91.8126C50.5505 92.0978 50.4328 92.4863 50.4279 92.924L39.493 99.3027C39.3949 99.3518 39.3018 99.4649 39.2773 99.6518C39.2773 99.7649 39.2675 103.66 39.2675 103.571C39.2675 103.719 39.3459 103.862 39.4783 103.94L49.3883 109.68L46.9758 111.086C45.387 112.011 44.5142 113.265 44.5142 114.622C44.5142 114.632 44.5142 114.637 44.5142 114.647V130.148C44.5093 131.52 45.392 132.784 47.0052 133.719L54.6939 138.174L48.4125 141.809C46.9758 142.64 46.049 144.887 46.7502 146.092L51.8891 154.93L47.1425 157.679C46.9415 157.797 46.8728 158.053 46.9905 158.254C47.1082 158.456 47.3632 158.525 47.5642 158.407L52.4677 155.569L57.2879 158.377L67.7814 164.495L52.0166 173.623L47.1964 170.815L36.7029 164.697L41.5623 161.884C41.7633 161.766 41.832 161.51 41.7143 161.309C41.5966 161.107 41.3416 161.038 41.1406 161.156L35.6487 164.333C35.5114 164.412 35.4378 164.559 35.4378 164.697L35.4476 168.602C35.4476 168.754 35.5261 168.892 35.6585 168.966L51.8156 178.384C51.9431 178.458 52.1049 178.458 52.2373 178.384L71.5816 167.181C72.9939 166.364 73.9451 164.131 73.2439 162.902L68.1001 154.064L75.1171 150.002L104.528 167.033C106.102 167.943 108.162 168.395 110.221 168.395C112.281 168.395 114.335 167.938 115.9 167.028L138.578 153.809L145.154 157.615L140.01 166.453C139.299 167.692 140.275 169.92 141.673 170.726L161.017 181.93C161.154 182.008 161.311 182.003 161.439 181.93L177.596 172.512C177.723 172.438 177.807 172.3 177.807 172.148L177.816 168.243C177.816 168.115 177.748 167.958 177.606 167.879L161.365 158.476L166.504 149.643C167.22 148.419 166.254 146.176 164.842 145.36L158.938 141.942L163.905 139.045C164.106 138.927 164.175 138.671 164.057 138.469C163.939 138.268 163.684 138.199 163.483 138.317L158.099 141.455L149.033 136.202C148.9 136.128 148.743 136.124 148.611 136.202C144.973 138.322 136.083 143.505 132.444 145.625C132.41 145.669 132.219 145.758 132.248 146.028C132.425 147.612 132.42 148.846 132.243 149.81C132.209 149.987 132.292 150.164 132.444 150.253L137.74 153.322L115.478 166.295C112.585 167.982 107.863 167.977 104.95 166.295L75.9605 149.51L80.8101 146.702C80.9572 146.619 81.0356 146.456 81.016 146.289C80.8738 145.064 80.8738 143.815 81.0062 142.473C81.0062 142.428 81.0111 142.192 80.8003 142.064L64.6432 132.647C64.5108 132.568 64.3539 132.568 64.2215 132.647L55.5324 137.678L47.422 132.981C46.0833 132.209 45.3478 131.201 45.3527 130.143V116.82C45.7156 117.263 46.3187 117.78 47.0052 118.178C47.0493 118.202 104.273 151.35 104.793 151.625C107.833 153.238 112.477 153.258 115.532 151.684C116.008 151.438 149.729 131.771 173.055 118.178C173.604 117.858 174.261 117.347 174.673 116.84V130.192C174.673 131.23 173.943 132.219 172.633 132.986C172.432 133.104 172.364 133.36 172.481 133.561C172.599 133.763 172.854 133.832 173.055 133.714C174.634 132.789 175.507 131.54 175.517 130.192V114.652C175.517 114.652 175.517 114.647 175.517 114.642C175.517 113.28 174.629 112.016 173.021 111.086L169.628 109.119L180.033 103.094C180.165 103.021 180.244 102.878 180.244 102.726L180.229 98.8207L180.234 98.8256ZM176.968 171.912L161.654 180.838C161.654 180.764 161.664 177.72 161.664 177.912L176.978 168.986L176.968 171.912ZM166.068 174.371L161.247 177.179C159.752 176.313 147.253 169.074 145.483 168.051C149.067 165.961 157.432 161.087 160.801 159.125L176.566 168.253L166.072 174.371H166.068ZM160.487 158.328L145.806 166.886C146.277 166.079 149.827 159.966 150.298 159.159L164.979 150.602L160.487 158.328ZM165.827 149.132C160.835 152.043 153.73 156.184 150.592 158.014C150.568 156.976 149.969 155.859 149.244 155.191L164.626 146.225C165.631 146.973 166.112 148.443 165.832 149.132H165.827ZM148.827 137.063L163.797 145.733C160.213 147.823 151.847 152.697 148.479 154.659L133.508 145.989L148.827 137.063ZM133.165 146.766L148.273 155.515C149.415 156.179 150.033 157.945 149.631 158.643L144.281 167.845C144.164 168.046 144.242 168.312 144.433 168.42L160.826 177.912C160.826 177.971 160.816 181.035 160.816 180.843L142.099 170.004C140.962 169.345 140.344 167.579 140.746 166.881L146.1 157.679C146.218 157.477 146.149 157.217 145.948 157.099L133.126 149.673C133.243 148.866 133.258 147.907 133.17 146.761L133.165 146.766ZM48.643 142.669L64.0253 151.635C63.2898 152.309 62.7014 153.425 62.6769 154.458C57.8469 151.645 55.1794 150.086 47.4416 145.576C47.1572 144.892 47.6378 143.417 48.6479 142.669H48.643ZM62.9662 155.604L66.585 161.825L67.4578 163.325L52.7766 154.768L48.285 147.041L62.9662 155.599V155.604ZM36.2959 168.356L36.2861 165.43L51.5998 174.356L51.6096 177.282L36.2959 168.356ZM67.3205 153.543C67.2224 153.597 67.1538 153.691 67.1243 153.799C67.0949 153.907 67.1096 154.025 67.1685 154.118L72.5231 163.32C72.935 164.033 72.2878 165.799 71.1698 166.443L52.453 177.282L52.4432 174.351L68.8357 164.859C69.0269 164.746 69.1054 164.486 68.9877 164.284L63.633 155.082C63.2162 154.369 63.8733 152.604 64.9913 151.955L80.1089 143.201C80.05 144.204 80.0647 145.163 80.1579 146.107L67.3156 153.543H67.3205ZM64.4372 133.507L79.7558 142.433L64.7854 151.104C61.4068 149.137 53.0414 144.258 49.4668 142.178L64.4372 133.507ZM168.951 92.983L178.969 98.8207L165.406 106.675L164.44 106.119C169.132 92.4667 168.907 93.1552 168.946 92.983H168.951ZM168.196 92.5404C168.034 93.3765 164.749 102.637 163.699 105.691L161.914 104.658C162.468 103.05 164.611 96.8092 164.626 96.7699C164.749 96.406 164.361 96.0666 164.008 96.2732C164.008 96.2732 164.013 96.2732 164.018 96.2732C162.135 97.365 161.782 97.5715 157.81 99.8682V96.9322C162.728 94.0847 160.84 95.1814 167.166 91.5175C168.024 90.9765 168.357 91.6945 168.191 92.5552L168.196 92.5404ZM163.439 97.6404C163.38 97.8076 162.998 98.9141 161.174 104.226L157.815 102.278V100.827C159.026 100.124 160.831 99.0813 163.469 97.5518C163.4 97.7486 163.425 97.6797 163.439 97.6355V97.6404ZM147.611 84.0569L151.014 82.0897C151.323 81.9077 151.622 81.8684 151.798 81.9668L166.828 90.7306C166.788 90.7454 160.566 94.3503 157.81 95.9437C157.79 95.8847 158.001 94.3699 155.932 93.1749L147.606 88.3552V84.0618L147.611 84.0569ZM73.9353 98.2699L106.794 117.298C108.677 118.384 111.609 118.379 113.472 117.298L146.12 98.2699C147.081 97.7092 147.611 96.9371 147.616 96.101V89.3241L155.52 93.9027C157.467 95.0289 157.437 96.701 155.545 97.8027C128.453 113.589 113.909 122.078 113.59 122.235C111.619 123.199 108.716 123.194 106.73 122.23C106.367 122.053 64.5549 97.8273 64.5108 97.8027C62.6327 96.7158 62.5297 95.0437 64.4862 93.9027L72.4201 89.2798V96.0765C72.4201 96.9273 72.9546 97.7043 73.9353 98.2748V98.2699ZM67.7079 82.8176C67.8844 82.7094 68.1786 82.7536 68.4924 82.9356L72.425 85.2126V88.306L64.0695 93.1749C62.8779 93.8683 62.2208 94.8175 62.2208 95.8502C62.2208 95.8551 62.2208 95.8601 62.2208 95.8699V97.1043C57.842 94.5666 52.7276 91.606 52.7521 91.6208C52.7423 91.6158 52.6835 91.5814 52.6786 91.5765L67.7079 82.8176ZM52.3353 92.3486C52.5168 92.4568 55.2382 94.0306 62.2257 98.0781V101.014C58.906 99.0912 55.5128 97.1289 55.4883 97.1141C55.1549 96.9174 54.7528 97.242 54.8803 97.6158C54.9685 97.8764 55.0323 98.0682 55.0764 98.2059C55.3755 99.0617 56.0473 101.004 57.4203 105.003L55.6354 106.045C54.0712 101.511 51.3497 93.5978 51.3154 93.3912C51.0947 92.2945 51.4429 92.1027 52.3353 92.3486ZM56.0424 98.4076C56.0424 98.4076 59.1659 100.217 62.2257 101.988V102.204L58.1607 104.575C57.7341 103.335 57.5184 102.706 57.4301 102.455C57.7439 103.36 59.465 108.366 56.0424 98.4076ZM50.5554 93.8339C50.5701 93.9125 50.5995 93.9912 50.624 94.0699L54.8901 106.473L53.5906 107.23L40.5375 99.6715L50.5554 93.8339ZM40.106 103.335L40.1158 100.409L52.7521 107.727L50.2268 109.198L40.1109 103.335H40.106ZM172.604 111.819C175.404 113.442 175.32 115.881 172.638 117.45C134.837 139.473 115.449 150.799 115.002 151.015C112.212 152.377 108.093 152.358 105.323 150.951C104.823 150.7 47.471 117.475 47.4269 117.45C44.6907 115.866 44.6466 113.417 47.3926 111.819L62.2208 103.178V118.478C62.2208 119.52 62.8828 120.475 64.094 121.178L105.97 145.428C108.294 146.776 112.06 146.771 114.365 145.428L141.364 129.691C141.565 129.573 141.633 129.317 141.516 129.115C141.398 128.914 141.143 128.845 140.942 128.963L113.943 144.701C111.869 145.91 108.481 145.91 106.392 144.701L64.5157 120.45C63.5791 119.909 63.0642 119.211 63.0642 118.483V97.7535C63.3486 98.0486 63.7507 98.3436 64.094 98.5404C64.143 98.565 105.73 122.653 106.102 122.855C108.338 124.075 111.795 124.104 114.071 122.938C114.424 122.757 138.735 108.573 155.966 98.5354C156.334 98.3191 156.731 98.0141 156.972 97.7633V118.507C156.972 119.22 156.462 119.904 155.545 120.44L148.797 124.375C148.596 124.493 148.528 124.748 148.645 124.95C148.763 125.152 149.018 125.22 149.219 125.102L155.966 121.168C157.153 120.475 157.81 119.53 157.815 118.507V103.252L172.604 111.814V111.819ZM168.784 108.632L166.249 107.167L179.39 99.5584L179.4 102.485L168.784 108.632Z" fill="white"/>
<path d="M91.5146 57.7113C90.1662 58.9162 88.9648 60.2638 87.9056 61.749C87.6997 62.0391 87.4594 62.2998 87.1897 62.5359C78.0447 70.4981 76.9463 86.4913 86.5228 86.9979C87.3908 87.0422 88.1851 87.5045 88.6951 88.2126C91.3234 91.8864 94.4469 94.2863 98.4776 94.3503C99.1543 94.3601 99.8212 94.4978 100.429 94.7978C108.108 98.6338 116.41 97.5617 125.202 92.629C125.658 92.3733 126.163 92.1962 126.683 92.1421C130.463 91.7241 133.778 90.1011 136.382 86.6536C141.776 80.098 140.976 72.0767 137.083 64.6801C131.802 55.2327 125.359 51.8589 117.915 53.6638C117.395 53.7917 116.846 53.6638 116.434 53.3196C112.977 50.472 109.501 50.0294 105.112 50.9491C101.665 51.7999 98.5757 52.995 95.8739 54.5638" fill="black"/>
<path d="M137.451 64.4735C133.003 56.5113 126.697 51.1015 117.817 53.2556C117.43 53.349 117.013 53.2556 116.699 52.9949C113.379 50.2556 109.888 49.5179 105.009 50.5408C101.812 51.3277 98.5658 52.513 95.658 54.1998C95.457 54.3179 95.3883 54.5736 95.506 54.7752C95.6237 54.9769 95.8787 55.0457 96.0797 54.9277C97.9627 53.8359 100.076 52.9162 102.376 52.1687C102.788 52.7195 103.773 54.3424 102.935 56.4621C102.847 56.6785 102.954 56.9244 103.17 57.008C103.219 57.0277 103.273 57.0375 103.327 57.0375C103.494 57.0375 103.651 56.9391 103.719 56.7719C104.617 54.5097 103.778 52.7392 103.224 51.9031C108.172 50.4179 112.173 50.354 116.165 53.6441C116.174 53.649 116.184 53.6588 116.189 53.6638C101.528 59.5899 91.8823 70.7242 87.5035 86.7814C87.1946 86.6634 86.8758 86.5896 86.5473 86.57C83.0168 86.3831 81.4869 84.0471 80.8298 82.1192C80.2316 80.3733 80.0943 78.1651 80.4375 75.7996C81.6389 77.1225 83.5758 77.6094 86.1795 76.2078C86.3855 76.0996 86.459 75.8439 86.3512 75.6373C86.2433 75.4307 85.9883 75.357 85.7823 75.4652C84.4437 76.1881 83.2717 76.3848 82.2959 76.0553C81.325 75.7258 80.8053 74.9439 80.6386 74.6488C81.3447 71.2062 83.0364 67.5423 85.7676 64.5227C85.9834 65.1522 86.4198 66.0325 87.2583 66.6276C87.8565 67.0505 88.5626 67.262 89.3619 67.262C89.7003 67.262 90.0582 67.2226 90.4309 67.1489C90.6564 67.1046 90.8035 66.8784 90.7594 66.6521C90.7153 66.4259 90.4897 66.2784 90.2642 66.3226C89.2491 66.5292 88.4057 66.4013 87.7536 65.944C86.8758 65.3243 86.5473 64.262 86.4443 63.8243C87.4593 62.8063 87.7536 62.7079 88.2586 61.9948C89.2835 60.5489 90.475 59.2112 91.8039 58.026C91.9755 57.8686 91.9902 57.6031 91.8382 57.4309C91.6813 57.2588 91.4165 57.2441 91.2449 57.3965C89.8719 58.626 88.6362 60.008 87.577 61.5079C87.3956 61.7686 87.1749 62.0047 86.9298 62.221C80.1923 68.0833 78.3094 77.3291 80.0452 82.4044C81.0995 85.4782 83.3943 87.2585 86.5179 87.4257C87.2387 87.465 87.9301 87.8536 88.3714 88.4683C91.3724 92.6584 94.6822 94.724 98.4874 94.783C99.1444 94.7928 99.7378 94.9305 100.258 95.1863C103.381 96.7453 106.681 97.5272 110.138 97.5272C114.944 97.5272 120.053 96.0174 125.417 93.0076C125.849 92.7666 126.29 92.6191 126.737 92.5699C130.517 92.1519 133.543 90.6076 135.94 87.8732C135.94 87.8683 135.95 87.8634 135.955 87.8585C136.215 87.5634 136.47 87.2536 136.715 86.929C142.168 80.3045 141.427 72.0177 137.461 64.4833L137.451 64.4735ZM135.509 87.0667C134.533 86.5847 131.321 84.7897 131.826 82.2471C131.871 82.0159 131.723 81.7946 131.498 81.7504C131.267 81.7061 131.047 81.8536 131.003 82.0799C130.409 85.0602 133.611 87.0421 134.925 87.7159C132.724 90.0322 129.997 91.3502 126.638 91.7191C126.393 91.7437 126.148 91.8027 125.908 91.8716C125.364 91.4044 123.652 89.7126 124.505 87.7454C124.599 87.5339 124.501 87.2831 124.285 87.1896C124.074 87.0962 123.824 87.1946 123.731 87.4109C122.873 89.3929 124.025 91.2322 125.05 92.2306C125.035 92.2404 125.015 92.2453 125.001 92.2552C115.905 97.36 107.932 98.0633 100.62 94.4142C100.586 94.3994 100.552 94.3846 100.517 94.3699C101.268 93.6076 102.43 91.9601 101.881 89.3978C101.832 89.1716 101.606 89.024 101.38 89.0732C101.155 89.1224 101.008 89.3486 101.057 89.5749C101.616 92.1814 100.101 93.6568 99.6152 94.0551C99.2572 93.9715 98.8796 93.9273 98.4825 93.9174C94.9617 93.8633 91.8725 91.9109 89.0383 87.9568C88.8225 87.6568 88.5577 87.3962 88.2635 87.1847C92.6277 70.9996 102.4 59.8702 117.322 54.1113C117.552 54.131 117.783 54.1211 118.013 54.067C123.054 52.8425 127.472 54.0474 131.37 57.7211C130.679 58.5178 128.463 60.785 125.874 60.3916C125.643 60.362 125.427 60.5145 125.393 60.7457C125.359 60.9768 125.516 61.1883 125.746 61.2276C125.996 61.267 126.241 61.2817 126.482 61.2817C129.125 61.2817 131.218 59.1817 131.973 58.3162C133.896 60.2883 135.774 63.062 136.828 65.103C136.2 65.8456 133.842 68.3439 131.63 66.9964C131.429 66.8735 131.174 66.9374 131.052 67.139C130.929 67.3357 130.993 67.5964 131.194 67.7194C131.812 68.098 132.43 68.2505 133.023 68.2505C134.881 68.2505 136.495 66.7407 137.24 65.9194C139.996 71.6242 141.736 79.4782 136.048 86.388C135.872 86.6191 135.695 86.8405 135.509 87.0569V87.0667Z" fill="white"/>
<path d="M121.622 61.4933C119.342 60.9572 117.739 61.1933 116.861 62.2064C115.449 63.8293 116.547 66.7703 116.596 66.8932C116.66 67.0604 116.822 67.1637 116.988 67.1637C117.037 67.1637 117.091 67.1539 117.14 67.1342C117.356 67.0506 117.464 66.8047 117.381 66.5883C117.106 65.8752 116.591 63.79 117.493 62.7572C118.15 61.9998 119.474 61.8523 121.431 62.3146C121.656 62.3638 121.882 62.2261 121.936 61.9998C121.99 61.7736 121.848 61.5474 121.622 61.4933Z" fill="white"/>
<path d="M96.4867 62.8899C96.2857 63.008 96.217 63.2637 96.3298 63.4653C96.4083 63.603 96.5505 63.6768 96.6976 63.6768C96.7662 63.6768 96.8398 63.6571 96.9035 63.6227C98.9385 62.4571 99.9486 61.1883 99.9045 59.8457C99.8358 57.6916 97.031 56.29 96.9133 56.2359C96.7025 56.1326 96.4524 56.2211 96.3494 56.4277C96.2465 56.6392 96.3347 56.89 96.5407 56.9933C97.2272 57.3277 99.017 58.5031 99.0611 59.8752C99.0954 60.8785 98.2275 61.8916 96.4818 62.8899H96.4867Z" fill="white"/>
<path d="M127.717 72.111C127.501 72.1946 127.394 72.4405 127.477 72.6569C127.752 73.37 128.266 75.4552 127.364 76.488C126.707 77.2454 125.383 77.3929 123.427 76.9306C123.201 76.8765 122.975 77.0191 122.922 77.2454C122.868 77.4716 123.01 77.6978 123.235 77.7519C124.025 77.9388 124.736 78.0322 125.359 78.0322C126.54 78.0322 127.423 77.7027 127.997 77.0437C129.409 75.4208 128.311 72.4798 128.261 72.3569C128.178 72.1405 127.938 72.0323 127.717 72.1159V72.111Z" fill="white"/>
<path d="M119.17 70.1391C118.955 70.2227 118.847 70.4686 118.93 70.685C119.205 71.3981 119.715 73.4833 118.817 74.5161C118.16 75.2685 116.836 75.421 114.88 74.9587C114.654 74.9095 114.429 75.0472 114.375 75.2734C114.321 75.4997 114.463 75.7259 114.689 75.78C115.478 75.9669 116.189 76.0603 116.812 76.0603C117.994 76.0603 118.876 75.7308 119.45 75.0718C120.862 73.4489 119.764 70.5079 119.715 70.385C119.631 70.1686 119.386 70.0604 119.17 70.144V70.1391Z" fill="white"/>
<path d="M106.882 73.6161C106.132 73.7538 103.994 73.8669 103.151 72.7898C102.533 72.003 102.636 70.6702 103.45 68.8309C103.543 68.6194 103.45 68.3686 103.234 68.2751C103.023 68.1817 102.773 68.2751 102.68 68.4915C101.729 70.6407 101.66 72.2636 102.489 73.3161C103.293 74.3439 104.739 74.5505 105.784 74.5505C106.465 74.5505 106.98 74.4619 107.034 74.4521C107.265 74.4128 107.417 74.1915 107.373 73.9603C107.333 73.7292 107.113 73.5767 106.882 73.621V73.6161Z" fill="white"/>
<path d="M112.335 82.4783C110.359 83.3242 110.069 86.452 110.06 86.5848C110.04 86.816 110.212 87.0225 110.442 87.0422C110.457 87.0422 110.467 87.0422 110.476 87.0422C110.692 87.0422 110.878 86.875 110.893 86.6586C110.893 86.6291 111.148 83.8996 112.658 83.2553C113.575 82.8668 114.836 83.3094 116.395 84.5783C116.576 84.7258 116.841 84.6963 116.988 84.5143C117.135 84.3324 117.106 84.0668 116.925 83.9193C115.105 82.4389 113.556 81.9521 112.33 82.4783H112.335Z" fill="white"/>
<path d="M94.7951 79.7044C94.5646 79.7142 94.3832 79.906 94.3881 80.1372C94.3979 80.3683 94.594 80.565 94.8245 80.5453C95.5894 80.5208 97.7176 80.7175 98.3991 81.9076C98.8944 82.7781 98.6002 84.0814 97.5263 85.783C97.4037 85.9797 97.4626 86.2404 97.6587 86.3633C97.7274 86.4076 97.8058 86.4273 97.8843 86.4273C98.0216 86.4273 98.1589 86.3584 98.2422 86.2305C99.4975 84.2437 99.7966 82.6502 99.1347 81.4847C98.0657 79.6109 94.9373 79.6896 94.8049 79.6945L94.7951 79.7044Z" fill="white"/>
</svg>
