<svg width="216" height="216" viewBox="0 0 216 216" fill="none" xmlns="http://www.w3.org/2000/svg">
<g clip-path="url(#clip0_254_880)">
<path d="M60.3513 116.974L73.0522 109.603C73.1363 109.771 73.2625 109.982 73.3887 110.15L60.3513 117.69V116.974Z" fill="black"/>
<path d="M1.68222 150.881L43.1495 126.915V127.631L1.97662 151.429C1.09344 151.934 0.630829 152.566 0.630829 153.24C0.630829 153.914 1.09344 154.546 1.93457 155.051L104.215 214.568C106.107 215.663 109.22 215.663 111.112 214.568L213.981 155.051C214.864 154.546 215.327 153.914 215.327 153.24C215.327 152.566 214.864 151.934 214.023 151.429L182.103 132.854V132.138L214.36 150.881C215.411 151.513 216 152.356 216 153.24C216 154.125 215.411 155.009 214.318 155.599L111.407 215.074C110.355 215.705 109.009 216 107.621 216C106.234 216 104.93 215.705 103.878 215.116L1.64017 155.599C0.58876 154.967 0 154.125 0 153.24C0.0420532 152.356 0.58876 151.513 1.68222 150.881Z" fill="white"/>
<path d="M174.448 76.875L182.229 72.326L79.3594 12.8513L71.579 17.3583L174.448 76.875Z" fill="black"/>
<path d="M174.446 75.4429L174.488 68.7878L174.446 75.4429Z" fill="black"/>
<path d="M182.185 101.642L182.27 72.3259L174.489 76.875L174.237 162.633C174.237 164.571 173.564 165.918 172.47 166.55L180.251 162.001C181.344 161.369 182.017 160.022 182.017 158.084L182.143 115.5" fill="black"/>
<path d="M174.447 76.8749L71.5781 17.3582L71.3258 103.116C71.3258 107.033 74.0174 111.751 77.4239 113.731L168.055 166.087C171.419 168.024 174.195 166.508 174.195 162.591L174.447 76.8749Z" fill="black"/>
<path d="M77.7612 5.77484C74.3547 3.79516 71.6211 5.35363 71.6211 9.27087L71.579 17.3581L174.448 76.8749L174.49 68.7877C174.49 64.8704 171.757 60.1529 168.392 58.1732L77.7612 5.77484Z" fill="black"/>
<path d="M98.9564 9.01823L85.5405 1.26799C83.8162 0.257093 82.3022 0.172852 81.1667 0.804665L73.3863 5.35372C74.5219 4.7219 76.0359 4.80615 77.7602 5.77493L168.391 58.1733C171.756 60.1108 174.531 64.8705 174.489 68.7456L174.447 75.4007V76.8328L182.227 72.2838L182.27 64.1966C182.27 60.2793 179.536 55.5618 176.171 53.6242L107.83 14.0727" fill="black"/>
<path d="M162.63 60.1951C161.116 59.3105 159.938 60.0687 159.938 61.7957C159.938 63.5226 161.116 65.5866 162.63 66.4711C164.144 67.3556 165.363 66.6817 165.363 64.9547C165.363 63.1857 164.102 61.0796 162.63 60.1951Z" fill="black"/>
<path d="M152.116 54.1297C150.602 53.2451 149.424 54.0033 149.424 55.7302C149.424 57.4572 150.602 59.5211 152.116 60.4057C153.63 61.2902 154.85 60.6163 154.85 58.8893C154.85 57.1624 153.63 54.9721 152.116 54.1297Z" fill="black"/>
<path d="M141.602 48.0642C140.088 47.1797 138.911 47.9379 138.911 49.6648C138.911 51.3918 140.088 53.4557 141.602 54.3402C143.116 55.2248 144.336 54.5508 144.336 52.8239C144.336 51.0969 143.116 48.9066 141.602 48.0642Z" fill="black"/>
<path d="M71.7891 87.9106L71.747 103.116C71.747 106.865 74.3966 111.456 77.6349 113.352L168.266 165.75C169.78 166.634 171.168 166.761 172.219 166.171C172.303 166.129 172.429 166.045 172.513 165.961C172.555 165.961 172.555 165.918 172.597 165.918C173.397 165.244 173.817 164.107 173.817 162.591L174.069 77.0855L71.9994 18.1163L71.9573 30.8368C71.7891 30.8368 71.6629 30.7947 71.4947 30.7947H71.1162C71.1582 20.8121 71.1582 12.8091 71.1582 9.27094C71.1582 7.24914 71.8732 5.73279 73.1349 4.97461L80.9573 0.46768C82.261 -0.290495 83.9853 -0.122012 85.7517 0.93101L99.1676 8.63913C99.3779 8.76549 99.4199 9.01822 99.3358 9.22882C99.2517 9.43942 98.9573 9.48155 98.747 9.3973L85.3311 1.64706C83.8171 0.762527 82.4293 0.594043 81.3779 1.18374L75.5741 4.5534C76.247 4.63765 77.0881 4.93249 77.9713 5.39582L168.602 57.8363C172.093 59.8581 174.953 64.7862 174.911 68.7877C174.911 69.3774 174.869 74.7268 174.869 76.1168L181.808 72.0732C181.808 70.1777 181.808 66.2605 181.85 64.2387C181.85 60.4899 179.2 55.8987 175.962 54.0033L107.579 14.4939C107.369 14.3676 107.326 14.1148 107.411 13.9042C107.537 13.6936 107.789 13.6515 107.999 13.7358L176.383 53.2872C179.873 55.309 182.733 60.2372 182.691 64.2387C182.607 91.0697 182.565 101.516 182.565 101.642C182.565 101.895 182.397 102.063 182.144 102.063C181.892 102.063 181.724 101.853 181.724 101.642L181.808 73.0419L174.869 77.0855L174.616 162.591C174.616 163.096 174.574 163.56 174.49 164.023V164.065C174.448 164.276 174.406 164.444 174.322 164.655C174.322 164.697 174.28 164.739 174.28 164.739C174.238 164.823 174.238 164.95 174.196 165.034L179.999 161.664C181.009 161.075 181.555 159.811 181.555 158.084L181.682 115.5C181.682 115.247 181.85 115.079 182.102 115.079C182.354 115.079 182.523 115.289 182.523 115.5L182.439 158.084C182.439 160.106 181.724 161.622 180.462 162.38L172.682 166.887C172.135 167.182 171.546 167.351 170.873 167.351C169.948 167.351 168.939 167.056 167.929 166.466L77.2984 114.068C73.7237 112.004 70.948 107.202 70.99 103.116C70.99 103.032 70.99 96.756 71.0321 87.4473C71.2423 87.6157 71.4947 87.7842 71.7891 87.9106ZM174.069 68.872V68.7877C174.069 65.039 171.42 60.4478 168.182 58.5523L77.5508 6.154C74.5227 4.42704 72.0414 5.60643 72.0414 9.31306L71.9994 17.1475L174.027 76.1168C174.069 70.8095 174.069 69.2932 174.069 68.872Z" fill="white"/>
<path d="M162.841 59.8161C164.481 60.7428 165.785 63.0594 165.785 64.9127C165.785 66.9345 164.229 67.8612 162.421 66.8082C160.78 65.8815 159.519 63.6491 159.519 61.7958C159.477 59.7319 161.033 58.8052 162.841 59.8161ZM162.799 66.05C164.019 66.7239 164.902 66.3448 164.902 64.9127C164.902 63.3543 163.766 61.3325 162.379 60.5322C161.159 59.8161 160.318 60.3637 160.318 61.7537C160.318 63.3543 161.453 65.2918 162.799 66.05Z" fill="white"/>
<path d="M152.326 53.7507C153.966 54.6773 155.27 56.994 155.27 58.8473C155.27 60.8691 153.713 61.7958 151.905 60.7427C150.265 59.8161 149.003 57.5837 149.003 55.7303C149.003 53.6243 150.559 52.7398 152.326 53.7507ZM152.326 59.9846C153.545 60.6585 154.428 60.2373 154.428 58.8473C154.428 57.2888 153.293 55.267 151.905 54.5088C150.685 53.7928 149.844 54.3404 149.844 55.7303C149.844 57.2888 150.938 59.2264 152.326 59.9846Z" fill="white"/>
<path d="M141.812 47.6852C143.452 48.6119 144.756 50.8864 144.756 52.7819C144.756 54.8037 143.2 55.7303 141.391 54.6773C139.751 53.7506 138.49 51.5182 138.49 49.6649C138.49 47.5589 140.046 46.6743 141.812 47.6852ZM141.812 53.9191C143.032 54.5931 143.915 54.1718 143.915 52.7819C143.915 51.2234 142.779 49.2016 141.391 48.4434C140.172 47.7274 139.331 48.2749 139.331 49.6649C139.331 51.2234 140.466 53.1609 141.812 53.9191Z" fill="white"/>
<path d="M76.8364 32.8586L76.7102 80.9607L169.107 134.37" fill="black"/>
<path d="M87.6442 46.7164C86.8872 46.2952 86.2143 46.59 85.7517 47.0955C85.247 47.6009 84.9106 48.317 84.7003 49.1173C82.0508 58.8472 79.1489 58.8051 77.719 58.0048C77.1302 57.6678 76.7938 57.2466 76.7938 57.2045L76.7097 81.0028L163.682 131.253L153.925 110.698C152.957 108.634 151.401 106.865 149.803 105.938C148.668 105.307 147.574 105.054 146.691 105.349L140.761 107.033C140.256 107.16 139.71 107.033 139.121 106.739C138.069 106.107 137.018 104.801 136.598 103.327L131.341 84.7515C130.878 83.1509 129.784 81.6346 128.565 80.9185C127.471 80.2867 126.462 80.3709 125.915 81.2134L122.13 86.9839C121.331 88.1633 119.859 88.3739 118.261 87.4473C116.873 86.647 115.612 85.257 114.728 83.6143L110.817 76.0746C110.312 75.1058 109.64 74.3898 108.967 74.0107C107.999 73.4631 107.032 73.5474 106.654 74.474L101.439 86.7733C100.85 88.1212 99.462 88.416 97.8639 87.5315C95.9714 86.4364 94.3312 83.867 94.0788 81.5503L91.2611 56.0251C91.0928 54.5509 90.7564 53.0345 90.2938 51.476C89.3686 48.5276 88.4433 47.1797 87.6442 46.7164Z" fill="black"/>
<path d="M76.8364 32.8586L76.7102 80.9607L169.107 134.37" fill="black"/>
<path d="M87.6442 46.7164C86.8872 46.2952 86.2143 46.59 85.7517 47.0955C85.247 47.6009 84.9106 48.317 84.7003 49.1173C82.0508 58.8472 79.1489 58.8051 77.719 58.0048C77.1302 57.6678 76.7938 57.2466 76.7938 57.2045L76.7097 81.0028L163.682 131.253L153.925 110.698C152.957 108.634 151.401 106.865 149.803 105.938C148.668 105.307 147.574 105.054 146.691 105.349L140.761 107.033C140.256 107.16 139.71 107.033 139.121 106.739C138.069 106.107 137.018 104.801 136.598 103.327L131.341 84.7515C130.878 83.1509 129.784 81.6346 128.565 80.9185C127.471 80.2867 126.462 80.3709 125.915 81.2134L122.13 86.9839C121.331 88.1633 119.859 88.3739 118.261 87.4473C116.873 86.647 115.612 85.257 114.728 83.6143L110.817 76.0746C110.312 75.1058 109.64 74.3898 108.967 74.0107C107.999 73.4631 107.032 73.5474 106.654 74.474L101.439 86.7733C100.85 88.1212 99.462 88.416 97.8639 87.5315C95.9714 86.4364 94.3312 83.867 94.0788 81.5503L91.2611 56.0251C91.0928 54.5509 90.7564 53.0345 90.2938 51.476C89.3686 48.5276 88.4433 47.1797 87.6442 46.7164Z" fill="black"/>
<path d="M122.047 124.177C122.173 124.177 122.341 124.092 122.425 123.966C122.551 123.755 122.467 123.503 122.257 123.376L80.0746 98.9883C79.8643 98.862 79.612 98.9462 79.4858 99.1568C79.3597 99.3674 79.4438 99.6201 79.6541 99.7465L121.836 124.134C121.878 124.177 121.962 124.177 122.047 124.177Z" fill="white"/>
<path d="M159.222 145.7C159.349 145.7 159.517 145.616 159.601 145.49C159.727 145.279 159.643 145.026 159.433 144.9L129.447 127.546C129.236 127.42 128.984 127.504 128.858 127.715C128.732 127.925 128.816 128.178 129.026 128.304L159.012 145.658C159.096 145.658 159.18 145.7 159.222 145.7Z" fill="white"/>
<path d="M150.644 148.228C150.77 148.228 150.939 148.143 151.023 148.017C151.149 147.806 151.065 147.554 150.855 147.427L80.0741 106.486C79.8639 106.36 79.6115 106.444 79.4854 106.654C79.3592 106.865 79.4433 107.118 79.6536 107.244L150.434 148.186C150.476 148.186 150.56 148.228 150.644 148.228Z" fill="white"/>
<path d="M166.373 157.326C166.499 157.326 166.667 157.242 166.751 157.115C166.877 156.905 166.793 156.652 166.583 156.525L158.298 151.724C158.088 151.597 157.835 151.682 157.709 151.892C157.583 152.103 157.667 152.355 157.877 152.482L166.162 157.284C166.247 157.326 166.331 157.326 166.373 157.326Z" fill="white"/>
<path d="M57.4911 69.1248C58.8369 72.1575 60.4771 75.1059 62.3696 77.8438L90.5051 94.1867C92.4397 93.6391 94.0799 92.6282 95.5098 91.1961L57.4911 69.1248Z" fill="black"/>
<path d="M53.2435 50.6337V51.097C53.2435 52.9925 53.3697 54.8458 53.7062 56.7833V56.8255C54.337 60.8691 55.6828 64.9969 57.4912 68.9984C58.837 72.0311 60.4772 74.9796 62.3697 77.7174C66.2809 83.4037 71.1594 88.2898 76.4585 91.3646C81.7155 94.3973 86.6361 95.2397 90.5473 94.0603C92.4819 93.5127 94.122 92.5018 95.552 91.0697C97.4024 89.1743 98.7061 86.5628 99.4211 83.2774C99.7576 81.6768 99.9258 79.9077 99.9258 78.0544V77.6332C99.8837 74.0529 99.2949 70.3463 98.1174 66.5975C97.4024 64.0281 96.3931 61.4588 95.1314 58.9315C91.7248 51.8131 86.7202 45.2843 81.0005 40.7353L80.9585 40.6932C79.5286 39.598 78.0987 38.5871 76.5847 37.7026C75.0706 36.8181 73.6407 36.1441 72.2108 35.6387H72.1688C66.4491 33.5747 61.5286 34.3329 58.08 37.492C56.9024 38.5871 55.8931 40.0192 55.094 41.662C54.0005 44.105 53.3277 47.0955 53.2435 50.6337Z" fill="black"/>
<path d="M53.3272 68.1982C53.4955 68.0718 53.7057 67.9876 53.916 67.9033L53.3272 68.1982Z" fill="black"/>
<path d="M23.2578 80.9607C23.0475 81.0449 22.8793 81.1292 22.669 81.2555L23.2578 80.9607Z" fill="black"/>
<path d="M34.1922 76.3694L22.7108 81.2555C19.5987 83.0667 18.7576 87.6157 20.7763 91.4908C22.6688 95.1554 26.4538 96.8402 29.4398 95.5766L60.0566 82.5191C57.0286 83.7827 53.2436 82.0979 51.3931 78.4334C49.3744 74.5582 50.2155 70.0092 53.3277 68.198L41.6781 73.1683" fill="black"/>
<path d="M51.0638 77.7519C49.3492 73.7297 50.6087 69.3362 53.877 67.9387C57.1453 66.5411 61.1847 68.6688 62.8993 72.6909C64.6139 76.713 63.3544 81.1066 60.0861 82.5041C56.8178 83.9017 52.7784 81.774 51.0638 77.7519Z" fill="black"/>
<path d="M55.6816 69.2932C55.5134 69.3775 55.3872 69.4196 55.2611 69.5038L55.6816 69.2932Z" fill="black"/>
<path d="M55.2619 69.5037L63.2105 66.134V68.3243H64.8507C64.7245 69.5879 64.9769 71.0201 65.6498 72.2837C66.8694 74.6425 69.1404 75.9482 71.2012 75.6955V75.864L60.3928 80.4551C58.0797 81.4239 55.1778 80.1182 53.7479 77.3382C52.2339 74.3897 52.8647 70.8516 55.2619 69.5037Z" fill="black"/>
<path d="M57.1532 53.3715C57.1112 65.7129 65.7327 80.6659 76.457 86.8576C81.8401 90.0167 86.7607 90.2694 90.2934 88.2055L96.4336 84.6252C92.9009 86.6891 88.0224 86.3943 82.5971 83.2773C71.8728 77.0856 63.2513 62.0906 63.2934 49.7913C63.2934 43.6416 65.4383 39.3453 68.9289 37.3235L62.7887 40.9038C59.3401 42.8834 57.1953 47.2219 57.1532 53.3715Z" fill="black"/>
<path d="M60.056 36.1019C64.3037 33.6168 70.1495 33.9959 76.6261 37.7446C89.4953 45.2 99.9252 63.2278 99.8831 78.0543C99.8411 85.4254 97.2757 90.6063 93.07 93.0072L99.2102 89.4691C103.374 87.026 105.981 81.8452 106.023 74.474C106.065 59.6475 95.6775 41.6198 82.7663 34.1644C76.2897 30.4156 70.4439 30.0786 66.1962 32.5216L60.056 36.1019Z" fill="black"/>
<path d="M76.6267 37.7446C63.7576 30.2893 53.2856 36.2704 53.2435 51.097C53.2015 65.8814 63.5893 83.9091 76.4585 91.3645C89.3697 98.8199 99.7996 92.8387 99.8417 78.0543C99.8837 63.1856 89.4959 45.2 76.6267 37.7446ZM76.4585 86.8576C65.7342 80.6658 57.1127 65.6708 57.1548 53.3715C57.1968 41.0301 65.8604 36.0598 76.5847 42.2516C87.309 48.4433 95.9725 63.4384 95.9305 75.8219C95.9305 88.0791 87.2249 93.0493 76.4585 86.8576Z" fill="black"/>
<path d="M22.4997 80.9186C22.4997 80.9186 22.5417 80.9186 22.5417 80.8764L34.0231 75.9904C34.2333 75.9062 34.4857 75.9904 34.5698 76.201C34.6539 76.4116 34.5698 76.6644 34.3595 76.7486L22.9202 81.6346C20.0604 83.3194 19.2614 87.6579 21.196 91.2803C22.9623 94.6921 26.453 96.3769 29.3548 95.1554L57.196 83.2773C54.7988 82.9404 52.4436 81.2555 51.0558 78.6019C49.5838 75.7798 49.4576 72.0732 51.266 69.5038L41.8875 73.5053C41.6773 73.5895 41.4249 73.5053 41.3408 73.2947C41.2567 73.0841 41.3408 72.8314 41.5511 72.7471L53.1586 67.819C54.0838 67.2714 55.1352 67.0187 56.2287 67.0608C54.0838 61.7114 52.8221 56.1936 52.8642 51.0549C52.8642 43.7258 55.3875 38.2922 59.9296 35.6807C60.0137 35.6386 60.0978 35.5965 60.1819 35.5544L65.9436 32.1847C70.4857 29.5311 76.5418 30.1208 82.9343 33.8274C88.4436 36.9865 93.4904 42.1252 97.4857 48.0643V44.1049C97.4857 43.8522 97.6539 43.6837 97.9062 43.6837C98.1586 43.6837 98.3268 43.8943 98.3268 44.1049V49.3279C103.163 56.9939 106.275 65.9235 106.402 73.9686C106.822 73.3789 107.453 73.1683 108.126 73.2526L108.21 50.2967C108.21 50.0861 108.378 49.8755 108.631 49.8755C108.883 49.8755 109.051 50.0861 109.051 50.2967L108.967 73.5474C109.009 73.5895 109.051 73.5895 109.093 73.6316C109.892 74.095 110.607 74.8953 111.112 75.8641L115.023 83.4037C116.074 85.4255 117.588 86.7312 118.766 87.2788L118.85 56.4885C118.85 56.2779 119.06 56.0672 119.271 56.0672C119.523 56.0672 119.691 56.2779 119.691 56.4885L119.607 87.5315C120.448 87.7 121.205 87.5315 121.71 86.7312L125.495 80.9607C126.378 79.6128 128.06 79.9077 129.49 81.1292V81.087L129.532 62.6381C129.532 62.4275 129.701 62.2169 129.953 62.2169C130.205 62.2169 130.374 62.4275 130.374 62.6381L130.331 81.9716C130.92 82.6876 131.383 83.5722 131.677 84.541L137.018 103.2C137.439 104.675 138.869 106.654 140.215 106.697L140.341 68.872C140.341 68.6614 140.509 68.4508 140.761 68.4508C141.014 68.4508 141.182 68.6614 141.182 68.872L141.056 106.528C144.967 105.391 146.187 105.054 146.481 104.97H146.607C148.037 104.548 149.593 105.138 150.981 106.233L151.065 75.0638C151.065 74.8532 151.233 74.6426 151.486 74.6426C151.738 74.6426 151.906 74.8532 151.906 75.0638L151.822 106.949C152.874 108.002 153.799 109.266 154.388 110.53C154.388 110.53 154.43 110.572 154.43 110.656C154.724 111.33 156.154 114.32 161.621 125.819L161.747 81.2134C161.747 80.9607 161.916 80.7922 162.168 80.7922C162.42 80.7922 162.588 81.0028 162.588 81.2134L162.462 127.588C162.967 128.642 163.514 129.779 164.06 130.958L169.36 134.033C169.57 134.159 169.612 134.412 169.528 134.623C169.444 134.749 169.317 134.833 169.149 134.833C169.065 134.833 169.023 134.833 168.939 134.791L95.3408 92.2491C94.2053 92.8809 93.3221 93.4285 93.2801 93.4285C91.3876 94.5236 89.2848 95.0291 86.9717 95.0291C86.6773 95.0291 86.3829 95.029 86.1305 94.9869L166.584 141.53C166.794 141.657 166.836 141.91 166.752 142.12C166.668 142.247 166.542 142.331 166.374 142.331C166.289 142.331 166.247 142.331 166.163 142.289L83.9436 94.7342C81.5044 94.2709 78.8969 93.26 76.2474 91.7436C71.495 89.0058 67.0791 84.7937 63.3782 79.8234C62.8315 81.0028 61.9903 81.9716 60.8969 82.6034C60.1399 83.0667 59.7614 83.1088 29.6492 95.9978C28.9343 96.2927 28.1352 96.4612 27.3782 96.4612C24.6866 96.4612 21.953 94.6921 20.4389 91.7436C18.2941 87.6158 19.2193 82.7719 22.4997 80.9186ZM82.5137 34.5435C78.8969 32.4374 75.4062 31.3844 72.2941 31.3844C70.1492 31.3844 68.1305 31.8899 66.3642 32.9008L64.0511 34.2486C64.724 34.1223 65.439 34.0802 66.1539 34.0802C69.4343 34.0802 73.0511 35.1753 76.8362 37.3656C82.1773 40.4825 87.1399 45.4107 91.0932 51.1812C96.6866 59.3948 100.303 69.2932 100.303 78.0543C100.303 83.0667 99.0838 87.1946 96.8969 90.143L96.8549 90.1852C96.7707 90.2694 96.7287 90.3536 96.6446 90.4379L98.9576 89.09C103.163 86.6049 105.518 81.424 105.56 74.4741C105.603 59.7739 95.2567 41.8725 82.5137 34.5435ZM162.715 130.2C159.645 123.713 156.617 117.353 153.546 110.866C152.243 108.171 149.299 105.054 146.775 105.728H146.733C146.523 105.77 145.43 106.107 141.014 107.37L140.803 107.413C138.827 107.96 136.724 105.433 136.135 103.369L130.878 84.7937C130.163 82.2243 127.261 79.7392 126.21 81.3819L122.425 87.1525C120.448 90.1852 116.159 87.2788 114.308 83.7407L110.397 76.201C109.808 75.0638 108.462 73.7159 107.495 74.0529C107.285 74.1371 107.117 74.3056 106.99 74.6004L106.36 76.1168C105.981 82.5613 103.542 87.3631 99.4203 89.8061C99.3782 89.8061 97.738 90.7748 96.1399 91.7015L162.715 130.2ZM76.6679 90.9854C81.7567 93.9339 87.8128 95.5345 92.8595 92.6282C93.6586 92.1227 94.2474 91.7436 95.0044 90.9854C97.8642 88.2055 99.4203 83.6985 99.4203 78.0543C99.4623 69.209 95.6773 59.1421 89.8735 50.9706C86.0885 45.6213 81.4203 41.0301 76.3735 38.1238C70.2333 34.5856 64.5137 33.9959 60.224 36.481H60.1819C55.9763 38.9662 53.6632 44.147 53.6632 51.097C53.6632 56.2779 54.9249 61.8378 57.1539 67.1872C58.752 71.0623 60.7707 74.7268 63.1259 78.0122C66.3642 82.814 71.2848 87.8685 76.6679 90.9854ZM57.0698 69.1668L55.4296 69.8829C53.2847 71.1465 52.696 74.3898 54.1259 77.1698C55.4717 79.7392 58.1212 81.0028 60.224 80.0761L62.7053 79.0231C60.5604 75.9483 58.6259 72.6208 57.0698 69.1668ZM60.4343 81.8452C61.1913 81.424 61.7801 80.8343 62.2427 80.1183L60.6025 80.8343C60.0137 81.087 59.4249 81.2134 58.7941 81.2134C56.7333 81.2134 54.5885 79.8234 53.4109 77.5489C51.7707 74.3898 52.4857 70.6411 55.0511 69.1247H55.0931L56.7754 68.4087C56.6913 68.2823 56.6492 68.1138 56.5651 67.9875C56.3548 67.9453 56.1866 67.9453 56.0184 67.9453C55.1352 67.9453 54.2941 68.1559 53.5371 68.6193C50.8876 70.1356 49.6679 74.3477 51.7707 78.3071C52.8221 80.3289 54.5044 81.8031 56.4389 82.3507C57.8689 82.7298 59.2567 82.5613 60.4343 81.8452Z" fill="white"/>
<path d="M62.6635 40.4825C66.4485 38.2922 71.4952 38.7976 76.8364 41.8725C87.6448 48.1485 96.4345 63.3541 96.3924 75.7797C96.3504 87.026 89.3691 91.8278 80.9158 89.2584C79.4018 88.7951 77.8457 88.1212 76.2896 87.1945C71.6634 84.4988 67.4158 80.2024 64.0513 75.1479C59.9298 68.9562 56.7335 60.869 56.7756 53.3293C56.7756 47.2639 58.8784 42.6727 62.6635 40.4825ZM92.7756 85.4254C94.542 83.1088 95.5092 79.7812 95.5092 75.7797C95.5513 63.6068 86.9719 48.696 76.3737 42.5885C73.3878 40.8615 70.4859 39.977 67.8784 39.977C67.3737 39.977 66.9111 40.0191 66.4485 40.0613C64.6821 42.3779 63.7149 45.7054 63.7149 49.7491C63.6728 61.8799 72.2102 76.7485 82.8083 82.8982C86.4251 85.0042 89.8317 85.8466 92.7756 85.4254ZM76.6681 86.4784C81.7569 89.4269 87.855 90.522 91.9765 86.3521C89.0747 86.5206 85.7943 85.5939 82.3877 83.6142C71.5793 77.3382 62.8317 62.1747 62.8737 49.7491C62.8737 46.0003 63.7569 42.7149 65.2289 40.314C64.4719 40.5246 63.7149 40.8194 63.042 41.1985C59.5092 43.2203 57.5747 47.5588 57.5747 53.3293V53.4136C57.5747 65.6286 66.2382 80.413 76.6681 86.4784Z" fill="white"/>
<path d="M99.2509 152.861V166.55L139.793 190.138V176.449L99.2509 152.861Z" fill="black"/>
<path d="M99.2514 152.861L139.751 176.449C149.256 169.878 148.709 160.064 138.111 153.914C127.513 147.722 110.649 147.385 99.2514 152.861Z" fill="black"/>
<path d="M146.521 179.355V165.624C146.521 169.457 144.293 173.29 139.793 176.406V190.138C144.25 187.021 146.521 183.188 146.521 179.355Z" fill="black"/>
<path d="M99.2514 152.861L139.751 176.449C149.256 169.878 148.709 160.064 138.111 153.914C127.513 147.722 110.649 147.385 99.2514 152.861Z" fill="black"/>
<path d="M95.5082 155.009C86.5923 161.201 86.5503 170.215 95.3821 176.406L113.887 165.708L95.5082 155.009Z" fill="black"/>
<path d="M95.5082 155.009C86.5923 161.201 86.5503 170.215 95.3821 176.406L113.887 165.708L95.5082 155.009Z" fill="black"/>
<path d="M95.3821 176.449V190.138L113.887 179.439V165.708L95.3821 176.449Z" fill="black"/>
<path d="M99.1246 178.597C109.765 183.735 125.326 183.735 136.008 178.597L117.629 167.898L99.1246 178.597Z" fill="black"/>
<path d="M99.1246 178.597C109.765 183.735 125.326 183.735 136.008 178.597L117.629 167.898L99.1246 178.597Z" fill="black"/>
<path d="M99.1246 178.597V192.328C109.765 197.467 125.326 197.467 136.008 192.328V178.597C125.326 183.778 109.765 183.778 99.1246 178.597Z" fill="black"/>
<path d="M88.7781 165.792V179.523C88.7781 183.314 91.007 187.063 95.3809 190.138V176.406C90.965 173.374 88.7781 169.583 88.7781 165.792Z" fill="black"/>
<path d="M95.2555 154.672C95.3817 154.588 95.5499 154.588 95.7181 154.672L98.8303 156.483V152.819C98.8303 152.608 99.0406 152.524 99.0826 152.482C110.774 146.838 127.639 147.301 138.321 153.535C143.704 156.652 146.732 160.822 146.9 165.287V179.397C146.9 183.483 144.461 187.442 140.003 190.559C139.877 190.643 139.709 190.685 139.583 190.601C139.541 190.601 139.33 190.433 136.428 188.79V192.412C136.428 192.581 136.344 192.707 136.176 192.791C130.751 195.403 124.148 196.709 117.503 196.709C110.858 196.709 104.256 195.403 98.8724 192.791C98.7462 192.707 98.62 192.581 98.62 192.412V188.832L95.5079 190.643C95.4658 190.685 95.3817 190.685 95.2976 190.685H95.2135C95.1714 190.685 95.1294 190.643 95.0873 190.601C90.7135 187.568 88.3163 183.651 88.3163 179.65V165.918V165.876C88.3583 161.706 90.7976 157.747 95.2555 154.672ZM95.5079 155.514C91.4284 158.421 89.1995 162.043 89.1995 165.75C89.1995 169.878 92.0172 173.5 95.4237 175.859C96.6854 175.143 89.9565 179.018 113.087 165.666C87.0125 150.586 115.905 167.393 95.5079 155.514ZM119.985 182.009C126.209 181.672 131.55 180.239 134.999 178.639C135.041 178.639 135.083 178.597 135.125 178.597L117.629 168.403C105.77 175.269 100.092 178.555 100.05 178.597C103.835 180.576 111.657 182.388 119.985 182.009ZM146.059 165.287C145.891 161.117 142.989 157.199 137.9 154.251C132.391 151.05 125.073 149.449 117.671 149.449C111.489 149.449 105.265 150.586 100.134 152.903L139.709 175.943C143.284 173.289 145.975 170.13 146.017 165.666V165.623C146.101 165.497 146.101 165.413 146.059 165.287ZM146.101 179.397V169.793C144.882 172.658 142.779 174.806 140.213 176.659V189.338C143.999 186.473 146.101 182.977 146.101 179.397ZM139.372 189.422V176.659L99.6714 153.577V156.947C116.326 166.634 113.844 165.202 114.097 165.329C114.223 165.413 114.307 165.539 114.307 165.708V169.33L117.419 167.519C117.545 167.435 117.713 167.435 117.84 167.519C129.531 174.343 136.218 178.176 136.26 178.218C136.386 178.302 136.47 178.428 136.47 178.555V187.695L139.372 189.422ZM99.5452 192.075C110.017 197.046 125.073 197.046 135.629 192.075V179.271C135.503 179.313 135.419 179.355 135.335 179.397C131.928 181.124 124.989 182.893 117.587 182.893C110.185 182.893 103.499 181.208 99.5873 179.271V192.075H99.5452ZM98.7041 178.639C98.7041 178.47 98.7882 178.344 98.9144 178.26L98.9565 178.218C102.363 176.238 110.059 171.815 113.466 169.793V166.424C112.204 167.182 118.975 163.265 95.8023 176.659V189.422L98.7041 187.737V178.639ZM89.1995 179.523C89.1995 183.062 91.2602 186.515 94.9611 189.338V176.659C92.6481 175.101 90.2509 172.489 89.1995 169.878V179.523Z" fill="white"/>
<path d="M43.1082 120.007L43.1502 144.058L51.6035 149.07L51.5194 105.644L43.0661 100.673L43.1082 112.678" fill="black"/>
<path d="M60.0565 105.644V100.673L51.5191 105.644L51.6032 149.07L60.1406 144.058L60.0565 110.74" fill="black"/>
<path d="M43.066 100.673L51.5192 105.644L60.0566 100.673L51.6034 95.6609L43.066 100.673Z" fill="black"/>
<path d="M55.7654 119.88L55.8074 151.555L64.3027 156.526L64.2186 124.851L55.7654 119.88Z" fill="black"/>
<path d="M72.7568 119.88L64.2194 124.851L64.3035 156.526L72.7988 151.555L72.7568 119.88Z" fill="black"/>
<path d="M55.7652 119.88L64.2185 124.851L72.7559 119.88L64.2605 114.868L55.7652 119.88Z" fill="black"/>
<path d="M68.4255 139.087L68.5096 159.011L76.9629 164.023L76.8788 144.058L68.4255 139.087Z" fill="black"/>
<path d="M85.4159 139.087L76.8785 144.058L76.9626 164.023L85.5 159.011L85.4159 139.087Z" fill="black"/>
<path d="M68.4254 139.088L76.8786 144.058L85.416 139.088L76.9627 134.075L68.4254 139.088Z" fill="black"/>
<path d="M42.6445 100.673C42.6445 100.547 42.7286 100.378 42.8548 100.294L51.3501 95.3239C51.4763 95.2397 51.6445 95.2397 51.7706 95.3239L60.2239 100.336C60.3921 100.463 60.4342 100.589 60.4342 100.715V105.728C60.4342 105.981 60.266 106.149 60.0136 106.149C59.7613 106.149 59.5931 105.981 59.5931 105.728V101.474L51.8968 105.981L51.9389 136.644V148.396L55.3034 146.417L55.2193 119.923C55.2193 119.754 55.3034 119.628 55.4295 119.543L59.551 117.1V110.782C59.551 110.53 59.7192 110.361 59.9716 110.361C60.2239 110.361 60.3921 110.53 60.3921 110.782V116.637L63.9249 114.573C64.051 114.489 64.2192 114.489 64.3454 114.573L72.7987 119.586C72.9249 119.67 73.009 119.796 73.009 119.965L73.051 135.886L76.5837 133.822C76.7099 133.738 76.8781 133.738 77.0043 133.822L85.4576 138.835C85.5837 138.919 85.6678 139.045 85.6678 139.172C85.7099 151.008 85.7099 147.427 85.752 159.137C85.752 159.263 85.6678 159.432 85.5417 159.516L77.0464 164.486C76.9202 164.571 76.752 164.613 76.5837 164.486L68.1305 159.516C68.0043 159.432 67.9202 159.306 67.9202 159.179V154.967L64.3454 157.073C64.2192 157.157 64.009 157.157 63.9249 157.073L55.4716 152.061C55.3454 151.976 55.2613 151.85 55.2613 151.682V147.47L51.6865 149.576C51.5604 149.66 51.3921 149.66 51.266 149.576L42.8127 144.563C42.6865 144.479 42.6024 144.353 42.6024 144.184L42.5604 120.133C42.5604 119.88 42.7286 119.712 42.9809 119.712C43.2333 119.712 43.4015 119.88 43.4015 120.133L43.4436 143.931L51.0557 148.438V136.181L51.0136 105.981C50.2146 105.517 53.8314 107.665 43.4015 101.474V112.762C43.4015 113.015 43.2333 113.183 42.9809 113.183C42.7286 113.183 42.5604 113.015 42.5604 112.762C42.6865 110.993 42.6445 102.021 42.6445 100.673ZM64.2613 115.373C59.1725 118.364 64.5557 115.205 56.565 119.88C61.7379 122.913 54.4622 118.659 64.2192 124.387L71.9155 119.88L64.2613 115.373ZM76.9622 134.581C72.1258 137.403 77.2987 134.37 69.266 139.088C71.4529 140.393 68.4669 138.624 76.9202 143.594L84.6164 139.088L76.9622 134.581ZM84.9949 139.804L77.2987 144.31L77.3828 163.307L85.0791 158.8L84.9949 139.804ZM68.9295 158.8L76.5417 163.307L76.4576 144.353C66.4903 138.456 69.3921 140.183 68.8454 139.846C68.8454 144.142 68.8875 154.419 68.9295 158.8ZM68.0043 139.088C68.0043 138.919 68.0884 138.793 68.2146 138.708L72.3361 136.265L72.294 120.596L64.5978 125.103L64.6819 155.809L68.0464 153.83L68.0043 139.088ZM56.2286 151.303L63.8407 155.809L63.7566 125.103C55.808 120.428 59.5931 122.66 56.1445 120.596C56.1865 121.818 56.2286 147.09 56.2286 151.303ZM59.2146 100.673L51.5604 96.1663L43.8641 100.673C44.6632 101.137 41.0463 98.9884 51.5183 105.18L59.2146 100.673Z" fill="white"/>
</g>
<defs>
<clipPath id="clip0_254_880">
<rect width="216" height="216" fill="white" transform="matrix(-1 0 0 1 216 0)"/>
</clipPath>
</defs>
</svg>
