<svg width="80" height="80" viewBox="0 0 80 80" fill="none" xmlns="http://www.w3.org/2000/svg">
<path d="M36.3513 45.9202H35.1746V11.8447C35.1746 11.5203 35.4385 11.2563 35.7629 11.2563H67.9523C68.2767 11.2563 68.5406 11.5203 68.5406 11.8447V45.2427H67.364V12.433H36.3513V45.9202Z" fill="white"/>
<path d="M53.2939 53.0225H41.1285V54.1992H53.2939V53.0225Z" fill="white"/>
<path d="M67.9524 20.833H35.763V22.0097H67.9524V20.833Z" fill="white"/>
<path d="M45.4203 31.6655H41.1287C40.8043 31.6655 40.5404 31.4016 40.5404 31.0772V26.7856C40.5404 26.4612 40.8043 26.1973 41.1287 26.1973H45.4203C45.7447 26.1973 46.0087 26.4612 46.0087 26.7856V31.0772C46.0087 31.4016 45.7447 31.6655 45.4203 31.6655ZM41.7171 30.4889H44.832V27.374H41.7171V30.4889Z" fill="white"/>
<path d="M45.4203 40.25H41.1287C40.8043 40.25 40.5404 39.9861 40.5404 39.6617V35.3701C40.5404 35.0457 40.8043 34.7817 41.1287 34.7817H45.4203C45.7447 34.7817 46.0087 35.0457 46.0087 35.3701V39.6617C46.0087 39.9861 45.7447 40.25 45.4203 40.25ZM41.7171 39.0733H44.832V35.9584H41.7171V39.0733Z" fill="white"/>
<path d="M45.4203 48.8335H41.1287C40.8043 48.8335 40.5404 48.5696 40.5404 48.2452V43.9536C40.5404 43.6292 40.8043 43.3652 41.1287 43.3652H45.4203C45.7447 43.3652 46.0087 43.6292 46.0087 43.9536V48.2452C46.0087 48.5696 45.7447 48.8335 45.4203 48.8335ZM41.7171 47.6568H44.832V44.5419H41.7171V47.6568Z" fill="white"/>
<path d="M54.0034 31.6655H49.7118C49.3874 31.6655 49.1235 31.4016 49.1235 31.0772V26.7856C49.1235 26.4612 49.3874 26.1973 49.7118 26.1973H54.0034C54.3278 26.1973 54.5918 26.4612 54.5918 26.7856V31.0772C54.5918 31.4016 54.3278 31.6655 54.0034 31.6655ZM50.3002 30.4889H53.4151V27.374H50.3002V30.4889Z" fill="white"/>
<path d="M54.0034 40.25H49.7118C49.3874 40.25 49.1235 39.9861 49.1235 39.6617V35.3701C49.1235 35.0457 49.3874 34.7817 49.7118 34.7817H54.0034C54.3278 34.7817 54.5918 35.0457 54.5918 35.3701V39.6617C54.5918 39.9861 54.3278 40.25 54.0034 40.25ZM50.3002 39.0733H53.4151V35.9584H50.3002V39.0733Z" fill="white"/>
<path d="M54.0034 48.8335H49.7118C49.3874 48.8335 49.1235 48.5696 49.1235 48.2452V43.9536C49.1235 43.6292 49.3874 43.3652 49.7118 43.3652H54.0034C54.3278 43.3652 54.5918 43.6292 54.5918 43.9536V48.2452C54.5918 48.5696 54.3278 48.8335 54.0034 48.8335ZM50.3002 47.6568H53.4151V44.5419H50.3002V47.6568Z" fill="white"/>
<path d="M62.5883 31.6655H58.2967C57.9723 31.6655 57.7083 31.4016 57.7083 31.0772V26.7856C57.7083 26.4612 57.9723 26.1973 58.2967 26.1973H62.5883C62.9127 26.1973 63.1766 26.4612 63.1766 26.7856V31.0772C63.1766 31.4016 62.9127 31.6655 62.5883 31.6655ZM58.8834 30.4889H61.9982V27.374H58.8834V30.4889Z" fill="white"/>
<path d="M63.1766 14.4619H61.9999V18.5753H63.1766V14.4619Z" fill="white"/>
<path d="M67.2781 53.6195H66.1014V49.8507C66.1014 49.1363 65.5198 48.5546 64.8054 48.5546C64.0909 48.5546 63.5093 49.1363 63.5093 49.8507V50.4794H62.3326V49.8507C62.3326 48.4874 63.4421 47.3779 64.8054 47.3779C66.1686 47.3779 67.2781 48.4874 67.2781 49.8507V53.6195Z" fill="white"/>
<path d="M71.047 54.2459H69.8703V50.4771C69.8703 49.7627 69.2886 49.1811 68.5742 49.1811C67.8598 49.1811 67.2782 49.7627 67.2782 50.4771V53.6172H66.1015V50.4771C66.1015 49.1139 67.2109 48.0044 68.5742 48.0044C69.9375 48.0044 71.047 49.1139 71.047 50.4771V54.2459Z" fill="white"/>
<path d="M59.7422 58.015H58.5656V39.8014C58.5656 38.4381 59.675 37.3286 61.0383 37.3286C62.4016 37.3286 63.511 38.4381 63.511 39.8014V53.6175H62.3343V39.8014C62.3343 39.0869 61.7527 38.5053 61.0383 38.5053C60.3239 38.5053 59.7422 39.0869 59.7422 39.8014V58.015Z" fill="white"/>
<path d="M59.7423 68.0643H58.5656C58.5656 67.4524 57.8815 66.5279 57.088 65.4587C55.7802 63.6954 54.153 61.5017 53.8588 58.5986C53.7832 57.8522 53.7563 56.736 53.7782 55.282C53.8017 53.7338 54.8607 52.3705 56.3551 51.9654L59.1052 51.2207L59.4129 52.3571L56.6627 53.1017C55.6726 53.3707 54.97 54.2751 54.9549 55.3005C54.9347 56.689 54.9599 57.7884 55.0305 58.4809C55.2911 61.0613 56.8124 63.1121 58.0344 64.7594C58.9892 66.0471 59.744 67.0641 59.744 68.066L59.7423 68.0643Z" fill="white"/>
<path d="M72.9315 68.0637H71.7548C71.7548 67.6015 71.9582 66.9207 72.2642 65.8902C73.0643 63.1973 74.5554 58.1845 73.3955 52.5011C73.1501 51.2958 72.7231 51.0991 72.2978 51.0655C71.4875 51.0016 70.8555 51.5429 70.8488 51.548L70.0671 50.6688C70.1075 50.6335 71.069 49.7913 72.3886 49.8922C74.0914 50.025 74.436 51.711 74.5486 52.2641C75.7674 58.2366 74.2225 63.4326 73.3921 66.2247C73.145 67.0551 72.9315 67.7729 72.9315 68.0637Z" fill="white"/>
<path d="M27.3547 67.1712H19.2758C15.9357 67.1712 12.145 66.9493 9.35961 65.3103C6.48175 63.6159 5.08484 60.6708 5.08484 56.3053C5.08484 47.6229 18.4404 38.3573 19.1968 37.8412C19.217 37.8261 19.2287 37.8193 19.2287 37.8193L19.8877 38.7943C19.8877 38.7943 19.8961 38.7893 19.9079 38.7792C19.8961 38.7876 19.886 38.796 19.8742 38.8044C19.7381 38.8969 6.26154 48.176 6.26154 56.3069C6.26154 64.4379 11.2406 65.9962 19.2758 65.9962H27.3547C35.3898 65.9962 40.3689 64.3757 40.3689 56.3069C40.3689 54.0141 39.2309 50.141 33.8097 44.7165C30.4107 41.3158 26.9075 38.9053 26.7596 38.8044L26.7445 38.7943L27.4034 37.8193C27.4034 37.8193 27.4202 37.8311 27.4236 37.8328C27.5749 37.937 31.1655 40.4064 34.6401 43.8844C39.2208 48.4684 41.544 52.6474 41.544 56.3069C41.544 60.6725 40.1454 63.6176 37.2692 65.312C34.4838 66.9527 30.6931 67.1729 27.353 67.1729L27.3547 67.1712Z" fill="white"/>
<path d="M28.3028 38.9057H18.3295C17.1645 38.9057 16.2181 37.9593 16.2181 36.7944C16.2181 35.6295 17.1645 34.6797 18.3295 34.6797H28.3028C29.4678 34.6797 30.4158 35.6278 30.4158 36.7944C30.4158 37.961 29.4678 38.9057 28.3028 38.9057ZM18.3278 35.8564C17.8117 35.8564 17.3932 36.2766 17.3932 36.7944C17.3932 37.3121 17.8117 37.729 18.3278 37.729H28.3011C28.8172 37.729 29.2375 37.3104 29.2375 36.7944C29.2375 36.2783 28.8172 35.8564 28.3011 35.8564H18.3278Z" fill="white"/>
<path d="M17.9109 35.481L12.572 30.1422C12.4611 30.0312 12.3989 29.8816 12.3989 29.7253C12.3989 29.569 12.4611 29.4193 12.572 29.3084C14.606 27.2744 16.0399 27.7652 17.3057 28.1989C17.8167 28.3738 18.3009 28.5402 18.8237 28.5402C19.254 28.5402 19.5616 28.2393 20.0693 27.7064C20.7266 27.0172 21.6276 26.0708 23.3153 26.0708V27.2475C22.1319 27.2475 21.5435 27.8644 20.9215 28.5183C20.387 29.0798 19.7801 29.7169 18.8237 29.7169C18.1042 29.7169 17.4772 29.5017 16.9241 29.3134C15.8752 28.9537 15.0885 28.6848 13.8361 29.7421L18.7413 34.6472L17.9092 35.4793L17.9109 35.481Z" fill="white"/>
<path d="M28.7231 35.4816L27.891 34.6495L32.7944 29.7443C31.5421 28.687 30.7554 28.9559 29.7065 29.3157C29.1534 29.5056 28.5264 29.7191 27.8086 29.7191C26.8521 29.7191 26.2453 29.082 25.709 28.5206C25.0871 27.8683 24.4987 27.2514 23.3153 27.2514V26.0747C25.003 26.0747 25.904 27.0194 26.5613 27.7086C27.069 28.2415 27.3783 28.5424 27.8086 28.5424C28.3314 28.5424 28.8138 28.3777 29.3249 28.2012C30.5907 27.7675 32.0245 27.2766 34.0586 29.3106C34.2889 29.5409 34.2889 29.9124 34.0586 30.1427L28.7214 35.4816H28.7231Z" fill="white"/>
<path d="M36.3513 45.9202H35.1746V11.8447C35.1746 11.5203 35.4385 11.2563 35.7629 11.2563H67.9523C68.2767 11.2563 68.5406 11.5203 68.5406 11.8447V45.2427H67.364V12.433H36.3513V45.9202Z" fill="white"/>
<path d="M53.2939 53.0225H41.1285V54.1992H53.2939V53.0225Z" fill="white"/>
<path d="M67.9524 20.833H35.763V22.0097H67.9524V20.833Z" fill="white"/>
<path d="M45.4203 31.6655H41.1287C40.8043 31.6655 40.5404 31.4016 40.5404 31.0772V26.7856C40.5404 26.4612 40.8043 26.1973 41.1287 26.1973H45.4203C45.7447 26.1973 46.0087 26.4612 46.0087 26.7856V31.0772C46.0087 31.4016 45.7447 31.6655 45.4203 31.6655ZM41.7171 30.4889H44.832V27.374H41.7171V30.4889Z" fill="white"/>
<path d="M45.4203 40.25H41.1287C40.8043 40.25 40.5404 39.9861 40.5404 39.6617V35.3701C40.5404 35.0457 40.8043 34.7817 41.1287 34.7817H45.4203C45.7447 34.7817 46.0087 35.0457 46.0087 35.3701V39.6617C46.0087 39.9861 45.7447 40.25 45.4203 40.25ZM41.7171 39.0733H44.832V35.9584H41.7171V39.0733Z" fill="white"/>
<path d="M45.4203 48.8335H41.1287C40.8043 48.8335 40.5404 48.5696 40.5404 48.2452V43.9536C40.5404 43.6292 40.8043 43.3652 41.1287 43.3652H45.4203C45.7447 43.3652 46.0087 43.6292 46.0087 43.9536V48.2452C46.0087 48.5696 45.7447 48.8335 45.4203 48.8335ZM41.7171 47.6568H44.832V44.5419H41.7171V47.6568Z" fill="white"/>
<path d="M54.0034 31.6655H49.7118C49.3874 31.6655 49.1235 31.4016 49.1235 31.0772V26.7856C49.1235 26.4612 49.3874 26.1973 49.7118 26.1973H54.0034C54.3278 26.1973 54.5918 26.4612 54.5918 26.7856V31.0772C54.5918 31.4016 54.3278 31.6655 54.0034 31.6655ZM50.3002 30.4889H53.4151V27.374H50.3002V30.4889Z" fill="white"/>
<path d="M54.0034 40.25H49.7118C49.3874 40.25 49.1235 39.9861 49.1235 39.6617V35.3701C49.1235 35.0457 49.3874 34.7817 49.7118 34.7817H54.0034C54.3278 34.7817 54.5918 35.0457 54.5918 35.3701V39.6617C54.5918 39.9861 54.3278 40.25 54.0034 40.25ZM50.3002 39.0733H53.4151V35.9584H50.3002V39.0733Z" fill="white"/>
<path d="M54.0034 48.8335H49.7118C49.3874 48.8335 49.1235 48.5696 49.1235 48.2452V43.9536C49.1235 43.6292 49.3874 43.3652 49.7118 43.3652H54.0034C54.3278 43.3652 54.5918 43.6292 54.5918 43.9536V48.2452C54.5918 48.5696 54.3278 48.8335 54.0034 48.8335ZM50.3002 47.6568H53.4151V44.5419H50.3002V47.6568Z" fill="white"/>
<path d="M62.5883 31.6655H58.2967C57.9723 31.6655 57.7083 31.4016 57.7083 31.0772V26.7856C57.7083 26.4612 57.9723 26.1973 58.2967 26.1973H62.5883C62.9127 26.1973 63.1766 26.4612 63.1766 26.7856V31.0772C63.1766 31.4016 62.9127 31.6655 62.5883 31.6655ZM58.8834 30.4889H61.9982V27.374H58.8834V30.4889Z" fill="white"/>
<path d="M63.1766 14.4619H61.9999V18.5753H63.1766V14.4619Z" fill="white"/>
<path d="M67.2781 53.6195H66.1014V49.8507C66.1014 49.1363 65.5198 48.5546 64.8054 48.5546C64.0909 48.5546 63.5093 49.1363 63.5093 49.8507V50.4794H62.3326V49.8507C62.3326 48.4874 63.4421 47.3779 64.8054 47.3779C66.1686 47.3779 67.2781 48.4874 67.2781 49.8507V53.6195Z" fill="white"/>
<path d="M71.047 54.2459H69.8703V50.4771C69.8703 49.7627 69.2886 49.1811 68.5742 49.1811C67.8598 49.1811 67.2782 49.7627 67.2782 50.4771V53.6172H66.1015V50.4771C66.1015 49.1139 67.2109 48.0044 68.5742 48.0044C69.9375 48.0044 71.047 49.1139 71.047 50.4771V54.2459Z" fill="white"/>
<path d="M59.7422 58.015H58.5656V39.8014C58.5656 38.4381 59.675 37.3286 61.0383 37.3286C62.4016 37.3286 63.511 38.4381 63.511 39.8014V53.6175H62.3343V39.8014C62.3343 39.0869 61.7527 38.5053 61.0383 38.5053C60.3239 38.5053 59.7422 39.0869 59.7422 39.8014V58.015Z" fill="white"/>
<path d="M59.7423 68.0643H58.5656C58.5656 67.4524 57.8815 66.5279 57.088 65.4587C55.7802 63.6954 54.153 61.5017 53.8588 58.5986C53.7832 57.8522 53.7563 56.736 53.7782 55.282C53.8017 53.7338 54.8607 52.3705 56.3551 51.9654L59.1052 51.2207L59.4129 52.3571L56.6627 53.1017C55.6726 53.3707 54.97 54.2751 54.9549 55.3005C54.9347 56.689 54.9599 57.7884 55.0305 58.4809C55.2911 61.0613 56.8124 63.1121 58.0344 64.7594C58.9892 66.0471 59.744 67.0641 59.744 68.066L59.7423 68.0643Z" fill="white"/>
<path d="M72.9315 68.0637H71.7548C71.7548 67.6015 71.9582 66.9207 72.2642 65.8902C73.0643 63.1973 74.5554 58.1845 73.3955 52.5011C73.1501 51.2958 72.7231 51.0991 72.2978 51.0655C71.4875 51.0016 70.8555 51.5429 70.8488 51.548L70.0671 50.6688C70.1075 50.6335 71.069 49.7913 72.3886 49.8922C74.0914 50.025 74.436 51.711 74.5486 52.2641C75.7674 58.2366 74.2225 63.4326 73.3921 66.2247C73.145 67.0551 72.9315 67.7729 72.9315 68.0637Z" fill="white"/>
<path d="M27.3547 67.1712H19.2758C15.9357 67.1712 12.145 66.9493 9.35961 65.3103C6.48175 63.6159 5.08484 60.6708 5.08484 56.3053C5.08484 47.6229 18.4404 38.3573 19.1968 37.8412C19.217 37.8261 19.2287 37.8193 19.2287 37.8193L19.8877 38.7943C19.8877 38.7943 19.8961 38.7893 19.9079 38.7792C19.8961 38.7876 19.886 38.796 19.8742 38.8044C19.7381 38.8969 6.26154 48.176 6.26154 56.3069C6.26154 64.4379 11.2406 65.9962 19.2758 65.9962H27.3547C35.3898 65.9962 40.3689 64.3757 40.3689 56.3069C40.3689 54.0141 39.2309 50.141 33.8097 44.7165C30.4107 41.3158 26.9075 38.9053 26.7596 38.8044L26.7445 38.7943L27.4034 37.8193C27.4034 37.8193 27.4202 37.8311 27.4236 37.8328C27.5749 37.937 31.1655 40.4064 34.6401 43.8844C39.2208 48.4684 41.544 52.6474 41.544 56.3069C41.544 60.6725 40.1454 63.6176 37.2692 65.312C34.4838 66.9527 30.6931 67.1729 27.353 67.1729L27.3547 67.1712Z" fill="white"/>
<path d="M28.3028 38.9057H18.3295C17.1645 38.9057 16.2181 37.9593 16.2181 36.7944C16.2181 35.6295 17.1645 34.6797 18.3295 34.6797H28.3028C29.4678 34.6797 30.4158 35.6278 30.4158 36.7944C30.4158 37.961 29.4678 38.9057 28.3028 38.9057ZM18.3278 35.8564C17.8117 35.8564 17.3932 36.2766 17.3932 36.7944C17.3932 37.3121 17.8117 37.729 18.3278 37.729H28.3011C28.8172 37.729 29.2375 37.3104 29.2375 36.7944C29.2375 36.2783 28.8172 35.8564 28.3011 35.8564H18.3278Z" fill="white"/>
<path d="M17.9109 35.481L12.572 30.1422C12.4611 30.0312 12.3989 29.8816 12.3989 29.7253C12.3989 29.569 12.4611 29.4193 12.572 29.3084C14.606 27.2744 16.0399 27.7652 17.3057 28.1989C17.8167 28.3738 18.3009 28.5402 18.8237 28.5402C19.254 28.5402 19.5616 28.2393 20.0693 27.7064C20.7266 27.0172 21.6276 26.0708 23.3153 26.0708V27.2475C22.1319 27.2475 21.5435 27.8644 20.9215 28.5183C20.387 29.0798 19.7801 29.7169 18.8237 29.7169C18.1042 29.7169 17.4772 29.5017 16.9241 29.3134C15.8752 28.9537 15.0885 28.6848 13.8361 29.7421L18.7413 34.6472L17.9092 35.4793L17.9109 35.481Z" fill="white"/>
<path d="M28.7231 35.4816L27.891 34.6495L32.7944 29.7443C31.5421 28.687 30.7554 28.9559 29.7065 29.3157C29.1534 29.5056 28.5264 29.7191 27.8086 29.7191C26.8521 29.7191 26.2453 29.082 25.709 28.5206C25.0871 27.8683 24.4987 27.2514 23.3153 27.2514V26.0747C25.003 26.0747 25.904 27.0194 26.5613 27.7086C27.069 28.2415 27.3783 28.5424 27.8086 28.5424C28.3314 28.5424 28.8138 28.3777 29.3249 28.2012C30.5907 27.7675 32.0245 27.2766 34.0586 29.3106C34.2889 29.5409 34.2889 29.9124 34.0586 30.1427L28.7214 35.4816H28.7231Z" fill="white"/>
</svg>
