<svg width="80" height="80" viewBox="0 0 80 80" fill="none" xmlns="http://www.w3.org/2000/svg">
<path d="M67.5807 16.3602H35.8958C35.6405 16.3602 35.4341 16.1529 35.4341 15.8967C35.4341 15.6404 35.6405 15.4331 35.8958 15.4331H67.5807C67.836 15.4331 68.0424 15.6404 68.0424 15.8967C68.0424 16.1529 67.836 16.3602 67.5807 16.3602Z" fill="white"/>
<path d="M64.6969 19.8439C64.578 19.8439 64.4592 19.7974 64.3691 19.7057C64.1902 19.5235 64.1914 19.2296 64.3728 19.0499L67.5532 15.8967L64.3728 12.7435C64.1914 12.5639 64.1902 12.2699 64.3691 12.0878C64.548 11.9056 64.8408 11.9043 65.0222 12.084L68.8669 15.8967L65.0222 19.7095C64.9321 19.7987 64.8145 19.8426 64.6981 19.8426L64.6969 19.8439Z" fill="white"/>
<path d="M67.5807 28.6732H35.8958C35.6405 28.6732 35.4341 28.4659 35.4341 28.2097C35.4341 27.9534 35.6405 27.7461 35.8958 27.7461H67.5807C67.836 27.7461 68.0424 27.9534 68.0424 28.2097C68.0424 28.4659 67.836 28.6732 67.5807 28.6732Z" fill="white"/>
<path d="M64.6969 32.1564C64.578 32.1564 64.4592 32.1099 64.3691 32.0182C64.1902 31.836 64.1914 31.5421 64.3728 31.3624L67.5532 28.2092L64.3728 25.056C64.1914 24.8764 64.1902 24.5824 64.3691 24.4003C64.548 24.2181 64.8408 24.2168 65.0222 24.3965L68.8669 28.2092L65.0222 32.022C64.9321 32.1112 64.8145 32.1551 64.6981 32.1551L64.6969 32.1564Z" fill="white"/>
<path d="M43.9867 65.6434H12.303C12.0477 65.6434 11.8413 65.4361 11.8413 65.1799C11.8413 64.9236 12.0477 64.7163 12.303 64.7163H43.988C44.2432 64.7163 44.4496 64.9236 44.4496 65.1799C44.4496 65.4361 44.2432 65.6434 43.988 65.6434H43.9867Z" fill="white"/>
<path d="M15.1868 69.1268C15.0692 69.1268 14.9529 69.0828 14.8628 68.9936L11.0181 65.1809L14.8628 61.3682C15.0442 61.1885 15.3357 61.1898 15.5159 61.3719C15.6961 61.5541 15.6936 61.8481 15.5121 62.0277L12.3318 65.1822L15.5121 68.3354C15.6936 68.515 15.6948 68.809 15.5159 68.9911C15.4258 69.0828 15.307 69.1293 15.1881 69.1293L15.1868 69.1268Z" fill="white"/>
<path d="M43.9867 53.3319H12.303C12.0477 53.3319 11.8413 53.1246 11.8413 52.8683C11.8413 52.6121 12.0477 52.4048 12.303 52.4048H43.988C44.2432 52.4048 44.4496 52.6121 44.4496 52.8683C44.4496 53.1246 44.2432 53.3319 43.988 53.3319H43.9867Z" fill="white"/>
<path d="M15.1868 56.8143C15.0692 56.8143 14.9529 56.7703 14.8628 56.6811L11.0181 52.8684L14.8628 49.0557C15.0442 48.876 15.3357 48.8773 15.5159 49.0594C15.6961 49.2416 15.6936 49.5356 15.5121 49.7152L12.3318 52.8697L15.5121 56.0229C15.6936 56.2025 15.6948 56.4965 15.5159 56.6786C15.4258 56.7703 15.307 56.8168 15.1881 56.8168L15.1868 56.8143Z" fill="white"/>
<path d="M29.7714 10.2136L9.8546 29.9732C9.33037 30.4933 9.33037 31.3438 9.8546 31.8651L49.3955 71.1508C49.9159 71.6683 50.7542 71.6646 51.2684 71.142L70.1568 51.9564C70.671 51.4351 70.6673 50.5972 70.1493 50.0808L29.9879 10L29.7727 10.2136H29.7714Z" fill="#1D1D1D"/>
<path d="M50.3287 72C49.8546 72 49.4092 71.8153 49.0714 71.4799L9.53048 32.1943C9.18767 31.8551 9 31.4016 9 30.9192C9 30.4368 9.18892 29.9833 9.53048 29.6441L28.7304 10.5955C29.4235 9.90703 30.5508 9.90829 31.2427 10.5992L70.4758 49.7517C71.1714 50.4464 71.1764 51.5821 70.487 52.2818L51.5987 71.4673C51.2633 71.809 50.8154 71.9975 50.3375 72H50.33H50.3287ZM29.984 11.0063C29.7651 11.0063 29.5449 11.0892 29.3785 11.255L10.1798 30.3023C10.0147 30.4669 9.92334 30.6855 9.92334 30.9179C9.92334 31.1516 10.0147 31.3702 10.1798 31.5347L49.7207 70.8204C49.8846 70.9824 50.0998 71.0716 50.3287 71.0716H50.3325C50.5627 71.0716 50.7792 70.9799 50.9406 70.8153L69.8289 51.6298C70.1617 51.2919 70.1592 50.7429 69.8239 50.4075L30.5921 11.2562C30.4244 11.0892 30.2055 11.0063 29.9853 11.0063H29.984Z" fill="white"/>
<path d="M40.0694 53.9851C37.6122 53.9851 35.1787 53.1987 33.282 51.7213L33.2407 51.6849L28.2937 46.7742L28.2575 46.6838C27.0201 43.5305 26.975 39.6362 28.1386 36.2644C29.3109 32.8687 31.7782 30.0786 34.9097 28.6087C38.2828 27.0171 42.2539 26.9304 45.2729 28.3851L45.343 28.419L45.398 28.4743L51.7913 34.8511L51.8251 34.9604C52.9999 38.6914 52.8498 42.7454 51.4147 46.0833C49.8395 49.7352 46.753 52.5291 43.1597 53.5567C42.1513 53.8457 41.1079 53.9864 40.0682 53.9864L40.0694 53.9851ZM33.87 51.0065C36.3398 52.9185 39.8004 53.5542 42.9082 52.6648C46.2388 51.7125 49.1026 49.1146 50.5689 45.7139C51.9039 42.6097 52.0528 38.8372 50.9806 35.346L44.805 29.1866C42.0787 27.904 38.3591 28.0045 35.3026 29.4467C32.4387 30.7921 30.0866 33.4529 29.0119 36.5671C27.9297 39.704 27.9572 43.3157 29.082 46.2529L33.87 51.0065Z" fill="white"/>
<path d="M50.0985 67.7627C49.6594 67.7627 49.2465 67.5918 48.9337 67.2815L13.7593 32.335C13.4415 32.0197 13.2676 31.6001 13.2664 31.1516C13.2664 30.7044 13.4403 30.2848 13.7556 29.9695C17.3113 26.4206 22.7224 20.9156 28.9919 14.4698C29.3034 14.1494 29.72 13.9711 30.1654 13.9673C30.1692 13.9673 30.1742 13.9673 30.178 13.9673C30.6184 13.9673 31.0325 14.1394 31.3465 14.4522L45.3968 28.472L66.2319 49.2681C66.875 49.91 66.8813 50.9628 66.2469 51.6135C63.6646 54.2592 60.3591 57.739 57.4439 60.8093C55.1031 63.2741 52.8923 65.6019 51.2846 67.2577C50.9731 67.578 50.5577 67.7577 50.1123 67.7614H50.096L50.0985 67.7627ZM30.1792 14.8957C30.1792 14.8957 30.1755 14.8957 30.1742 14.8957C29.9778 14.8969 29.7926 14.9761 29.655 15.118C23.3818 21.5664 17.9681 27.0751 14.4086 30.6265C14.2685 30.7659 14.1909 30.9531 14.1909 31.1504C14.1909 31.3488 14.2685 31.5348 14.4099 31.6755L49.5831 66.622C49.7232 66.7614 49.9146 66.8343 50.106 66.8356C50.3037 66.8343 50.4876 66.7539 50.6253 66.6119C52.2292 64.9587 54.4387 62.6334 56.7771 60.1699C59.6947 57.0983 63.0027 53.616 65.5888 50.9653C65.8703 50.6763 65.8678 50.2103 65.5826 49.9264L44.7474 29.1303L30.6972 15.1105C30.5583 14.9723 30.3744 14.8957 30.1792 14.8957Z" fill="white"/>
</svg>
