<svg width="80" height="80" viewBox="0 0 80 80" fill="none" xmlns="http://www.w3.org/2000/svg">
<path d="M50.1309 32.5985H39.4344C39.108 32.5985 38.8425 32.3303 38.8425 32.0006V21.1965C38.8425 20.8668 39.108 20.5986 39.4344 20.5986C45.6595 20.5986 50.7228 25.7129 50.7228 32.0006C50.7228 32.3303 50.4573 32.5985 50.1309 32.5985ZM40.0246 31.4028H49.5204C49.2244 26.2492 45.1268 22.1104 40.0246 21.8114V31.4028Z" fill="white"/>
<path d="M36.0758 47.9738C29.1234 47.9738 23.4666 42.26 23.4666 35.2361C23.4666 28.2121 29.1234 22.5 36.0758 22.5C36.4021 22.5 36.6677 22.7682 36.6677 23.0979V34.6382H48.093C48.4194 34.6382 48.6849 34.9064 48.6849 35.2361C48.6849 42.26 43.0281 47.9738 36.0758 47.9738ZM35.4839 23.7111C29.4583 24.0237 24.6504 29.073 24.6504 35.2361C24.6504 41.3991 29.7762 46.7781 36.0758 46.7781C42.3753 46.7781 47.1781 41.9218 47.4876 35.8339H36.0758C35.7494 35.8339 35.4839 35.5657 35.4839 35.2361V23.7111Z" fill="white"/>
<path d="M49.233 63.5983C48.2775 63.5983 47.3237 63.2311 46.5965 62.4983C45.1438 61.031 45.1438 58.6447 46.5965 57.1756L60.4554 43.1807L61.2926 44.0262L47.4336 58.0212C46.4426 59.0239 46.4426 60.6535 47.4336 61.6527C48.4263 62.6554 50.0414 62.6554 51.0324 61.6527L64.8913 47.6578L65.7284 48.5033L51.8695 62.4983C51.144 63.2328 50.1885 63.6 49.2347 63.6L49.233 63.5983Z" fill="white"/>
<path d="M66.1461 49.2448C65.9939 49.2448 65.8434 49.1867 65.7284 49.0706L59.8923 43.1774C59.7807 43.0647 59.7181 42.9126 59.7181 42.7555C59.7181 42.5983 59.7807 42.4446 59.8906 42.3319L71.9468 30.1526C72.838 29.2524 74.0235 28.7554 75.2834 28.7554C76.5433 28.7554 77.7288 29.2524 78.6184 30.1526C80.4549 32.0094 80.4566 35.0329 78.62 36.8914L66.5605 49.0706C66.4455 49.1867 66.2933 49.2448 66.1428 49.2448H66.1461ZM61.1471 42.7538L66.1461 47.8014L77.7863 36.0458C79.1612 34.6537 79.1612 32.3886 77.7846 30.9982C77.1183 30.3235 76.2304 29.9511 75.2868 29.9511C74.3431 29.9511 73.4553 30.3235 72.7873 30.9982L61.1488 42.7538H61.1471Z" fill="white"/>
<path d="M55.9215 43.0783L55.0844 42.2328L65.7927 31.4218C65.9043 31.3091 66.0548 31.2476 66.2104 31.2476H70.9879V32.4416H66.4556L55.9215 43.08V43.0783Z" fill="white"/>
<path d="M46.5943 61.6559L44.5152 63.7544L45.352 64.6002L47.431 62.5017L46.5943 61.6559Z" fill="white"/>
<path d="M62.0789 73.0002H10.5919C10.2655 73.0002 10 72.7338 10 72.4024V21.1968H11.1838V71.8045H61.487V52.1846H62.6708V72.4024C62.6708 72.7321 62.4053 73.0002 62.0789 73.0002Z" fill="white"/>
<path d="M62.6708 34.9831H61.487V8.19571H24.0585V7H62.0806C62.407 7 62.6725 7.26818 62.6725 7.59786V34.9831H62.6708Z" fill="white"/>
<path d="M46.0976 53.1411H22.3336V54.3368H46.0976V53.1411Z" fill="white"/>
<path d="M41.4452 60.3423H22.3336V61.538H41.4452V60.3423Z" fill="white"/>
<path d="M24.0586 21.7946H10.5919C10.3518 21.7946 10.137 21.6494 10.0457 21.4256C9.95438 21.2018 10.0051 20.9456 10.1742 20.7748L23.6392 7.1761C23.8083 7.00528 24.0619 6.95404 24.2835 7.04628C24.505 7.13852 24.6488 7.35716 24.6488 7.59801V21.1967C24.6488 21.5264 24.3833 21.7946 24.0569 21.7946H24.0586ZM12.021 20.5988H23.4667V9.04141L12.021 20.5988Z" fill="white"/>
</svg>
