<svg width="80" height="80" viewBox="0 0 80 80" fill="none" xmlns="http://www.w3.org/2000/svg">
<path d="M57.352 35.4015H56.161V26.4112H53.0101V35.4015H51.8192V25.8223C51.8192 25.4976 52.0863 25.2334 52.4147 25.2334H56.7565C57.0848 25.2334 57.352 25.4976 57.352 25.8223V35.4015Z" fill="white"/>
<path d="M48.4639 34.9356H47.273V20.9581H44.1221V34.9356H42.9312V20.3692C42.9312 20.0444 43.1983 19.7803 43.5266 19.7803H47.8684C48.1968 19.7803 48.4639 20.0444 48.4639 20.3692V34.9356Z" fill="white"/>
<path d="M39.5762 34.9352H38.3852V28.8912H35.2344V34.9352H34.0435V28.3023C34.0435 27.9776 34.3106 27.7134 34.6389 27.7134H38.9807C39.3091 27.7134 39.5762 27.9776 39.5762 28.3023V34.9352Z" fill="white"/>
<path d="M59.3968 35.1909H32.1533V36.3688H59.3968V35.1909Z" fill="white"/>
<path d="M23.1653 42.221C23.0871 42.221 23.0088 42.2058 22.9391 42.1756H7.64918C7.32082 42.1756 7.05371 41.9114 7.05371 41.5866C7.05371 41.2619 7.32082 40.9977 7.64918 40.9977C11.2152 40.9977 14.1159 38.1289 14.1159 34.6021V17.4461C14.1159 13.8924 17.112 11 20.7954 11C24.4788 11 27.468 13.8924 27.468 17.4461V41.4655C27.468 41.6354 27.3948 41.7953 27.2655 41.908C27.1362 42.0208 26.9661 42.0712 26.796 42.0494C25.5795 41.8946 24.375 41.9551 23.3032 42.2042C23.2572 42.2143 23.2113 42.2193 23.167 42.2193L23.1653 42.221ZM11.746 40.9994H23.1534C23.1892 40.9994 23.2266 41.0028 23.2606 41.0095C24.2083 40.8126 25.2291 40.7436 26.2771 40.8177V17.4461C26.2771 14.5419 23.8186 12.1778 20.7954 12.1778C17.7721 12.1778 15.3069 14.5419 15.3069 17.4461V34.6021C15.3069 37.2892 13.8846 39.6533 11.746 40.9977V40.9994Z" fill="white"/>
<path d="M7.65089 42.1754C5.60929 42.1754 3.68849 41.3879 2.24236 39.9577C0.796223 38.5275 0 36.6261 0 34.6019V24.6358C0 24.311 0.267109 24.0469 0.595466 24.0469H14.4188V25.2247H1.19093V34.6019C1.19093 36.3115 1.86296 37.9167 3.08452 39.1248C4.30607 40.3329 5.92744 40.9976 7.65089 40.9976V42.1754Z" fill="white"/>
<path d="M39.7602 69.4104H33.7868C29.6458 69.4104 26.2771 66.0789 26.2771 61.9834C26.2771 61.6872 26.4983 61.4382 26.7943 61.3995C31.672 60.7618 35.3503 56.6024 35.3503 51.7228C35.3503 46.8432 31.672 42.6955 26.7943 42.0511C26.4983 42.0124 26.2771 41.7633 26.2771 41.4672V17.4461C26.2771 14.5419 23.8187 12.1779 20.7954 12.1779C20.4671 12.1779 20.2 11.9137 20.2 11.5889C20.2 11.2642 20.4671 11 20.7954 11H62.2552C63.0055 10.9967 63.7268 11.2928 64.2798 11.8363C64.8514 12.3983 65.1798 13.1723 65.1798 13.9598V62.9694C65.1798 63.2941 64.9127 63.5583 64.5843 63.5583H46.4124C46.1027 66.8344 43.2377 69.4088 39.7619 69.4088L39.7602 69.4104ZM27.4868 62.4831C27.7454 65.6969 30.4709 68.2326 33.7851 68.2326H39.7585C42.7851 68.2326 45.247 65.8719 45.247 62.9711C45.247 62.6463 45.5141 62.3821 45.8424 62.3821H63.9872V13.9614C63.9872 13.4853 63.7864 13.0158 63.4376 12.6726C63.1144 12.3545 62.6975 12.1795 62.2671 12.1795C62.2637 12.1795 62.2603 12.1795 62.2569 12.1795H24.6336C26.3452 13.3473 27.4646 15.2739 27.4646 17.4478V40.9641C32.6724 41.9013 36.5378 46.4377 36.5378 51.7228C36.5378 57.0079 32.6826 61.5442 27.4851 62.4848L27.4868 62.4831Z" fill="white"/>
<path d="M72.6061 69.4106H39.7601C39.4318 69.4106 39.1647 69.1464 39.1647 68.8217C39.1647 68.497 39.4318 68.2328 39.7601 68.2328C42.7868 68.2328 45.2486 65.8721 45.2486 62.9712C45.2486 62.6465 45.5158 62.3823 45.8441 62.3823H78.6832C79.0116 62.3823 79.2787 62.6465 79.2787 62.9712C79.2787 66.5216 76.286 69.4106 72.6061 69.4106ZM43.6069 68.2328H72.6061C75.4218 68.2328 77.7475 66.185 78.0537 63.5602H46.4106C46.2286 65.4884 45.1619 67.1727 43.6051 68.2328H43.6069Z" fill="white"/>
<path d="M25.4791 62.6662C19.3798 62.6662 14.4187 57.7564 14.4187 51.7208C14.4187 49.2221 15.2915 46.7806 16.8771 44.8456C18.439 42.9392 20.6252 41.5931 23.0342 41.0581C24.2371 40.7787 25.5896 40.7098 26.9456 40.8831C32.4154 41.6049 36.5394 46.2641 36.5394 51.7225C36.5394 57.1809 32.4154 61.8535 26.949 62.567C26.4777 62.6343 25.981 62.6679 25.4791 62.6679V62.6662ZM25.4791 41.9667C24.7186 41.9667 23.9853 42.0474 23.3014 42.2056C18.769 43.2152 15.6079 47.1273 15.6079 51.7208C15.6079 57.1069 20.0348 61.4884 25.4774 61.4884C25.9231 61.4884 26.3638 61.4581 26.7857 61.3992C31.6702 60.7615 35.3485 56.6004 35.3485 51.7208C35.3485 46.8412 31.6702 42.6936 26.7925 42.0491C26.3553 41.9936 25.9112 41.965 25.4791 41.965V41.9667Z" fill="white"/>
<path d="M17.7006 58.7254L15.5171 60.7739L16.3367 61.6284L18.5202 59.5799L17.7006 58.7254Z" fill="white"/>
<path d="M11.3444 68.9781C10.8442 68.9781 10.3458 68.7896 9.96465 68.4144L8.67504 67.1389C8.30585 66.7738 8.10339 66.2909 8.10339 65.7743C8.10339 65.2578 8.30585 64.7749 8.67504 64.4097L12.9981 60.1342C13.3673 59.7691 13.8556 59.5688 14.3779 59.5688C14.9002 59.5688 15.3885 59.7691 15.7577 60.1342L17.0473 61.4096C17.8078 62.1618 17.8078 63.385 17.0473 64.1372L12.7242 68.4127C12.3448 68.7879 11.8446 68.9764 11.3444 68.9764V68.9781ZM14.3779 60.7467C14.1755 60.7467 13.9849 60.8241 13.8403 60.9671L9.5172 65.2426C9.37429 65.384 9.29433 65.5724 9.29433 65.7743C9.29433 65.9763 9.37259 66.163 9.5172 66.3061L10.8068 67.5815C10.9497 67.7228 11.1403 67.8019 11.3444 67.8019C11.5486 67.8019 11.7374 67.7245 11.882 67.5815L16.2051 63.3059C16.3481 63.1646 16.428 62.9761 16.428 62.7742C16.428 62.5723 16.3498 62.3855 16.2051 62.2425L14.9155 60.9671C14.7726 60.8258 14.5821 60.7467 14.3779 60.7467Z" fill="white"/>
<path d="M59.8459 39.9629H32.1533V41.1407H59.8459V39.9629Z" fill="white"/>
<path d="M59.8479 45.2197H37.8735V46.3976H59.8479V45.2197Z" fill="white"/>
<path d="M59.8479 50.4775H38.3754V51.6554H59.8479V50.4775Z" fill="white"/>
</svg>
