<svg width="80" height="80" viewBox="0 0 80 80" fill="none" xmlns="http://www.w3.org/2000/svg">
<g clip-path="url(#clip0_120_409)">
<path d="M30.2899 72.9688H9.61915C9.27773 72.9688 9 72.6922 9 72.3521V16.356C9 16.0159 9.27773 15.7393 9.61915 15.7393H43.4478V16.9728H10.2383V71.7353H30.2899V72.9688Z" fill="white"/>
<path d="M56.1988 28.7861H54.9604V47.4157H56.1988V28.7861Z" fill="white"/>
<path d="M32.5985 45.3311H16.5271V46.5646H32.5985V45.3311Z" fill="white"/>
<path d="M30.2899 50.8574H16.5271V52.0909H30.2899V50.8574Z" fill="white"/>
<path d="M28.5475 56.3818H16.5271V57.6153H28.5475V56.3818Z" fill="white"/>
<path d="M43.3169 40.0869H42.0786V30.4391H38.698V40.0869H37.4597V29.8223C37.4597 29.4822 37.7375 29.2056 38.0789 29.2056H42.6977C43.0392 29.2056 43.3169 29.4822 43.3169 29.8223V40.0869Z" fill="white"/>
<path d="M33.8633 39.5867H32.625V24.5978H29.2445V39.5867H28.0062V23.981C28.0062 23.6409 28.2839 23.3643 28.6253 23.3643H33.2442C33.5856 23.3643 33.8633 23.6409 33.8633 23.981V39.5867Z" fill="white"/>
<path d="M24.4098 39.5868H23.1715V33.0968H19.7909V39.5868H18.5526V32.48C18.5526 32.1399 18.8303 31.8633 19.1718 31.8633H23.7906C24.132 31.8633 24.4098 32.1399 24.4098 32.48V39.5868Z" fill="white"/>
<path d="M45.5069 39.874H16.5271V41.1075H45.5069V39.874Z" fill="white"/>
<path d="M55.5796 29.4033C48.5478 29.4033 42.8286 23.7044 42.8286 16.7016C42.8286 9.69881 48.5496 4 55.5796 4C62.6096 4 68.3306 9.69881 68.3306 16.7016C68.3306 23.7044 62.6096 29.4033 55.5796 29.4033ZM55.5796 5.23351C49.2306 5.23351 44.0669 10.379 44.0669 16.7016C44.0669 23.0242 49.2324 28.1697 55.5796 28.1697C61.9268 28.1697 67.0923 23.0242 67.0923 16.7016C67.0923 10.379 61.9285 5.23351 55.5796 5.23351Z" fill="white"/>
<path d="M60.3041 11.027L49.825 21.4619L50.7004 22.3343L61.1796 11.8993L60.3041 11.027Z" fill="white"/>
<path d="M51.9496 15.7219C50.4919 15.7219 49.3067 14.5412 49.3067 13.0892C49.3067 11.6372 50.4919 10.4565 51.9496 10.4565C53.4072 10.4565 54.5925 11.6372 54.5925 13.0892C54.5925 14.5412 53.4072 15.7219 51.9496 15.7219ZM51.9496 11.6918C51.1748 11.6918 50.545 12.3191 50.545 13.091C50.545 13.8628 51.1748 14.4901 51.9496 14.4901C52.7244 14.4901 53.3542 13.8628 53.3542 13.091C53.3542 12.3191 52.7244 11.6918 51.9496 11.6918Z" fill="white"/>
<path d="M59.2114 22.9465C57.7537 22.9465 56.5685 21.7658 56.5685 20.3138C56.5685 18.8618 57.7537 17.6812 59.2114 17.6812C60.669 17.6812 61.8543 18.8618 61.8543 20.3138C61.8543 21.7658 60.669 22.9465 59.2114 22.9465ZM59.2114 18.9147C58.4365 18.9147 57.8068 19.542 57.8068 20.3138C57.8068 21.0856 58.4365 21.713 59.2114 21.713C59.9862 21.713 60.616 21.0856 60.616 20.3138C60.616 19.542 59.9862 18.9147 59.2114 18.9147Z" fill="white"/>
<path d="M43.8051 54.1987C38.5176 54.1987 32.8992 52.6445 32.8992 49.7651C32.8992 48.4699 34.1128 47.3052 36.3152 46.4875C38.3248 45.7421 40.9853 45.3315 43.8051 45.3315C49.0927 45.3315 54.711 46.8858 54.711 49.7651C54.711 51.0603 53.4975 52.2251 51.2951 53.0427C49.2837 53.7881 46.6249 54.1987 43.8051 54.1987ZM43.8051 46.5651C41.1286 46.5651 38.6237 46.9474 36.7468 47.6435C35.1123 48.2497 34.1375 49.0426 34.1375 49.7651C34.1375 50.4876 35.114 51.2788 36.7468 51.8868C38.622 52.5828 41.1286 52.9652 43.8051 52.9652C46.4816 52.9652 48.9865 52.5828 50.8634 51.8868C52.498 51.2806 53.4727 50.4876 53.4727 49.7651C53.4727 49.0426 52.4962 48.2514 50.8634 47.6435C48.9883 46.9474 46.4816 46.5651 43.8051 46.5651Z" fill="white"/>
<path d="M43.8051 59.7601C38.5176 59.7601 32.8992 58.2059 32.8992 55.3265V49.7651H34.1375V55.3265C34.1375 56.049 35.114 56.8402 36.7468 57.4481C38.622 58.1442 41.1286 58.5266 43.8051 58.5266C46.4816 58.5266 48.9865 58.1442 50.8634 57.4481C52.498 56.842 53.4727 56.049 53.4727 55.3265V49.7651H54.711V55.3265C54.711 56.6217 53.4975 57.7865 51.2951 58.6041C49.2837 59.3495 46.6249 59.7601 43.8051 59.7601Z" fill="white"/>
<path d="M43.8069 65.2842C38.5193 65.2842 32.8992 63.73 32.8992 60.8489V55.291H34.1375V60.8489C34.1375 61.5713 35.114 62.3643 36.7468 62.9723C38.622 63.6683 41.1286 64.0507 43.8069 64.0507C45.9173 64.0507 47.9375 63.811 49.6499 63.3564L49.7914 63.3159C49.9383 63.2736 50.0816 63.2331 50.2213 63.1872L50.6122 64.3573C50.4548 64.4102 50.2938 64.456 50.1293 64.5018L49.9807 64.5441C48.1533 65.0287 46.0235 65.2824 43.8069 65.2824V65.2842Z" fill="white"/>
<path d="M54.7093 55.291H53.4709V59.381H54.7093V55.291Z" fill="white"/>
<path d="M43.8069 70.809C38.5194 70.809 32.8992 69.2548 32.8992 66.3737V60.8105H34.1375V66.3737C34.1375 67.0944 35.114 67.8874 36.7468 68.4935C38.6237 69.1914 41.1304 69.5737 43.8069 69.5737C45.9173 69.5737 47.9375 69.3341 49.6499 68.8795L49.9683 70.0707C48.1551 70.5517 46.0235 70.8055 43.8069 70.8055V70.809Z" fill="white"/>
<path d="M43.8051 76.3314C38.5176 76.3314 32.8992 74.7772 32.8992 71.8978V66.3364H34.1375V71.8978C34.1375 72.6203 35.114 73.4115 36.7468 74.0194C38.622 74.7155 41.1286 75.0979 43.8051 75.0979C46.0659 75.0979 48.194 74.8265 49.9595 74.3155L50.3062 75.4996C48.4293 76.0441 46.1809 76.3314 43.8051 76.3314Z" fill="white"/>
<path d="M60.0941 66.916C54.8065 66.916 49.1882 65.3618 49.1882 62.4824C49.1882 61.1872 50.4017 60.0224 52.6041 59.2048C54.6155 58.4594 57.2743 58.0488 60.0941 58.0488C65.3816 58.0488 71 59.6031 71 62.4824C71 63.7776 69.7864 64.9424 67.584 65.76C65.5744 66.5054 62.9139 66.916 60.0941 66.916ZM60.0941 59.2823C57.4176 59.2823 54.9109 59.6647 53.0358 60.3608C51.4012 60.967 50.4265 61.7599 50.4265 62.4824C50.4265 63.2049 51.403 63.9961 53.0358 64.6041C54.9109 65.3001 57.4176 65.6825 60.0941 65.6825C62.7706 65.6825 65.2755 65.3001 67.1524 64.6041C68.787 63.9979 69.7617 63.2049 69.7617 62.4824C69.7617 61.7599 68.7852 60.9687 67.1524 60.3608C65.2773 59.6647 62.7706 59.2823 60.0941 59.2823Z" fill="white"/>
<path d="M60.0941 72.4774C54.8065 72.4774 49.1882 70.9232 49.1882 68.0438V62.4824H50.4265V68.0438C50.4265 68.7663 51.403 69.5575 53.0358 70.1654C54.9109 70.8615 57.4176 71.2439 60.0941 71.2439C62.7706 71.2439 65.2755 70.8615 67.1524 70.1654C68.787 69.5592 69.7617 68.7663 69.7617 68.0438V62.4824H71V68.0438C71 69.339 69.7864 70.5038 67.584 71.3214C65.5744 72.0668 62.9139 72.4774 60.0941 72.4774Z" fill="white"/>
<path d="M60.0941 77.9998C54.8065 77.9998 49.1882 76.4456 49.1882 73.5662V68.0049H50.4265V73.5662C50.4265 74.2887 51.403 75.0799 53.0358 75.6879C54.9109 76.3839 57.4176 76.7663 60.0941 76.7663C62.7706 76.7663 65.2755 76.3839 67.1524 75.6879C68.787 75.0817 69.7617 74.2887 69.7617 73.5662V68.0049H71V73.5662C71 74.8614 69.7864 76.0262 67.584 76.8439C65.5744 77.5893 62.9139 77.9998 60.0941 77.9998Z" fill="white"/>
</g>
<defs>
<clipPath id="clip0_120_409">
<rect width="62" height="74" fill="white" transform="translate(9 4)"/>
</clipPath>
</defs>
</svg>
