<svg width="80" height="80" viewBox="0 0 80 80" fill="none" xmlns="http://www.w3.org/2000/svg">
<g clip-path="url(#clip0_120_440)">
<path d="M65.6491 72.9999C57.7361 72.9999 51.2982 66.5812 51.2982 58.6916C51.2982 50.802 57.7361 44.3833 65.6491 44.3833C73.5622 44.3833 80 50.802 80 58.6916C80 66.5812 73.5622 72.9999 65.6491 72.9999ZM65.6491 45.6163C58.418 45.6163 52.5349 51.482 52.5349 58.6916C52.5349 65.9013 58.418 71.7669 65.6491 71.7669C72.8802 71.7669 78.7633 65.9013 78.7633 58.6916C78.7633 51.482 72.8802 45.6163 65.6491 45.6163Z" fill="white"/>
<path d="M72.5163 59.3082H65.6509C65.3099 59.3082 65.0325 59.0317 65.0325 58.6917V51.8467H66.2692V58.0752H72.5163V59.3082Z" fill="white"/>
<path d="M47.7807 13.4277H25.7694V14.6608H47.7807V13.4277Z" fill="white"/>
<path d="M66.2674 42.4814H65.0308V15.4237C65.0308 15.0044 64.688 14.6627 64.2675 14.6627H54.9447V13.4297H64.2675C65.37 13.4297 66.2674 14.3245 66.2674 15.4237V42.4814Z" fill="white"/>
<path d="M54.2557 70.2998H11.1835V71.5328H54.2557V70.2998Z" fill="white"/>
<path d="M11.18 71.5326C10.832 71.5326 10.4786 71.4903 10.1288 71.404C8.31619 70.9601 7.00177 69.2004 7.00177 67.2223V15.4232C7.00177 14.324 7.89925 13.4292 9.00167 13.4292H19.1001V14.6622H8.99991C8.57943 14.6622 8.23669 15.0039 8.23669 15.4232V67.2223C8.23669 68.642 9.15714 69.8962 10.4239 70.208C11.3461 70.4334 12.2913 70.2379 13.0174 69.6707C13.7382 69.1071 14.1516 68.2669 14.1516 67.3632V64.6488C14.1516 63.9055 14.7576 63.3013 15.5031 63.3013H51.0367V64.5343H15.5031C15.4413 64.5343 15.3883 64.5872 15.3883 64.6488V67.3632C15.3883 68.6473 14.8017 69.8416 13.7806 70.6413C13.0315 71.2279 12.1199 71.5344 11.18 71.5344V71.5326Z" fill="white"/>
<path d="M65.0361 24.1143H7.84448V25.3473H65.0361V24.1143Z" fill="white"/>
<path d="M53.8122 41.2075C51.9413 41.2075 50.4184 39.6891 50.4184 37.8237C50.4184 35.9583 51.9413 34.4399 53.8122 34.4399C55.6832 34.4399 57.2061 35.9583 57.2061 37.8237C57.2061 39.6891 55.6832 41.2075 53.8122 41.2075ZM53.8122 35.673C52.6232 35.673 51.6551 36.6382 51.6551 37.8237C51.6551 39.0092 52.6232 39.9744 53.8122 39.9744C55.0012 39.9744 55.9694 39.0092 55.9694 37.8237C55.9694 36.6382 55.0012 35.673 53.8122 35.673Z" fill="white"/>
<path d="M42.3481 41.2075C40.4772 41.2075 38.9543 39.6891 38.9543 37.8237C38.9543 35.9583 40.4772 34.4399 42.3481 34.4399C44.219 34.4399 45.7419 35.9583 45.7419 37.8237C45.7419 39.6891 44.219 41.2075 42.3481 41.2075ZM42.3481 35.673C41.1591 35.673 40.191 36.6382 40.191 37.8237C40.191 39.0092 41.1591 39.9744 42.3481 39.9744C43.5371 39.9744 44.5053 39.0092 44.5053 37.8237C44.5053 36.6382 43.5371 35.673 42.3481 35.673Z" fill="white"/>
<path d="M30.9017 41.2075C29.0307 41.2075 27.5078 39.6891 27.5078 37.8237C27.5078 35.9583 29.0307 34.4399 30.9017 34.4399C32.7726 34.4399 34.2955 35.9583 34.2955 37.8237C34.2955 39.6891 32.7726 41.2075 30.9017 41.2075ZM30.9017 35.673C29.7127 35.673 28.7445 36.6382 28.7445 37.8237C28.7445 39.0092 29.7127 39.9744 30.9017 39.9744C32.0907 39.9744 33.0588 39.0092 33.0588 37.8237C33.0588 36.6382 32.0907 35.673 30.9017 35.673Z" fill="white"/>
<path d="M19.4552 41.2075C17.5843 41.2075 16.0614 39.6891 16.0614 37.8237C16.0614 35.9583 17.5843 34.4399 19.4552 34.4399C21.3262 34.4399 22.8491 35.9583 22.8491 37.8237C22.8491 39.6891 21.3262 41.2075 19.4552 41.2075ZM19.4552 35.673C18.2662 35.673 17.2981 36.6382 17.2981 37.8237C17.2981 39.0092 18.2662 39.9744 19.4552 39.9744C20.6442 39.9744 21.6124 39.0092 21.6124 37.8237C21.6124 36.6382 20.6442 35.673 19.4552 35.673Z" fill="white"/>
<path d="M42.3481 54.1616C40.4772 54.1616 38.9543 52.6432 38.9543 50.7778C38.9543 48.9124 40.4772 47.394 42.3481 47.394C44.219 47.394 45.7419 48.9124 45.7419 50.7778C45.7419 52.6432 44.219 54.1616 42.3481 54.1616ZM42.3481 48.6271C41.1591 48.6271 40.191 49.5923 40.191 50.7778C40.191 51.9633 41.1591 52.9285 42.3481 52.9285C43.5371 52.9285 44.5053 51.9633 44.5053 50.7778C44.5053 49.5923 43.5371 48.6271 42.3481 48.6271Z" fill="white"/>
<path d="M30.9017 54.1616C29.0307 54.1616 27.5078 52.6432 27.5078 50.7778C27.5078 48.9124 29.0307 47.394 30.9017 47.394C32.7726 47.394 34.2955 48.9124 34.2955 50.7778C34.2955 52.6432 32.7726 54.1616 30.9017 54.1616ZM30.9017 48.6271C29.7127 48.6271 28.7445 49.5923 28.7445 50.7778C28.7445 51.9633 29.7127 52.9285 30.9017 52.9285C32.0907 52.9285 33.0588 51.9633 33.0588 50.7778C33.0588 49.5923 32.0907 48.6271 30.9017 48.6271Z" fill="white"/>
<path d="M19.4552 54.1616C17.5843 54.1616 16.0614 52.6432 16.0614 50.7778C16.0614 48.9124 17.5843 47.394 19.4552 47.394C21.3262 47.394 22.8491 48.9124 22.8491 50.7778C22.8491 52.6432 21.3262 54.1616 19.4552 54.1616ZM19.4552 48.6271C18.2662 48.6271 17.2981 49.5923 17.2981 50.7778C17.2981 51.9633 18.2662 52.9285 19.4552 52.9285C20.6442 52.9285 21.6124 51.9633 21.6124 50.7778C21.6124 49.5923 20.6442 48.6271 19.4552 48.6271Z" fill="white"/>
<path d="M24.7995 20.757H20.4216C19.7132 20.757 19.1372 20.1827 19.1372 19.4764V8.28058C19.1372 7.57423 19.7132 7 20.4216 7H24.7995C25.508 7 26.0839 7.57423 26.0839 8.28058V19.4746C26.0839 20.181 25.508 20.7552 24.7995 20.7552V20.757ZM20.4216 8.23302C20.3951 8.23302 20.3739 8.25416 20.3739 8.28058V19.4746C20.3739 19.5011 20.3951 19.5222 20.4216 19.5222H24.7995C24.826 19.5222 24.8472 19.5011 24.8472 19.4746V8.28058C24.8472 8.25416 24.826 8.23302 24.7995 8.23302H20.4216Z" fill="white"/>
<path d="M53.5896 20.757H49.2118C48.5033 20.757 47.9274 20.1827 47.9274 19.4764V8.28058C47.9274 7.57423 48.5033 7 49.2118 7H53.5896C54.2981 7 54.874 7.57423 54.874 8.28058V19.4746C54.874 20.181 54.2981 20.7552 53.5896 20.7552V20.757ZM49.2118 8.23302C49.1853 8.23302 49.1641 8.25416 49.1641 8.28058V19.4746C49.1641 19.5011 49.1853 19.5222 49.2118 19.5222H53.5896C53.6161 19.5222 53.6373 19.5011 53.6373 19.4746V8.28058C53.6373 8.25416 53.6161 8.23302 53.5896 8.23302H49.2118Z" fill="white"/>
</g>
<defs>
<clipPath id="clip0_120_440">
<rect width="73" height="66" fill="white" transform="translate(7 7)"/>
</clipPath>
</defs>
</svg>
